<svg width="519" height="469" viewBox="0 0 519 469" fill="none" xmlns="http://www.w3.org/2000/svg">
<path opacity="0.586379" fill-rule="evenodd" clip-rule="evenodd" d="M295 287.5C259.5 308 158 352 158 352L316 441.5L446 365L295 287.5Z" fill="url(#paint0_linear_0_981)"/>
<path opacity="0.321638" fill-rule="evenodd" clip-rule="evenodd" d="M336 348C301.5 355.5 255.5 353.5 255.5 353.5L324.5 416L394.5 373L336 348Z" fill="url(#paint1_linear_0_981)"/>
<path fill-rule="evenodd" clip-rule="evenodd" d="M158 350.764L224.646 390L225 302.663L158 264V350.764Z" fill="#E0E3E7"/>
<path fill-rule="evenodd" clip-rule="evenodd" d="M294 224V281.527L352.656 315L353 227.282L294 224Z" fill="#6D83B1"/>
<path fill-rule="evenodd" clip-rule="evenodd" d="M357 224.736L290.246 186L158 263.264L224.765 302L357 224.736Z" fill="#E9EBF0"/>
<path d="M96 99.5C96 99.5 71.5 113 71.5 116.5C71.5 120 71.9616 159.667 71.9616 159.667" stroke="#AFC5DF" stroke-width="1.4" stroke-linecap="round" stroke-linejoin="round" stroke-dasharray="3"/>
<path d="M346 208.5C346 208.5 364 220.5 364.805 222.668C365.61 224.836 366 263.854 366 263.854" stroke="#8997DC" stroke-width="1.4" stroke-linecap="round" stroke-linejoin="round" stroke-dasharray="3"/>
<path fill-rule="evenodd" clip-rule="evenodd" d="M225.323 302.397L225 390L228.484 387.856L228.793 304.565L353.516 231.356L353.207 314.722L356.691 312.578L357 225L225.323 302.397Z" fill="#D1D2D6"/>
<path fill-rule="evenodd" clip-rule="evenodd" d="M222.227 250.435L213.918 223.004C213.48 221.554 214.114 219.997 215.438 219.27L253.55 198.318C255.173 197.462 256.718 198.731 257.017 199.722L264.55 227.865C264.849 228.845 264.419 229.903 263.518 230.398L225.53 252.316C224.622 252.815 222.818 252.491 222.227 250.435Z" fill="#B7BFD3"/>
<path fill-rule="evenodd" clip-rule="evenodd" d="M223.463 251.245L214.801 222.653C214.506 221.673 214.936 220.615 215.833 220.12L254.679 198.768C255.583 198.27 256.718 198.733 257.017 199.723L265.679 228.312C265.974 229.295 265.544 230.354 264.647 230.845L225.801 252.2C224.897 252.699 223.762 252.236 223.463 251.245Z" fill="#EDF1FC"/>
<path fill-rule="evenodd" clip-rule="evenodd" d="M227.223 248.288L219.383 222.407L253.258 203.786L261.097 229.666L227.223 248.288Z" fill="#AFC5DF"/>
<path fill-rule="evenodd" clip-rule="evenodd" d="M226.483 251.911L265.218 231.614C266.507 230.905 268.076 230.937 269.332 231.696L294.018 245.201C295.075 245.85 295.78 248.401 293.801 249.62L255.756 270.789C254.471 271.505 252.906 271.481 251.642 270.732L226.654 256.369C225.284 255.549 225.33 252.773 226.483 251.911Z" fill="#B1B6C3"/>
<path fill-rule="evenodd" clip-rule="evenodd" d="M293.82 248.22L255.774 269.393C254.493 270.102 252.924 270.081 251.664 269.332L226.675 254.965C225.298 254.153 225.334 252.147 226.736 251.38L233.301 247.774L261.657 232.181L265.233 230.211C266.525 229.505 268.094 229.537 269.35 230.3L293.88 244.646C295.239 245.465 295.204 247.447 293.82 248.22Z" fill="#EAEFFC"/>
<path fill-rule="evenodd" clip-rule="evenodd" d="M267.369 235.007C266.768 234.658 266.024 234.658 265.423 235.007L235.295 251.609C234.648 251.983 234.648 252.924 235.295 253.298L243.715 258.165C244.317 258.511 245.057 258.511 245.662 258.165L275.793 241.564C276.44 241.19 276.44 240.249 275.793 239.875L267.369 235.007Z" fill="#94A2C3"/>
<path fill-rule="evenodd" clip-rule="evenodd" d="M279.251 295.339L292.472 292.346L292.44 293.13C295.742 303.919 297.728 340.08 298.055 342.189C298.219 343.123 299.265 346.704 299.411 347.588C299.429 347.751 299.432 347.865 299.468 348.029C299.482 348.257 299.518 348.436 299.535 348.614C299.582 348.991 299.592 349.383 299.628 349.612C299.742 351.757 297.991 353.528 295.852 353.431C294.415 353.364 293.326 352.708 292.375 351.824C290.678 350.189 288.824 348.728 286.831 347.484C286.112 347.028 285.429 346.576 284.941 346.198C284.155 345.61 283.55 345.036 283.077 344.463C281.426 342.481 281.426 340.75 281.426 340.75C281.461 340.6 281.504 340.425 281.539 340.247C281.735 339.641 282.159 339.11 282.7 338.768C283.123 338.49 283.614 338.327 284.155 338.327H284.874C285.297 338.327 285.689 338.337 286.116 338.369C287.354 338.419 289.055 339.224 290.233 339.944L280.102 301.033C279.692 299.593 279.365 298.136 279.187 296.646C279.105 296.222 279.055 295.798 279.023 295.371L279.251 295.339Z" fill="#FCBAC0"/>
<path fill-rule="evenodd" clip-rule="evenodd" d="M281.427 340.749C281.427 340.749 281.427 343.614 284.939 346.197C285.438 346.568 286.117 347.031 286.833 347.487C288.825 348.745 290.665 350.195 292.377 351.824C293.331 352.714 294.42 353.367 295.85 353.431C298 353.538 299.893 352.853 299.626 349.614C299.604 349.397 299.576 349.005 299.533 348.613C299.512 348.442 299.491 348.264 299.469 348.089C299.427 347.851 299.434 347.719 299.412 347.587C299.153 348.674 297.953 348.959 297.021 348.916C295.612 348.848 294.37 348.51 293.412 347.619C291.701 345.99 279.416 338.971 287.014 338.508L286.114 338.369C282.466 337.941 281.907 339.138 281.537 340.246C281.495 340.421 281.448 340.596 281.427 340.749Z" fill="#343C6B"/>
<path fill-rule="evenodd" clip-rule="evenodd" d="M256.469 349.051L263.365 349.133C265.248 349.262 267.059 348.61 268.401 347.348C269.038 346.774 269.297 345.926 269.184 345.093C269.109 344.544 269.027 343.91 268.938 343.215C268.938 343.215 265.276 317.388 263.71 295.798L279.105 290.912L279.336 290.898L279.151 292.195L278.991 293.2C279.432 299.276 278.08 330.462 277.649 346.557C277.585 349.03 277.884 351.485 278.429 353.897C278.614 355.889 278.002 358.437 277.119 359.517C275.173 361.922 271.351 360.671 268.393 359.77L259.646 357.186C256.444 356.239 254.515 353.719 254.106 351.674C254.074 350.313 255.095 349.165 256.469 349.051Z" fill="#FCBAC0"/>
<path fill-rule="evenodd" clip-rule="evenodd" d="M256.469 349.051L260.892 349.098C259.095 349.425 258.362 350.975 260.02 352.362C261.906 353.944 278.041 357.756 278.454 354.001C278.457 354.753 278.44 355.344 278.429 355.643C278.383 357.03 277.966 358.419 277.119 359.517C275.176 362.036 271.347 360.657 268.394 359.77L259.646 357.186C256.437 356.221 254.515 353.719 254.106 351.674C254.077 350.313 255.116 349.165 256.469 349.051Z" fill="#343C6B"/>
<path fill-rule="evenodd" clip-rule="evenodd" d="M291.436 380.361C291.436 381.84 290.24 383.037 288.763 383.037C287.29 383.037 286.091 381.84 286.091 380.361C286.091 378.883 287.29 377.685 288.763 377.685C290.24 377.685 291.436 378.883 291.436 380.361Z" fill="#343C6B"/>
<path fill-rule="evenodd" clip-rule="evenodd" d="M340.526 380.361C340.526 381.84 339.331 383.037 337.854 383.037C336.38 383.037 335.181 381.84 335.181 380.361C335.181 378.883 336.38 377.685 337.854 377.685C339.331 377.685 340.526 378.883 340.526 380.361Z" fill="#343C6B"/>
<path fill-rule="evenodd" clip-rule="evenodd" d="M291.469 352.224C291.469 353.703 290.273 354.9 288.797 354.9C287.323 354.9 286.124 353.703 286.124 352.224C286.124 350.746 287.323 349.548 288.797 349.548C290.273 349.548 291.469 350.746 291.469 352.224Z" fill="#343C6B"/>
<path fill-rule="evenodd" clip-rule="evenodd" d="M340.516 352.224C340.516 353.703 339.32 354.9 337.843 354.9C336.37 354.9 335.171 353.703 335.171 352.224C335.171 350.746 336.37 349.548 337.843 349.548C339.32 349.548 340.516 350.746 340.516 352.224Z" fill="#343C6B"/>
<path fill-rule="evenodd" clip-rule="evenodd" d="M339.957 349.348L324.455 358.31V361.563L339.957 352.601C342.252 351.276 343.234 348.564 342.487 346.134C342.092 347.442 341.231 348.611 339.957 349.348Z" fill="#343C6B"/>
<path fill-rule="evenodd" clip-rule="evenodd" d="M286.666 349.348C285.392 348.611 284.53 347.442 284.135 346.134C283.388 348.568 284.37 351.276 286.666 352.601L302.171 361.567V358.313L286.666 349.348Z" fill="#343C6B"/>
<path fill-rule="evenodd" clip-rule="evenodd" d="M342.002 374.897C340.967 376.686 339.098 377.687 337.173 377.687C336.227 377.687 335.269 377.445 334.39 376.939L313.313 364.752L292.235 376.939C291.359 377.445 290.399 377.687 289.456 377.687C287.53 377.687 285.659 376.686 284.627 374.897C284.413 374.526 284.256 374.138 284.135 373.743C283.701 375.171 283.822 376.761 284.627 378.15C285.659 379.939 287.53 380.94 289.456 380.94C290.399 380.94 291.359 380.702 292.235 380.192L313.313 368.006L334.39 380.192C335.269 380.702 336.227 380.94 337.173 380.94C339.098 380.94 340.967 379.939 342.002 378.15C342.803 376.757 342.924 375.168 342.493 373.743C342.372 374.138 342.216 374.526 342.002 374.897Z" fill="#343C6B"/>
<path fill-rule="evenodd" clip-rule="evenodd" d="M289.456 377.686C290.399 377.686 291.36 377.447 292.236 376.941L313.313 364.754L334.391 376.941C335.27 377.447 336.227 377.686 337.17 377.686C339.096 377.686 340.967 376.684 342.003 374.896C342.217 374.525 342.373 374.137 342.494 373.745C342.096 372.437 341.238 371.268 339.964 370.531L324.455 361.565V358.312L339.957 349.347C341.231 348.609 342.092 347.44 342.487 346.133C342.366 345.741 342.209 345.352 341.996 344.982C340.455 342.316 337.046 341.397 334.388 342.94L313.313 355.123L292.236 342.94C289.567 341.397 286.165 342.316 284.627 344.982C284.41 345.352 284.257 345.741 284.136 346.136C284.531 347.44 285.392 348.609 286.666 349.347L302.171 358.312V361.565L286.666 370.531C285.392 371.268 284.531 372.437 284.136 373.745C284.257 374.137 284.41 374.525 284.627 374.896C285.659 376.684 287.531 377.686 289.456 377.686Z" fill="#466BA3"/>
<path fill-rule="evenodd" clip-rule="evenodd" d="M317.861 347.903C317.783 348.495 317.135 349.211 316.167 349.61C315.367 349.938 314.409 350.112 313.402 350.112C311.861 350.112 310.417 349.706 309.531 349.018C309.146 348.723 308.78 348.195 308.776 347.832L308.783 359.128C308.705 359.701 309.146 360.175 309.531 360.471C310.413 361.155 311.861 361.565 313.402 361.565C314.409 361.565 315.367 361.39 316.171 361.062C317.139 360.663 317.765 360.072 317.843 359.48C317.861 359.356 317.851 359.238 317.826 359.128C317.826 359.128 317.879 347.782 317.861 347.903Z" fill="#343C6B"/>
<path fill-rule="evenodd" clip-rule="evenodd" d="M316.168 349.61C315.367 349.938 314.41 350.112 313.403 350.112C311.862 350.112 310.413 349.702 309.531 349.018C309.147 348.722 308.709 348.249 308.787 347.678C308.869 347.083 309.492 346.492 310.463 346.096C311.264 345.765 312.218 345.594 313.228 345.594C314.766 345.594 316.21 346 317.093 346.684C317.477 346.98 317.919 347.454 317.84 348.031C317.758 348.623 317.136 349.211 316.168 349.61Z" fill="#343B65"/>
<path fill-rule="evenodd" clip-rule="evenodd" d="M310.602 347.309C310.555 347.655 310.819 347.936 311.05 348.115C311.577 348.524 312.445 348.77 313.367 348.77C313.972 348.77 314.545 348.667 315.025 348.467C315.605 348.229 315.986 347.876 316.032 347.52C316.043 347.448 316.032 319.968 316.032 319.968H310.602V347.309Z" fill="#343C6B"/>
<path fill-rule="evenodd" clip-rule="evenodd" d="M355.902 314.579L355.931 310.759L354.159 310.659C353.724 310.196 353.219 309.783 352.625 309.441L325.234 293.605C321.145 291.243 316.11 291.232 312.014 293.584L274.018 315.399C273.089 315.933 272.363 316.642 271.823 317.448L270.716 317.191L270.687 321.136C270.691 323.395 271.794 325.629 274 326.905L301.391 342.736C305.48 345.102 310.516 345.11 314.612 342.758L352.607 320.943C355.03 319.553 356.123 317.016 355.902 314.579Z" fill="#343B65"/>
<path fill-rule="evenodd" clip-rule="evenodd" d="M352.626 305.158L325.235 289.323C321.146 286.961 316.107 286.954 312.015 289.305L274.019 311.12C269.585 313.664 269.575 320.064 274.002 322.622L301.392 338.458C305.481 340.82 310.517 340.827 314.613 338.475L352.608 316.664C357.042 314.117 357.053 307.717 352.626 305.158Z" fill="#466BA3"/>
<path fill-rule="evenodd" clip-rule="evenodd" d="M264.145 292.61C265.789 287.653 280.867 279.148 280.867 279.148C283.262 277.794 286.269 277.598 288.949 278.959L308.144 288.751C308.76 289.107 309.4 289.353 310.048 289.549C318.29 276.686 330.873 280.937 337.489 284.496C340.136 285.918 341.795 288.669 341.883 291.673C341.955 294.089 342.175 297.249 342.759 300.481C343.595 304.918 344.086 310.64 342.759 314.392C339.741 322.855 325.695 328.047 320.977 328.742C308.575 330.577 296.009 326.664 286.447 318.544C279.686 312.803 271.615 305.951 266.732 301.821C264.067 299.569 263.046 295.924 264.145 292.61Z" fill="#B26CC9"/>
<path fill-rule="evenodd" clip-rule="evenodd" d="M344.988 269.146C343.309 288.263 342.7 296.205 341.86 297.089C332.309 307.034 316.914 308.228 308.744 302.135C306.907 300.766 305.79 298.657 306.352 296.437C307.004 293.871 307.89 290.251 308.584 286.93C308.626 286.741 308.655 286.538 308.683 286.349C309.334 282.943 309.192 279.436 308.292 276.073C308.235 275.869 308.192 275.67 308.135 275.481C305.456 273.927 303.648 271.045 303.648 267.724C303.648 266.566 303.865 265.479 304.271 264.463L300.014 251.044L299.911 250.723C300.317 247.563 301.52 245.186 303.37 243.144C305.224 241.084 307.701 239.36 310.754 237.503C310.886 237.446 311 237.361 311.132 237.286C311.754 236.926 312.359 236.534 312.968 236.185L313.619 235.793L315.124 234.938L316.79 233.983L321.786 231.082L322.985 230.387L323.665 230.01C323.694 229.981 323.768 229.981 323.854 229.995C324.145 230.024 324.665 230.213 325.274 230.462C326.619 231.039 328.37 231.88 328.704 231.734C330.007 231.186 331.266 230.879 332.54 230.708C335.896 230.259 339.241 231.039 341.732 233.156C344.946 235.868 345.54 240.083 345.828 243.518C346.81 255.042 345.479 263.551 344.988 269.146Z" fill="#A4B5F1"/>
<path fill-rule="evenodd" clip-rule="evenodd" d="M313.712 269.135C313.089 276.077 309.879 284.682 308.683 286.35C309.334 282.943 309.192 279.437 308.292 276.073C308.235 275.87 308.192 275.667 308.135 275.481C305.456 273.928 303.648 271.045 303.648 267.724C303.648 266.566 303.865 265.479 304.271 264.464L303.139 260.915L312.548 254.522C314.185 258.723 314.124 264.514 313.712 269.135Z" fill="#8997DC"/>
<path fill-rule="evenodd" clip-rule="evenodd" d="M307.41 221.9C309.691 231.453 316.118 232.144 322.018 229.03C328.598 225.559 332.423 217.542 332.619 211.769C332.914 202.975 327.196 197.445 319.915 197.199C303.331 196.636 306.62 218.59 307.41 221.9Z" fill="#FCBAC0"/>
<path fill-rule="evenodd" clip-rule="evenodd" d="M328.717 216.593V235.749C328.717 236.647 327.891 237.506 326.375 238.058C323.763 239.024 320.08 238.781 318.119 237.506C317.326 236.989 316.949 236.369 316.949 235.749L316.913 216.593H328.717Z" fill="#FCBAC0"/>
<path fill-rule="evenodd" clip-rule="evenodd" d="M333.448 218.764C331.672 226.304 323.9 226.81 319.772 225.438C313.167 223.243 310.032 214.684 309.851 209.282C309.573 201.05 314.929 195.873 321.744 195.641C337.266 195.114 334.178 215.664 333.448 218.764Z" fill="#365179"/>
<path fill-rule="evenodd" clip-rule="evenodd" d="M281.402 266.248C276.975 264.886 272 263.208 269.296 262.282L267.281 261.587C263.798 261.152 258.904 251.378 257.285 254.492C257.285 254.492 252.026 254.824 254.232 260.001C254.812 261.359 257.655 263.415 259.862 264.616C261.673 265.599 262.954 265.998 264.271 266.24C264.502 266.283 264.723 266.351 264.947 266.411C265.267 266.664 271.42 271.528 278.566 275.541L281.402 266.248Z" fill="#FCBAC0"/>
<path fill-rule="evenodd" clip-rule="evenodd" d="M301.9 245.27C301.9 245.27 286.605 263.037 285.242 265.649C285.022 266.08 274.363 263.61 274.363 263.61C271.573 264.327 269.104 268.702 269.812 271.492C269.812 271.492 282.214 280.497 287.417 279.353C290.082 278.765 312.622 260.079 313.615 255.721L312.202 242.01C309.519 242.793 301.9 245.27 301.9 245.27Z" fill="#A4B5F1"/>
<path fill-rule="evenodd" clip-rule="evenodd" d="M311.307 217.182C309.952 218.989 309.802 221.166 310.976 222.05C312.147 222.93 314.197 222.182 315.553 220.375C316.905 218.568 317.055 216.388 315.884 215.507C314.713 214.627 312.663 215.376 311.307 217.182Z" fill="#FCBAC0"/>
<path fill-rule="evenodd" clip-rule="evenodd" d="M306.49 200.433C309.198 196.624 319.024 195.551 321.742 195.64C322.226 195.658 318.379 197.269 318.774 197.554C322.536 200.237 323.141 205.856 320.13 210.111C318.166 212.872 315.162 214.387 312.255 214.355C310.832 218.043 311.679 222.041 314.412 224.417C313.7 224.175 313.009 223.858 312.372 223.388C309.38 221.278 308.28 217.433 309.198 213.713C308.732 213.51 308.276 213.275 307.849 212.969C304.081 210.31 303.479 204.687 306.49 200.433Z" fill="#365179"/>
<path fill-rule="evenodd" clip-rule="evenodd" d="M336.825 204.302C334.971 207.056 332.028 208.496 329.121 208.343C327.566 208.282 326.018 207.769 324.658 206.746C320.783 203.864 319.954 198.066 322.797 193.815C325.352 190.013 329.964 188.737 333.665 190.562C334.117 190.779 334.562 191.039 334.968 191.349C338.839 194.253 339.669 200.051 336.825 204.302Z" fill="#365179"/>
<path fill-rule="evenodd" clip-rule="evenodd" d="M330.706 335.57C330.66 335.916 330.923 336.197 331.155 336.376C331.685 336.785 332.55 337.031 333.471 337.031C334.076 337.031 334.649 336.928 335.13 336.728C335.71 336.49 336.09 336.137 336.137 335.781C336.147 335.709 336.137 308.229 336.137 308.229H330.706V335.57Z" fill="#343C6B"/>
<path fill-rule="evenodd" clip-rule="evenodd" d="M362.068 273.887L358.794 272.127C357.581 271.475 356.125 271.475 354.908 272.123L317.507 292.053C314.51 293.71 312.03 297.597 311.005 302.237L305.101 328.242C304.607 330.444 305.596 332.71 307.546 333.843L310.849 335.543L310.614 332.168C310.767 332.108 310.916 332.094 311.073 332.008L349.951 310.689C352.944 309.032 355.424 305.148 356.449 300.508L361.623 277.728C361.79 276.962 361.844 276.235 361.847 275.533L362.068 273.887Z" fill="#343B65"/>
<mask id="mask0_0_981" style="mask-type:alpha" maskUnits="userSpaceOnUse" x="308" y="273" width="56" height="63">
<path fill-rule="evenodd" clip-rule="evenodd" d="M308.202 273.375H364V335.682H308.202V273.375Z" fill="white"/>
</mask>
<g mask="url(#mask0_0_981)">
<path fill-rule="evenodd" clip-rule="evenodd" d="M363.746 280.974L358.575 303.754C357.55 308.394 355.07 312.278 352.074 313.935L313.196 335.25C309.986 337.028 307.359 333.055 308.455 328.084L313.633 305.283C314.658 300.643 317.139 296.756 320.135 295.099L359.006 273.805C362.216 272.03 364.846 276.007 363.746 280.974Z" fill="#466BA3"/>
</g>
<path fill-rule="evenodd" clip-rule="evenodd" d="M284.843 131.095C285.46 130.737 285.84 130.078 285.84 129.364V3.47688C285.84 1.93445 284.168 0.972561 282.835 1.74803L190.677 55.3477C190.061 55.7058 189.683 56.3643 189.683 57.0766V182.738C189.683 184.279 191.352 185.241 192.685 184.469L284.843 131.095Z" fill="#466BA3"/>
<path fill-rule="evenodd" clip-rule="evenodd" d="M174.175 194.203C174.792 193.846 175.172 193.186 175.172 192.473V66.5855C175.172 65.0431 173.5 64.0812 172.167 64.8567L80.0091 118.456C79.3934 118.814 79.0146 119.473 79.0146 120.185V245.847C79.0146 247.388 80.6836 248.35 82.0169 247.578L174.175 194.203Z" fill="#9FB9D7"/>
<path fill-rule="evenodd" clip-rule="evenodd" d="M248.051 221.749C248.287 221.608 248.419 221.343 248.389 221.07C248.335 220.565 247.781 220.282 247.34 220.533L231.288 229.694C231.052 229.829 230.906 230.08 230.906 230.351C230.906 230.931 231.532 231.295 232.036 231.009L242.696 224.954L248.051 221.749Z" fill="white"/>
<path fill-rule="evenodd" clip-rule="evenodd" d="M244.016 222.43L231.288 229.694C231.052 229.829 230.906 230.08 230.906 230.351C230.906 230.931 231.532 231.295 232.036 231.009L242.696 224.954L244.175 224.068L244.016 222.43Z" fill="#E48F29"/>
<path fill-rule="evenodd" clip-rule="evenodd" d="M129.657 164.151L132.988 161.871L131.323 148.9L129.657 164.151ZM127.57 177.577C127.34 177.734 127.104 177.788 126.861 177.74C126.619 177.692 126.414 177.541 126.249 177.285C126.083 177.032 126 176.66 126 176.169C126 176.077 126.006 175.92 126.019 175.696L129.714 144.254C129.803 143.52 130.004 142.877 130.318 142.324C130.63 141.774 130.965 141.376 131.323 141.131C131.693 140.878 132.031 140.815 132.337 140.942C132.643 141.07 132.842 141.441 132.931 142.052L136.626 168.436C136.652 168.633 136.664 168.777 136.664 168.869C136.664 169.329 136.578 169.81 136.406 170.311C136.233 170.811 136.026 171.252 135.784 171.633C135.541 172.013 135.305 172.282 135.075 172.439C134.871 172.579 134.695 172.615 134.549 172.546C134.402 172.479 134.303 172.233 134.252 171.807L133.524 166.192L129.121 169.206L128.412 175.804C128.361 176.299 128.259 176.684 128.106 176.957C127.952 177.231 127.774 177.437 127.57 177.577Z" fill="#4B6893"/>
<path fill-rule="evenodd" clip-rule="evenodd" d="M240.276 105.557L242.421 104.089C243.008 103.687 243.467 102.975 243.799 101.95C244.131 100.927 244.297 99.5396 244.297 97.7936V97.0586C244.297 95.2496 244.131 94.0996 243.799 93.6066C243.467 93.1156 243.008 93.0686 242.421 93.4706L240.276 94.9386V105.557ZM240.276 90.2496L242.421 88.7816C242.945 88.4236 243.331 87.7916 243.58 86.8866C243.829 85.9806 243.953 84.9456 243.953 83.7806C243.953 82.9526 243.889 82.3006 243.761 81.8206C243.633 81.3416 243.455 81.0266 243.225 80.8766C242.996 80.7286 242.72 80.7636 242.402 80.9806L240.276 82.4366V90.2496ZM238.879 111.753C238.547 111.981 238.282 111.979 238.085 111.745C237.886 111.514 237.788 111.137 237.788 110.616V80.8296C237.788 80.1866 237.902 79.6256 238.132 79.1466C238.362 78.6676 238.611 78.3366 238.879 78.1526L242.593 75.6106C243.245 75.1646 243.863 74.9636 244.451 75.0046C245.038 75.0486 245.516 75.5246 245.886 76.4346C246.256 77.3466 246.442 78.8896 246.442 81.0656C246.442 82.9346 246.296 84.5906 246.002 86.0326C245.708 87.4736 245.312 88.6266 244.814 89.4886C245.21 89.5546 245.554 89.7856 245.848 90.1816C246.142 90.5786 246.372 91.2026 246.538 92.0546C246.703 92.9066 246.787 94.0986 246.787 95.6306V96.5956C246.787 98.9856 246.617 101.01 246.279 102.666C245.941 104.323 245.481 105.664 244.9 106.689C244.319 107.716 243.672 108.473 242.958 108.962L238.879 111.753Z" fill="#FFFFFE"/>
<path fill-rule="evenodd" clip-rule="evenodd" d="M213.816 117.937C215.681 133.891 203.172 150.436 185.876 154.888C168.581 159.341 153.048 150.018 151.184 134.064C149.319 118.109 161.828 101.565 179.124 97.1118C196.419 92.6585 211.951 101.983 213.816 117.937Z" fill="url(#paint2_linear_0_981)"/>
<path d="M213.816 117.937C215.681 133.891 203.172 150.436 185.876 154.888C168.581 159.341 153.048 150.018 151.184 134.064C149.319 118.109 161.828 101.565 179.124 97.1118C196.419 92.6585 211.951 101.983 213.816 117.937" stroke="white" stroke-width="2"/>
<path d="M178.957 117.874C179.305 117.575 179.677 117.294 180.074 117.033C180.48 116.772 180.915 116.545 181.379 116.352C181.852 116.159 182.36 116.009 182.901 115.902C183.452 115.786 184.042 115.728 184.67 115.728C185.54 115.728 186.328 115.849 187.034 116.091C187.739 116.323 188.343 116.661 188.846 117.106C189.349 117.541 189.735 118.068 190.006 118.686C190.286 119.305 190.427 119.996 190.427 120.76C190.427 121.495 190.32 122.133 190.108 122.674C189.905 123.206 189.644 123.67 189.325 124.066C189.015 124.462 188.672 124.805 188.295 125.095C187.918 125.385 187.56 125.656 187.222 125.907C186.884 126.159 186.589 126.41 186.338 126.661C186.096 126.903 185.946 127.174 185.888 127.473L185.526 129.547H182.785L182.51 127.198C182.442 126.734 182.5 126.333 182.684 125.994C182.867 125.646 183.114 125.332 183.423 125.052C183.732 124.762 184.076 124.486 184.453 124.225C184.839 123.955 185.197 123.67 185.526 123.37C185.864 123.061 186.144 122.717 186.367 122.34C186.599 121.954 186.715 121.499 186.715 120.977C186.715 120.339 186.492 119.832 186.048 119.455C185.613 119.078 185.033 118.889 184.308 118.889C183.776 118.889 183.326 118.947 182.959 119.063C182.601 119.179 182.292 119.31 182.031 119.455C181.77 119.59 181.548 119.716 181.364 119.832C181.18 119.948 181.006 120.006 180.842 120.006C180.475 120.006 180.199 119.846 180.016 119.527L178.957 117.874ZM181.669 134.897C181.669 134.578 181.727 134.279 181.843 133.998C181.968 133.708 182.137 133.462 182.35 133.259C182.563 133.046 182.809 132.882 183.09 132.766C183.38 132.64 183.694 132.577 184.032 132.577C184.361 132.577 184.67 132.64 184.96 132.766C185.25 132.882 185.501 133.046 185.714 133.259C185.927 133.462 186.091 133.708 186.207 133.998C186.333 134.279 186.396 134.578 186.396 134.897C186.396 135.226 186.333 135.531 186.207 135.811C186.091 136.091 185.927 136.338 185.714 136.55C185.501 136.753 185.25 136.913 184.96 137.029C184.67 137.145 184.361 137.203 184.032 137.203C183.694 137.203 183.38 137.145 183.09 137.029C182.809 136.913 182.563 136.753 182.35 136.55C182.137 136.338 181.968 136.091 181.843 135.811C181.727 135.531 181.669 135.226 181.669 134.897Z" fill="white"/>
<defs>
<linearGradient id="paint0_linear_0_981" x1="373.109" y1="370.099" x2="373.801" y2="311.639" gradientUnits="userSpaceOnUse">
<stop stop-color="#EEEEEE" stop-opacity="0.01"/>
<stop offset="1" stop-color="#D8D8D8"/>
</linearGradient>
<linearGradient id="paint1_linear_0_981" x1="404.919" y1="389.051" x2="405.581" y2="353.599" gradientUnits="userSpaceOnUse">
<stop stop-color="#EEEEEE" stop-opacity="0.01"/>
<stop offset="1" stop-color="#D8D8D8"/>
</linearGradient>
<linearGradient id="paint2_linear_0_981" x1="182.5" y1="186" x2="242.429" y2="123.075" gradientUnits="userSpaceOnUse">
<stop stop-color="#F86062"/>
<stop offset="1" stop-color="#EFB563"/>
</linearGradient>
</defs>
</svg>
