<svg width="294" height="180" viewBox="0 0 294 180" fill="none" xmlns="http://www.w3.org/2000/svg">
<path fill-rule="evenodd" clip-rule="evenodd" d="M147 19.0013C109.677 19.0013 72.3532 26.796 43.9389 42.3853C16.5721 57.4007 1.50032 77.4341 1.50057 98.7945C1.50082 120.154 16.5723 140.187 43.9389 155.202C100.767 186.382 193.233 186.382 250.061 155.202C277.428 140.187 292.499 120.154 292.499 98.7945C292.5 77.4341 277.428 57.4007 250.061 42.3853C221.647 26.796 184.324 19.0013 147 19.0013ZM147 179C127.992 179 109.475 177.033 91.9644 173.155C73.8209 169.137 57.5788 163.235 43.6886 155.614C29.7887 147.988 19.0216 139.065 11.6862 129.095C4.59537 119.458 1 109.263 1 98.7945C1 88.3259 4.59511 78.1311 11.686 68.4928C19.0214 58.5222 29.7885 49.5999 43.6886 41.9731C57.5788 34.3526 73.8209 28.451 91.9644 24.4327C109.475 20.5547 127.992 18.5884 147 18.5884C166.009 18.5884 184.525 20.5547 202.036 24.4327C220.179 28.451 236.421 34.3526 250.311 41.9731C264.212 49.5999 274.979 58.5222 282.314 68.4928C289.405 78.1311 293 88.3259 293 98.7945C293 109.263 289.405 119.458 282.314 129.095C274.978 139.065 264.211 147.988 250.311 155.614C236.421 163.235 220.179 169.137 202.036 173.155C184.525 177.033 166.009 179 147 179Z" fill="#D6E2F2"/>
<path d="M43.9389 42.3853L43.8186 42.1661L43.8186 42.1661L43.9389 42.3853ZM1.50057 98.7945L1.25057 98.7945L1.50057 98.7945ZM43.9389 155.202L44.0592 154.983H44.0592L43.9389 155.202ZM250.061 155.202L249.941 154.983H249.941L250.061 155.202ZM292.499 98.7945L292.749 98.7945L292.499 98.7945ZM250.061 42.3853L250.181 42.1661H250.181L250.061 42.3853ZM91.9644 173.155L92.0184 172.911L91.9644 173.155ZM43.6886 155.614L43.5684 155.833H43.5684L43.6886 155.614ZM11.6862 129.095L11.8876 128.947H11.8876L11.6862 129.095ZM11.686 68.4928L11.4846 68.3446H11.4846L11.686 68.4928ZM43.6886 41.9731L43.5684 41.7539L43.5684 41.754L43.6886 41.9731ZM91.9644 24.4327L91.9103 24.1886L91.9103 24.1886L91.9644 24.4327ZM202.036 24.4327L202.09 24.1886V24.1886L202.036 24.4327ZM250.311 41.9731L250.431 41.754V41.7539L250.311 41.9731ZM282.314 68.4928L282.515 68.3446L282.314 68.4928ZM282.314 129.095L282.112 128.947L282.314 129.095ZM250.311 155.614L250.191 155.395L250.311 155.614ZM202.036 173.155L201.982 172.911L202.036 173.155ZM147 18.7513C109.646 18.7513 72.2789 26.5516 43.8186 42.1661L44.0592 42.6045C72.4274 27.0404 109.707 19.2513 147 19.2513V18.7513ZM43.8186 42.1661C16.4128 57.203 1.25032 77.3042 1.25057 98.7945L1.75057 98.7945C1.75032 77.5641 16.7314 57.5985 44.0592 42.6045L43.8186 42.1661ZM1.25057 98.7945C1.25082 120.284 16.413 140.385 43.8186 155.421L44.0592 154.983C16.7316 139.989 1.75082 120.024 1.75057 98.7945L1.25057 98.7945ZM43.8186 155.421C72.2788 171.037 109.646 178.837 147 178.837C184.354 178.837 221.721 171.037 250.181 155.421L249.941 154.983C221.573 170.548 184.293 178.337 147 178.337C109.707 178.337 72.4273 170.548 44.0592 154.983L43.8186 155.421ZM250.181 155.421C277.587 140.385 292.749 120.284 292.749 98.7945L292.249 98.7945C292.249 120.024 277.268 139.989 249.941 154.983L250.181 155.421ZM292.749 98.7945C292.75 77.3042 277.587 57.203 250.181 42.1661L249.941 42.6045C277.269 57.5985 292.25 77.5641 292.249 98.7945L292.749 98.7945ZM250.181 42.1661C221.721 26.5516 184.354 18.7513 147 18.7513V19.2513C184.293 19.2513 221.573 27.0404 249.941 42.6045L250.181 42.1661ZM147 178.75C128.009 178.75 109.51 176.785 92.0184 172.911L91.9103 173.399C109.44 177.282 127.975 179.25 147 179.25V178.75ZM92.0184 172.911C73.8942 168.897 57.675 163.002 43.8089 155.395L43.5684 155.833C57.4825 163.467 73.7476 169.376 91.9103 173.399L92.0184 172.911ZM43.8089 155.395C29.9322 147.781 19.1963 138.881 11.8876 128.947L11.4849 129.243C18.847 139.25 29.6452 148.194 43.5684 155.833L43.8089 155.395ZM11.8876 128.947C4.82362 119.346 1.25 109.202 1.25 98.7945H0.75C0.75 109.324 4.36711 119.569 11.4849 129.243L11.8876 128.947ZM1.25 98.7945C1.25 88.3866 4.82337 78.2427 11.8874 68.6409L11.4846 68.3446C4.36685 78.0194 0.75 88.2652 0.75 98.7945H1.25ZM11.8874 68.6409C19.196 58.7067 29.932 49.8063 43.8089 42.1923L43.5684 41.754C29.6449 49.3935 18.8467 58.3378 11.4846 68.3446L11.8874 68.6409ZM43.8089 42.1923C57.675 34.5849 73.8942 28.6908 92.0184 24.6767L91.9103 24.1886C73.7476 28.2111 57.4825 34.1202 43.5684 41.7539L43.8089 42.1923ZM92.0184 24.6767C109.51 20.803 128.009 18.8384 147 18.8384V18.3384C127.975 18.3384 109.44 20.3065 91.9103 24.1886L92.0184 24.6767ZM147 18.8384C165.992 18.8384 184.49 20.803 201.982 24.6767L202.09 24.1886C184.561 20.3065 166.026 18.3384 147 18.3384V18.8384ZM201.982 24.6767C220.106 28.6908 236.325 34.5849 250.191 42.1923L250.431 41.7539C236.518 34.1202 220.252 28.2111 202.09 24.1886L201.982 24.6767ZM250.191 42.1923C264.068 49.8063 274.804 58.7067 282.113 68.6409L282.515 68.3446C275.153 58.3378 264.355 49.3935 250.431 41.754L250.191 42.1923ZM282.113 68.6409C289.177 78.2427 292.75 88.3866 292.75 98.7945H293.25C293.25 88.2652 289.633 78.0195 282.515 68.3446L282.113 68.6409ZM292.75 98.7945C292.75 109.202 289.176 119.346 282.112 128.947L282.515 129.243C289.633 119.569 293.25 109.324 293.25 98.7945H292.75ZM282.112 128.947C274.804 138.881 264.068 147.781 250.191 155.395L250.431 155.833C264.355 148.194 275.153 139.25 282.515 129.243L282.112 128.947ZM250.191 155.395C236.325 163.002 220.106 168.897 201.982 172.911L202.09 173.399C220.252 169.376 236.518 163.467 250.431 155.833L250.191 155.395ZM201.982 172.911C184.49 176.785 165.992 178.75 147 178.75V179.25C166.026 179.25 184.561 177.282 202.09 173.399L201.982 172.911Z" fill="#D6E2F2"/>
<path fill-rule="evenodd" clip-rule="evenodd" d="M147.812 41.107C119.893 41.107 92.3652 47.0169 71.9319 58.1919C51.8279 69.1874 40.7561 83.8534 40.7564 99.4882C40.7564 115.123 51.8282 129.788 71.9319 140.783C113.705 163.63 181.674 163.63 223.446 140.783C243.549 129.788 254.621 115.123 254.621 99.4882C254.622 83.8534 243.55 69.1874 223.446 58.1919C216.455 54.3683 208.556 51.1041 199.969 48.4896C197.699 47.7984 195.348 47.1437 192.983 46.5439C178.546 42.8838 163.12 41.107 147.812 41.107ZM147.689 158.346C118.897 158.346 91.9038 152.255 71.6812 141.195C61.4507 135.6 53.5252 129.053 48.1254 121.737C42.9028 114.661 40.2549 107.175 40.2549 99.4882C40.2546 91.8009 42.9025 84.3152 48.1251 77.2393C53.525 69.9228 61.4507 63.3759 71.6812 57.7803C87.518 49.1191 107.597 43.47 129.748 41.4438C151.408 39.4626 173.32 41.0671 193.112 46.085C195.486 46.6867 197.844 47.3437 200.122 48.0373C208.743 50.6621 216.675 53.94 223.696 57.7803C233.927 63.3759 241.852 69.9228 247.252 77.2393C252.475 84.3152 255.123 91.8009 255.123 99.4882C255.123 107.175 252.475 114.661 247.252 121.737C241.852 129.053 233.927 135.6 223.696 141.195C203.474 152.255 176.481 158.346 147.689 158.346Z" fill="#D6E2F2"/>
<path d="M71.9319 58.1919L71.812 57.9726L71.812 57.9726L71.9319 58.1919ZM40.7564 99.4882H41.0064V99.4882L40.7564 99.4882ZM71.9319 140.783L72.0519 140.564H72.0519L71.9319 140.783ZM223.446 140.783L223.326 140.564L223.446 140.783ZM254.621 99.4882L254.371 99.4882V99.4882H254.621ZM223.446 58.1919L223.326 58.4112L223.446 58.1919ZM199.969 48.4896L199.896 48.7287V48.7287L199.969 48.4896ZM192.983 46.5439L193.044 46.3016L193.044 46.3016L192.983 46.5439ZM71.6812 141.195L71.8012 140.975H71.8012L71.6812 141.195ZM48.1254 121.737L48.3265 121.588H48.3265L48.1254 121.737ZM40.2549 99.4882H40.5049V99.4882L40.2549 99.4882ZM48.1251 77.2393L48.3263 77.3878L48.3263 77.3878L48.1251 77.2393ZM71.6812 57.7803L71.5612 57.5609L71.5612 57.5609L71.6812 57.7803ZM129.748 41.4438L129.725 41.1949V41.1949L129.748 41.4438ZM193.112 46.085L193.051 46.3274V46.3274L193.112 46.085ZM200.122 48.0373L200.049 48.2765L200.049 48.2765L200.122 48.0373ZM223.696 57.7803L223.816 57.5609V57.5609L223.696 57.7803ZM247.252 77.2393L247.051 77.3878L247.051 77.3878L247.252 77.2393ZM255.123 99.4882L254.873 99.4882V99.4882H255.123ZM247.252 121.737L247.051 121.588L247.252 121.737ZM223.696 141.195L223.577 140.975L223.696 141.195ZM147.812 40.857C119.862 40.857 92.2909 46.7726 71.812 57.9726L72.0519 58.4112C92.4395 47.2612 119.923 41.357 147.812 41.357V40.857ZM71.812 57.9726C51.6692 68.9892 40.5061 83.723 40.5064 99.4882L41.0064 99.4882C41.0061 83.9839 51.9867 69.3855 72.0519 58.4112L71.812 57.9726ZM40.5064 99.4882C40.5064 115.253 51.6694 129.986 71.812 141.003L72.0519 140.564C51.9869 129.59 41.0064 114.992 41.0064 99.4882H40.5064ZM71.812 141.003C92.7444 152.451 120.224 158.168 147.689 158.168C175.155 158.168 202.634 152.451 223.566 141.003L223.326 140.564C202.486 151.962 175.094 157.668 147.689 157.668C120.284 157.668 92.8925 151.962 72.0519 140.564L71.812 141.003ZM223.566 141.003C243.708 129.986 254.871 115.253 254.871 99.4882H254.371C254.371 114.992 243.391 129.59 223.326 140.564L223.566 141.003ZM254.871 99.4882C254.872 83.723 243.709 68.9892 223.566 57.9726L223.326 58.4112C243.391 69.3855 254.372 83.9839 254.371 99.4882L254.871 99.4882ZM223.566 57.9726C216.558 54.1398 208.643 50.8693 200.041 48.2504L199.896 48.7287C208.469 51.3389 216.352 54.5968 223.326 58.4112L223.566 57.9726ZM200.041 48.2504C197.768 47.558 195.414 46.9023 193.044 46.3016L192.921 46.7863C195.283 47.3851 197.63 48.0387 199.896 48.7287L200.041 48.2504ZM193.044 46.3016C178.585 42.6359 163.138 40.857 147.812 40.857V41.357C163.101 41.357 178.506 43.1317 192.921 46.7863L193.044 46.3016ZM147.689 158.096C118.929 158.096 91.9789 152.011 71.8012 140.975L71.5612 141.414C91.8287 152.499 118.865 158.596 147.689 158.596V158.096ZM71.8012 140.975C61.5938 135.393 53.6996 128.868 48.3265 121.588L47.9242 121.885C53.3509 129.238 61.3075 135.806 71.5612 141.414L71.8012 140.975ZM48.3265 121.588C43.1309 114.549 40.5049 107.115 40.5049 99.4882H40.0049C40.0049 107.236 42.6747 114.773 47.9242 121.885L48.3265 121.588ZM40.5049 99.4882C40.5046 91.8618 43.1307 84.4271 48.3263 77.3878L47.924 77.0908C42.6744 84.2033 40.0046 91.7399 40.0049 99.4882L40.5049 99.4882ZM48.3263 77.3878C53.6994 70.1075 61.5938 63.5825 71.8012 57.9996L71.5612 57.5609C61.3075 63.1692 53.3506 69.738 47.924 77.0908L48.3263 77.3878ZM71.8012 57.9996C87.6018 49.3582 107.646 43.7166 129.771 41.6928L129.725 41.1949C107.548 43.2235 87.4342 48.8799 71.5612 57.5609L71.8012 57.9996ZM129.771 41.6928C151.405 39.714 173.287 41.3169 193.051 46.3274L193.174 45.8427C173.352 40.8174 151.412 39.2112 129.725 41.1949L129.771 41.6928ZM193.051 46.3274C195.421 46.9281 197.775 47.5841 200.049 48.2765L200.195 47.7982C197.913 47.1034 195.551 46.4453 193.174 45.8427L193.051 46.3274ZM200.049 48.2765C208.656 50.8969 216.572 54.1685 223.577 57.9996L223.816 57.5609C216.778 53.7116 208.83 50.4273 200.195 47.7982L200.049 48.2765ZM223.577 57.9996C233.784 63.5825 241.678 70.1075 247.051 77.3878L247.453 77.0908C242.027 69.738 234.07 63.1692 223.816 57.5609L223.577 57.9996ZM247.051 77.3878C252.247 84.4271 254.873 91.8618 254.873 99.4882L255.373 99.4882C255.373 91.7399 252.703 84.2033 247.453 77.0908L247.051 77.3878ZM254.873 99.4882C254.873 107.115 252.247 114.549 247.051 121.588L247.453 121.885C252.703 114.773 255.373 107.236 255.373 99.4882H254.873ZM247.051 121.588C241.678 128.868 233.784 135.393 223.577 140.975L223.816 141.414C234.07 135.806 242.027 129.238 247.453 121.885L247.051 121.588ZM223.577 140.975C203.399 152.011 176.449 158.096 147.689 158.096V158.596C176.512 158.596 203.549 152.499 223.816 141.414L223.577 140.975Z" fill="#D6E2F2"/>
<path fill-rule="evenodd" clip-rule="evenodd" d="M258.093 150.959C259.3 151.629 261.275 151.629 262.482 150.959C263.688 150.289 263.688 149.192 262.482 148.522C261.275 147.852 259.3 147.852 258.093 148.522C256.887 149.192 256.887 150.289 258.093 150.959Z" fill="#FEE1A7"/>
<path fill-rule="evenodd" clip-rule="evenodd" d="M138.952 158.532C140.159 159.202 142.133 159.202 143.34 158.532C144.547 157.862 144.547 156.765 143.34 156.095C142.133 155.425 140.159 155.425 138.952 156.095C137.745 156.765 137.745 157.862 138.952 158.532Z" fill="#ADC5E4"/>
<path fill-rule="evenodd" clip-rule="evenodd" d="M37.7165 99.3243C38.9232 99.9943 40.898 99.9943 42.1046 99.3243C43.3113 98.6542 43.3113 97.5573 42.1046 96.8873C40.898 96.2169 38.9232 96.2169 37.7165 96.8873C36.5099 97.5573 36.5099 98.6542 37.7165 99.3243Z" fill="#ADC5E4"/>
<path fill-rule="evenodd" clip-rule="evenodd" d="M251.207 99.3243C252.413 99.9943 254.388 99.9943 255.595 99.3243C256.802 98.6542 256.802 97.5573 255.595 96.8873C254.388 96.2169 252.413 96.2169 251.207 96.8873C250 97.5573 250 98.6542 251.207 99.3243Z" fill="#ADC5E4"/>
<path fill-rule="evenodd" clip-rule="evenodd" d="M32.8952 150.959C34.1019 151.629 36.0767 151.629 37.2833 150.959C38.49 150.289 38.49 149.192 37.2833 148.522C36.0767 147.851 34.1019 147.851 32.8952 148.522C31.6886 149.192 31.6886 150.289 32.8952 150.959Z" fill="#FEC7A3"/>
<path fill-rule="evenodd" clip-rule="evenodd" d="M238.81 39.4279C240.017 40.0982 241.992 40.0982 243.198 39.4279C244.405 38.7578 244.405 37.6613 243.198 36.991C241.992 36.3207 240.017 36.3207 238.81 36.991C237.604 37.6613 237.604 38.7578 238.81 39.4279Z" fill="#FEC7A3"/>
<path fill-rule="evenodd" clip-rule="evenodd" d="M51.49 38.0511C52.6966 38.7215 54.6714 38.7215 55.8781 38.0511C57.0847 37.3811 57.0847 36.2842 55.8781 35.6141C54.6714 34.9441 52.6966 34.9441 51.49 35.6141C50.2833 36.2842 50.2833 37.3811 51.49 38.0511Z" fill="#FEE1A7"/>
<path fill-rule="evenodd" clip-rule="evenodd" d="M214.675 70.9117C214.675 92.5866 183.069 110.156 144.086 110.156C105.098 110.156 73.4961 92.5866 73.4961 70.9117C73.4961 49.2412 105.098 31.6716 144.086 31.6716C183.069 31.6716 214.675 49.2412 214.675 70.9117Z" fill="#9AA0A2"/>
<path fill-rule="evenodd" clip-rule="evenodd" d="M113.845 28.817C107.633 29.8869 101.572 31.3189 95.7591 33.1116L82.9263 25.7045L58.7833 49.2251L55.4542 56.3734C52.3483 59.7289 49.8676 63.227 48.0144 66.8125L29.918 47.8633L30.097 99.7816L48.1934 99.8139C50.0859 103.406 52.6044 106.913 55.7462 110.281L42.9946 117.64L83.5516 141.049L96.3046 133.689C102.137 135.502 108.213 136.956 114.438 138.048L114.495 148.492L171.672 148.596L171.616 138.151C177.828 137.082 183.889 135.65 189.702 133.857L202.535 141.263L242.839 118.001L230.006 110.595C233.112 107.24 235.593 103.742 237.447 100.155L255.542 100.188L255.363 67.187L237.268 67.1547C235.375 63.5623 232.856 60.0546 229.714 56.6887L224.755 49.2251L201.909 25.9193L189.156 33.2803C183.324 31.4662 177.247 30.0129 171.024 28.9203L170.967 18.4763L113.789 18.373L113.845 28.817ZM95.5167 110.734C69.2774 95.5895 69.1451 71.1126 95.2206 56.0629C121.296 41.0131 163.705 41.0895 189.944 56.2343C216.183 71.3784 216.316 95.8553 190.24 110.906C177.257 118.399 160.221 122.143 143.151 122.143C125.938 122.143 108.69 118.338 95.5167 110.734Z" fill="#C7D1D5"/>
<path fill-rule="evenodd" clip-rule="evenodd" d="M113.844 10.0178L113.793 0.688477H113.788L113.838 10.0192C113.84 10.0192 113.842 10.0185 113.844 10.0178Z" fill="#B2B9BC"/>
<path fill-rule="evenodd" clip-rule="evenodd" d="M189.943 37.4352C163.704 22.2904 121.294 22.214 95.2189 37.2638C82.0011 44.8926 75.522 54.9449 75.7602 64.9751C76.0102 55.318 82.4907 45.725 95.2189 38.3784C121.294 23.3286 163.704 23.4051 189.943 38.5498C202.881 46.0169 209.467 55.7531 209.699 65.51C209.961 55.3834 203.374 45.1866 189.943 37.4352Z" fill="#B2B9BC"/>
<path fill-rule="evenodd" clip-rule="evenodd" d="M55.4533 37.5748L43.5866 30.7253L42.6211 31.283L54.7942 38.3087C55.0132 38.0637 55.2281 37.8179 55.4533 37.5748Z" fill="#B2B9BC"/>
<path fill-rule="evenodd" clip-rule="evenodd" d="M230.377 38.6214L242.466 31.6439L241.501 31.0869L229.714 37.8896C229.94 38.1326 230.157 38.3777 230.377 38.6214Z" fill="#B2B9BC"/>
<path fill-rule="evenodd" clip-rule="evenodd" d="M237.446 81.3569C235.592 84.9424 233.111 88.4405 230.006 91.7961L230.665 92.1761C233.461 89.0457 235.727 85.7968 237.446 82.4716L255.541 82.5046L255.535 81.3893L237.446 81.3569Z" fill="#B2B9BC"/>
<path fill-rule="evenodd" clip-rule="evenodd" d="M202.534 122.465L189.701 115.059C183.888 116.851 177.828 118.283 171.615 119.352L171.621 120.466C177.831 119.397 183.89 117.965 189.701 116.173L202.534 123.58L242.838 100.317L241.873 99.7595L202.534 122.465Z" fill="#B2B9BC"/>
<path fill-rule="evenodd" clip-rule="evenodd" d="M114.494 129.693L114.437 119.249C108.213 118.157 102.137 116.703 96.3034 114.889L83.5512 122.249L43.9597 99.3987L42.9941 99.9556L83.5512 123.364L96.3034 116.004C102.137 117.818 108.213 119.272 114.437 120.364L114.494 130.808L171.672 130.911L171.666 129.796L114.494 129.693Z" fill="#B2B9BC"/>
<path fill-rule="evenodd" clip-rule="evenodd" d="M55.083 91.8636L55.7462 91.4808C52.6038 88.1143 50.0846 84.6072 48.1928 81.0148L30.097 80.9825L29.9242 49.0957H29.918L30.097 82.0971L48.1928 82.1295C49.9482 85.463 52.2511 88.7215 55.083 91.8636Z" fill="#B2B9BC"/>
<path fill-rule="evenodd" clip-rule="evenodd" d="M113.785 10.444C107.573 11.5138 101.512 12.9451 95.6982 14.7379L82.866 7.33143L42.5618 30.5939L55.3939 38.001C52.2887 41.3559 49.8074 44.854 47.9541 48.4395L29.8584 48.4064L30.0375 81.4078L48.1332 81.4409C50.025 85.0333 52.5449 88.5403 55.6866 91.9069L42.9344 99.2672L83.4921 122.676L96.2436 115.315C102.077 117.129 108.154 118.583 114.378 119.675L114.434 130.119L171.613 130.223L171.556 119.779C177.767 118.709 183.829 117.276 189.642 115.485L202.474 122.89L242.779 99.6286L229.947 92.2215C233.052 88.8666 235.533 85.3685 237.386 81.783L255.482 81.8154L255.303 48.814L237.207 48.7816C235.316 45.1892 232.796 41.6822 229.654 38.3156L242.407 30.9553L201.848 7.54692L189.097 14.9073C183.264 13.0932 177.187 11.6391 170.963 10.5472L170.906 0.103269L113.729 0L113.785 10.444ZM95.4565 92.3612C69.2178 77.2172 69.0842 52.7396 95.1597 37.6898C121.235 22.6401 163.645 22.7165 189.884 37.8606C216.123 53.0053 216.256 77.4829 190.181 92.5327C177.197 100.026 160.161 103.77 143.091 103.77C125.879 103.77 108.631 99.9646 95.4565 92.3612Z" fill="url(#paint0_linear_0_4329)"/>
<path fill-rule="evenodd" clip-rule="evenodd" d="M118.757 12.5555L115.273 13.1559C109.335 14.1782 103.553 15.5503 98.0888 17.2357L94.8864 18.2229L82.9482 11.3328L49.5527 30.607L61.491 37.4978L59.7803 39.3463C56.861 42.5008 54.4823 45.8371 52.7117 49.2643L51.6725 51.2753L34.835 51.2443L34.9107 65.2731L34.983 78.5886L51.8205 78.6189L52.8818 80.634C54.691 84.0688 57.1055 87.414 60.0585 90.5775L61.7892 92.4322L49.9246 99.2796L83.5301 118.676L95.394 111.828L98.6073 112.827C104.089 114.532 109.885 115.925 115.837 116.97L119.328 117.582L119.38 127.3L141.84 127.34L166.756 127.385L166.703 117.668L170.187 117.067C176.125 116.045 181.907 114.673 187.373 112.988L190.574 112L202.513 118.89L235.908 99.6163L223.97 92.7262L225.68 90.8777C228.6 87.7238 230.978 84.3868 232.75 80.959L233.789 78.948L250.626 78.9783L250.551 65.2731L250.477 51.634L233.641 51.6044L232.58 49.5899C230.77 46.1559 228.356 42.81 225.402 39.6451L223.671 37.7904L235.535 30.943L201.931 11.5476L190.067 18.3944L186.853 17.3954C181.369 15.6908 175.573 14.2973 169.625 13.2543L166.134 12.6423L166.081 2.92326L141.84 2.8792L118.705 2.83789L118.757 12.5555ZM128.402 105.693C128.386 105.691 128.369 105.689 128.352 105.686C127.265 105.556 126.183 105.41 125.106 105.25C125.061 105.244 125.017 105.236 124.972 105.23C123.924 105.073 122.88 104.903 121.841 104.718C121.761 104.705 121.68 104.688 121.6 104.674C120.6 104.494 119.604 104.302 118.616 104.097C118.491 104.071 118.368 104.042 118.243 104.016C117.299 103.816 116.359 103.608 115.427 103.384C115.259 103.344 115.093 103.299 114.924 103.258C114.04 103.041 113.159 102.819 112.287 102.581C112.067 102.521 111.851 102.455 111.632 102.393C110.815 102.165 110.002 101.933 109.197 101.687C108.923 101.601 108.654 101.509 108.381 101.422C107.638 101.187 106.896 100.951 106.165 100.699C105.832 100.584 105.508 100.46 105.178 100.343C104.513 100.105 103.848 99.8697 103.194 99.6184C102.802 99.4683 102.421 99.3065 102.032 99.1509C101.45 98.9175 100.864 98.6883 100.291 98.4445C99.8311 98.2476 99.3821 98.0377 98.9283 97.8346C98.4393 97.6156 97.9455 97.4036 97.4641 97.1764C96.9022 96.9107 96.3547 96.6304 95.8037 96.353C95.4436 96.1719 95.0744 95.9991 94.7184 95.8132C93.8176 95.343 92.9313 94.8577 92.0615 94.3558C78.1329 86.3166 71.0746 75.7997 70.8908 65.2731C70.7028 54.5524 77.6467 43.8199 91.744 35.6837C105.544 27.7175 123.656 23.7148 141.84 23.6515C160.468 23.5861 179.172 27.6562 193.399 35.8675C207.47 43.9886 214.533 54.6384 214.577 65.2731C214.621 75.8864 207.673 86.4846 193.717 94.5396C192.834 95.0491 191.933 95.542 191.016 96.0191C190.759 96.1527 190.492 96.2759 190.232 96.4067C189.564 96.744 188.896 97.0828 188.211 97.4036C187.919 97.5406 187.618 97.6659 187.323 97.7995C186.656 98.1024 185.99 98.406 185.309 98.6931C185.02 98.8142 184.723 98.9251 184.432 99.0442C183.731 99.3299 183.03 99.617 182.316 99.8862C182.044 99.9881 181.767 100.081 181.495 100.181C180.746 100.454 179.996 100.727 179.234 100.984C178.993 101.065 178.746 101.138 178.504 101.218C177.7 101.481 176.894 101.741 176.076 101.984C175.865 102.047 175.651 102.103 175.438 102.165C174.58 102.414 173.717 102.66 172.844 102.888C172.671 102.933 172.493 102.974 172.319 103.019C171.401 103.253 170.478 103.481 169.547 103.693C169.412 103.724 169.274 103.751 169.139 103.781C168.163 103.999 167.182 104.208 166.194 104.4C166.094 104.42 165.992 104.436 165.891 104.456C164.863 104.652 163.831 104.838 162.791 105.008C162.725 105.018 162.659 105.027 162.594 105.038C161.516 105.211 160.434 105.372 159.346 105.516C159.312 105.521 159.278 105.524 159.243 105.528C158.124 105.675 157 105.808 155.872 105.924C155.861 105.925 155.85 105.925 155.84 105.927C151.218 106.4 146.527 106.612 141.841 106.562C141.84 106.562 141.839 106.562 141.838 106.562C137.334 106.513 132.834 106.224 128.402 105.693Z" fill="url(#paint1_linear_0_4329)"/>
<path fill-rule="evenodd" clip-rule="evenodd" d="M242.838 99.6284V118.69L202.534 141.952V122.891L242.838 99.6284Z" fill="#D9E2E8"/>
<path fill-rule="evenodd" clip-rule="evenodd" d="M83.5518 122.676V141.737L42.9941 118.329V99.2673L83.5518 122.676Z" fill="#D9E2E8"/>
<path fill-rule="evenodd" clip-rule="evenodd" d="M61.7664 58.3864L54.7556 63.24L58.1501 65.2731C58.1501 65.2731 56.6736 66.155 54.7708 67.2896L61.8415 72.1728C61.8318 72.1804 54.6916 68.1756 53.9678 67.7694C50.6091 69.7728 46.4502 72.2527 46.444 72.2479L56.1902 65.2696C56.1902 65.2696 46.3889 58.2411 46.3985 58.2342L53.9499 62.7567C54.7453 62.3106 61.7574 58.3795 61.7664 58.3864ZM45.4385 59.0783L45.506 71.4217C45.5101 72.1797 46.5769 72.7952 47.8895 72.7979L60.513 72.8207C61.8256 72.8227 62.8862 72.2107 62.8821 71.4534L62.8153 59.11C62.8111 58.3526 61.7437 57.7365 60.431 57.7344L47.8076 57.7117C46.4949 57.7089 45.4344 58.321 45.4385 59.0783Z" fill="white"/>
<path fill-rule="evenodd" clip-rule="evenodd" d="M146.646 5.7348L146.724 20.0211C146.725 20.2421 147.036 20.4218 147.419 20.4224L151.751 20.43C152.134 20.4307 152.443 20.2524 152.441 20.0314L152.364 5.74513C152.363 5.52414 152.052 5.34445 151.669 5.34376L147.337 5.33619C146.954 5.3355 146.645 5.51381 146.646 5.7348ZM139.659 20.408L143.991 20.4162C144.374 20.4169 144.683 20.2379 144.681 20.0176L144.63 10.4453C144.628 10.225 144.317 10.0453 143.934 10.0446L139.603 10.0363C139.22 10.0356 138.911 10.2146 138.912 10.4349L138.964 20.0073C138.965 20.2276 139.276 20.4073 139.659 20.408ZM131.899 20.3942L136.231 20.4025C136.613 20.4025 136.923 20.2242 136.922 20.0032L136.895 15.1461C136.894 14.9251 136.582 14.7454 136.2 14.7447L131.868 14.7371C131.486 14.7364 131.176 14.9148 131.178 15.1357L131.204 19.9928C131.205 20.2138 131.517 20.3935 131.899 20.3942Z" fill="white"/>
<path fill-rule="evenodd" clip-rule="evenodd" d="M140.966 119.252C139.393 118.344 139.384 116.877 140.948 115.974C142.511 115.072 145.054 115.077 146.627 115.985C148.2 116.893 148.208 118.36 146.645 119.262C145.081 120.165 142.539 120.16 140.966 119.252ZM150.888 121.711C151.256 121.499 151.577 121.271 151.875 121.037L154.677 121.429C155.079 121.485 155.505 121.382 155.692 121.171C156.032 120.789 156.311 120.393 156.532 119.99C156.655 119.764 156.48 119.516 156.128 119.392L153.671 118.519C153.824 117.934 153.821 117.339 153.662 116.753L156.108 115.89C156.46 115.766 156.632 115.519 156.506 115.292C156.281 114.888 155.998 114.492 155.655 114.109C155.464 113.896 155.037 113.793 154.636 113.847L151.838 114.229C151.538 113.994 151.214 113.764 150.844 113.551C150.474 113.337 150.077 113.15 149.668 112.977L150.33 111.362C150.425 111.13 150.244 110.884 149.877 110.774C149.213 110.576 148.527 110.413 147.826 110.283C147.433 110.21 147.006 110.31 146.792 110.512L145.295 111.925C144.28 111.832 143.249 111.83 142.236 111.919L140.724 110.501C140.507 110.298 140.079 110.197 139.687 110.268C138.988 110.395 138.303 110.557 137.641 110.752C137.275 110.86 137.097 111.106 137.194 111.338L137.874 112.956C137.467 113.127 137.072 113.313 136.704 113.525C136.337 113.737 136.015 113.965 135.718 114.2L132.916 113.808C132.514 113.752 132.088 113.854 131.9 114.066C131.561 114.448 131.281 114.842 131.061 115.247C130.937 115.473 131.113 115.72 131.465 115.845L133.922 116.717C133.768 117.302 133.772 117.898 133.932 118.484L131.485 119.347C131.133 119.471 130.961 119.717 131.087 119.945C131.312 120.349 131.596 120.745 131.938 121.127C132.129 121.34 132.556 121.444 132.957 121.39L135.755 121.008C136.055 121.243 136.379 121.472 136.749 121.686C137.119 121.899 137.516 122.086 137.924 122.26L137.263 123.874C137.168 124.106 137.348 124.353 137.716 124.462C138.38 124.661 139.066 124.824 139.766 124.954C140.16 125.027 140.586 124.927 140.801 124.725L142.298 123.312C143.312 123.404 144.344 123.406 145.357 123.317L146.869 124.736C147.085 124.939 147.514 125.04 147.906 124.968C148.605 124.841 149.29 124.68 149.951 124.484C150.318 124.376 150.496 124.13 150.399 123.898L149.719 122.281C150.126 122.109 150.52 121.924 150.888 121.711Z" fill="white"/>
<path fill-rule="evenodd" clip-rule="evenodd" d="M198.391 103.373C199.68 102.918 201.129 102.673 202.585 102.657C203.465 102.648 204.173 103.074 204.18 103.583C204.19 104.24 204.403 104.938 204.852 105.571C204.502 105.919 204.364 106.52 204.936 106.851C205.52 107.188 206.302 107.299 206.817 107.143C209.374 108.484 212.423 109.12 215.701 107.228C218.98 105.335 217.878 103.576 215.554 102.1C215.825 101.802 215.632 101.351 215.048 101.015C214.476 100.684 213.433 100.763 212.831 100.966C211.734 100.707 210.525 100.584 209.386 100.578C208.504 100.574 207.765 100.166 207.783 99.6571C207.811 98.8171 208.234 97.9807 209.022 97.2371C210.066 96.2512 209.843 94.9418 208.357 94.0833L205.78 92.5962C205.28 92.3077 204.473 92.3064 203.976 92.5928L190.345 100.461C189.849 100.747 189.852 101.213 190.351 101.501L192.928 102.989C194.414 103.846 196.683 103.976 198.391 103.373Z" fill="white"/>
<path fill-rule="evenodd" clip-rule="evenodd" d="M233.729 60.6825C233.727 60.425 233.365 60.2164 232.919 60.215C232.474 60.2143 232.114 60.4222 232.115 60.6797C232.116 60.9365 232.479 61.1458 232.924 61.1465C233.37 61.1472 233.73 60.94 233.729 60.6825ZM233.784 70.9261C233.783 70.6693 233.421 70.46 232.975 70.4593C232.53 70.458 232.169 70.6659 232.171 70.9234C232.172 71.1801 232.534 71.3894 232.98 71.3901C233.426 71.3908 233.786 71.1836 233.784 70.9261ZM224.883 65.7881C224.881 65.5313 224.519 65.322 224.073 65.3213C223.628 65.3207 223.268 65.5279 223.269 65.7854C223.27 66.0428 223.633 66.2515 224.078 66.2521C224.524 66.2535 224.884 66.0456 224.883 65.7881ZM233.356 66.3623L242.576 66.3788C243.111 66.3802 243.543 66.1303 243.541 65.8219C243.54 65.5134 243.105 65.2621 242.57 65.2614L233.161 65.2442C232.774 65.2435 232.404 65.331 232.129 65.4873L227.915 67.881C227.724 67.9898 227.628 68.1344 227.629 68.2783C227.63 68.4201 227.723 68.5619 227.909 68.6707C228.286 68.8917 228.899 68.8951 229.278 68.6797L233.356 66.3623ZM221.716 65.7826C221.697 62.2391 226.675 59.3661 232.814 59.3772C238.953 59.3882 243.962 62.2797 243.982 65.8225C244.001 69.3661 239.023 72.239 232.884 72.228C226.745 72.217 221.735 69.3254 221.716 65.7826ZM245.918 65.826C245.896 61.667 240.014 58.2722 232.808 58.2591C225.602 58.2467 219.757 61.6195 219.779 65.7792C219.802 69.9382 225.683 73.333 232.89 73.346C240.096 73.3584 245.941 69.9857 245.918 65.826Z" fill="white"/>
<path fill-rule="evenodd" clip-rule="evenodd" d="M71.2958 32.0064L77.7735 28.2681L76.6144 27.5989L70.1367 31.3379L71.2958 32.0064Z" fill="white"/>
<path fill-rule="evenodd" clip-rule="evenodd" d="M90.0204 26.0483L75.0499 34.6885C74.6057 34.9453 73.8805 34.9439 73.4328 34.6858L67.1466 31.0576L83.7293 21.4866L90.0156 25.1148C90.4625 25.3729 90.4646 25.7915 90.0204 26.0483ZM79.3507 19.89L64.3802 28.5302C63.4263 29.081 63.4312 29.9767 64.3912 30.5309L72.5114 35.2173C73.4714 35.7715 75.023 35.7742 75.9775 35.2235L90.9473 26.5833C91.9012 26.0325 91.8963 25.1375 90.9363 24.5833L82.8161 19.8962C81.8561 19.342 80.3045 19.3393 79.3507 19.89Z" fill="white"/>
<path fill-rule="evenodd" clip-rule="evenodd" d="M202.011 24.2741C203.276 23.7467 205.166 23.8885 206.406 24.6039L212.914 28.3601C214.153 29.0754 214.399 30.1659 213.485 30.8964L211.47 32.5081L211.633 32.6024L218.306 28.7512C219.024 28.3367 219.019 27.6641 218.298 27.2469L208.334 21.4961C207.612 21.0796 206.446 21.0776 205.729 21.4913L199.056 25.3433L199.219 25.4369L202.011 24.2741ZM207.385 33.8864C207.021 34.0964 206.429 34.095 206.063 33.8836L205.218 33.3962C204.852 33.1848 204.85 32.8434 205.214 32.6327C205.579 32.4227 206.171 32.4241 206.537 32.6355L207.381 33.1229C207.747 33.3342 207.749 33.6757 207.386 33.8857L207.385 33.8864ZM200.267 26.4572L203.212 25.2304C203.669 25.0403 204.44 25.1298 204.967 25.4341L211.476 29.1904C212.003 29.4947 212.158 29.9401 211.828 30.2038L209.702 31.9029L200.267 26.4572ZM202.299 32.749L198.801 30.7305L199.94 30.073L203.437 32.0923L202.299 32.749ZM199.002 29.0479C198.639 29.2579 198.046 29.2572 197.68 29.0451L196.836 28.5584C196.469 28.3463 196.467 28.0049 196.832 27.7949C197.195 27.5842 197.787 27.5856 198.154 27.7969L198.998 28.2844C199.365 28.4957 199.367 28.8379 199.002 29.0479ZM211.379 33.0086L210.58 32.5473L212.933 30.6658C213.658 30.0861 213.445 29.2207 212.434 28.6369L205.926 24.8806C204.915 24.2975 203.415 24.1743 202.411 24.5928L199.151 25.9512L198.352 25.4899C197.986 25.2786 197.394 25.2772 197.029 25.4878C196.665 25.6978 196.667 26.0393 197.033 26.2507L197.486 26.5123L194.429 28.2761C193.701 28.6968 193.705 29.3797 194.438 29.8031L194.83 30.0289L193.81 30.6169C193.48 30.8083 193.481 31.1188 193.815 31.3109L194.779 31.8678C195.113 32.0606 195.651 32.0613 195.982 31.8706L197 31.2819L201.342 33.7886L200.324 34.3766C199.993 34.5673 199.995 34.8785 200.328 35.0705L201.293 35.6275C201.626 35.8196 202.164 35.8203 202.495 35.6296L203.514 35.0416L203.906 35.2674C204.638 35.6908 205.823 35.6929 206.551 35.2723L209.607 33.5084L210.06 33.7693C210.426 33.9807 211.018 33.9821 211.383 33.7721C211.747 33.5614 211.745 33.22 211.379 33.0086Z" fill="white"/>
<path fill-rule="evenodd" clip-rule="evenodd" d="M88.0133 103.223C88.0133 103.287 87.9238 103.338 87.8136 103.338L86.669 103.335C86.5581 103.335 86.4686 103.284 86.4679 103.22L86.4624 102.237L84.8564 102.234C84.7462 102.234 84.656 102.182 84.6553 102.118L84.6519 101.457C84.6519 101.393 84.7414 101.342 84.8523 101.342L86.4576 101.345L86.4521 100.363C86.4521 100.299 86.5416 100.247 86.6525 100.247L87.7964 100.249C87.9072 100.249 87.9975 100.301 87.9975 100.365L88.003 101.348L89.7054 101.351C89.8163 101.351 89.9065 101.403 89.9065 101.467L89.9106 102.128C89.9106 102.191 89.8211 102.243 89.7102 102.243L88.0078 102.24L88.0133 103.223ZM92.1523 100.1L87.5112 97.4209L80.1162 101.689L87.5574 105.985L92.1695 103.322C93.7066 102.435 93.699 100.993 92.1523 100.1Z" fill="white"/>
<path fill-rule="evenodd" clip-rule="evenodd" d="M70.3141 100.4C70.3919 100.355 70.5193 100.356 70.5978 100.401L73.4765 102.062C73.555 102.108 73.5557 102.181 73.4772 102.226L72.6707 102.692C72.5929 102.737 72.4655 102.736 72.387 102.691L69.5083 101.03C69.4298 100.984 69.4291 100.911 69.5076 100.866L70.3141 100.4ZM66.5463 100.053C65.0092 100.941 65.0168 102.383 66.5635 103.276L71.2045 105.955L78.5996 101.686L71.1584 97.3918L66.5463 100.053Z" fill="white"/>
<path fill-rule="evenodd" clip-rule="evenodd" d="M80.0315 95.9849C80.1093 95.9401 80.2368 95.9401 80.3153 95.9856L81.1265 96.4537C81.205 96.4992 81.2057 96.5728 81.1279 96.6176L80.2423 97.1291L81.1334 97.6434C81.2119 97.6888 81.2119 97.7618 81.1341 97.8072L80.3277 98.2726C80.2491 98.3174 80.1224 98.3174 80.0439 98.2719L79.1528 97.7577L78.2664 98.2685C78.1886 98.3139 78.0619 98.3133 77.9834 98.2685L77.1714 97.7997C77.0929 97.7542 77.0929 97.6812 77.1708 97.6358L78.0564 97.125L77.1652 96.6107C77.0867 96.5653 77.086 96.4916 77.1646 96.4468L77.971 95.9814C78.0488 95.936 78.1755 95.936 78.2547 95.9814L79.1459 96.4964L80.0315 95.9849ZM76.5261 94.2933L71.9141 96.9556L79.3559 101.25L86.751 96.9825L82.1093 94.3037C80.5632 93.4107 78.0633 93.4066 76.5261 94.2933Z" fill="white"/>
<path fill-rule="evenodd" clip-rule="evenodd" d="M78.1099 105.232C78.1877 105.188 78.3152 105.188 78.3937 105.233L81.2723 106.894C81.3509 106.94 81.3515 107.013 81.273 107.058L81.0423 107.191C80.9645 107.236 80.8371 107.236 80.7586 107.191L77.8799 105.529C77.8014 105.484 77.8014 105.411 77.8792 105.365L78.1099 105.232ZM81.6153 105.035C81.9686 105.238 81.9707 105.568 81.6194 105.771C81.2682 105.974 80.6973 105.972 80.344 105.769C79.9907 105.565 79.9886 105.235 80.3399 105.033C80.6911 104.83 81.262 104.831 81.6153 105.035ZM77.5369 107.389C77.1837 107.185 77.1816 106.855 77.5328 106.653C77.884 106.449 78.455 106.451 78.8082 106.655C79.1615 106.858 79.1636 107.188 78.8124 107.391C78.4612 107.594 77.8902 107.592 77.5369 107.389ZM71.9648 106.394L76.6065 109.073C78.1526 109.965 80.6525 109.97 82.1897 109.083L86.8017 106.421L79.3606 102.125L71.9648 106.394Z" fill="white"/>
<path fill-rule="evenodd" clip-rule="evenodd" d="M171.117 31.1122V64.5966L179 60.0508L178.999 26.5657L171.117 31.1122Z" fill="#E0E2E2"/>
<path fill-rule="evenodd" clip-rule="evenodd" d="M163.118 60.0307L171.117 64.5967V31.1124L163.117 26.5464L163.118 60.0307Z" fill="#00226D"/>
<path fill-rule="evenodd" clip-rule="evenodd" d="M171 22L163.117 26.5466L171.117 31.1117L178.999 26.566L171 22Z" fill="#00226D"/>
<path fill-rule="evenodd" clip-rule="evenodd" d="M153.787 54.8774L155.217 54.053C156.395 53.3734 157.331 52.452 158.026 51.2878C158.721 50.1237 159.069 48.8689 159.069 47.5252C159.069 45.2657 157.982 44.7625 155.812 46.014L153.787 47.1814V54.8774ZM167.01 42.8994C167.01 46.6402 166.054 50.0816 164.142 53.223C162.229 56.3643 159.512 58.9507 155.991 60.9812L153.787 62.2522V73.3597L145.945 77.8828L145.944 44.3984L155.991 38.6044C159.657 36.4897 162.41 35.8263 164.25 36.6118C166.09 37.399 167.01 39.4951 167.01 42.8994Z" fill="#E0E2E2"/>
<path fill-rule="evenodd" clip-rule="evenodd" d="M138.013 39.814L145.945 44.3985L145.946 77.8829L138.014 73.2983L138.013 39.814Z" fill="#00226D"/>
<path fill-rule="evenodd" clip-rule="evenodd" d="M156.319 32.0272C154.479 31.2409 151.725 31.9051 148.059 34.0198L138.013 39.8138L145.945 44.3984L155.991 38.6044C159.658 36.4897 162.411 35.8263 164.251 36.6118L156.319 32.0272Z" fill="#00226D"/>
<path fill-rule="evenodd" clip-rule="evenodd" d="M153.787 54.8772L155.216 54.0529C156.395 53.3733 157.331 52.4519 158.026 51.2877C158.721 50.1236 159.069 48.8688 159.069 47.5251C159.069 45.2656 157.982 44.7624 155.812 46.0139L153.787 47.1813V54.8772Z" fill="#00226D"/>
<path fill-rule="evenodd" clip-rule="evenodd" d="M155.812 46.0139L153.811 47.1683L158.637 49.9585C158.914 49.1819 159.069 48.3737 159.069 47.5251C159.069 45.2656 157.983 44.7624 155.812 46.0139Z" fill="#00226D"/>
<path fill-rule="evenodd" clip-rule="evenodd" d="M129.223 71.56L128.002 66.8986C127.718 65.8703 127.372 64.5274 126.965 62.8689C126.558 61.2113 126.29 60.01 126.161 59.2641C126.045 60.0917 125.815 61.4759 125.473 63.4166C125.13 65.3582 124.371 69.2309 123.196 75.0362L129.223 71.56ZM132.208 83.2071L130.812 77.8863L121.607 83.1958L120.173 90.1483L111.762 94.9998L121.006 56.85L131.219 50.9597L140.58 78.3782L132.208 83.2071Z" fill="#E0E2E2"/>
<path fill-rule="evenodd" clip-rule="evenodd" d="M113.244 52.1604L121.006 56.8502L111.762 95L104 90.3102L113.244 52.1604Z" fill="#00226D"/>
<path fill-rule="evenodd" clip-rule="evenodd" d="M123.458 46.2698L131.22 50.9595L121.006 56.8498L113.244 52.1601L123.458 46.2698Z" fill="#00226D"/>
<path fill-rule="evenodd" clip-rule="evenodd" d="M126.98 80.0969L132.208 83.2075L130.813 77.8867L126.98 80.0969Z" fill="#00226D"/>
<path fill-rule="evenodd" clip-rule="evenodd" d="M123.196 75.0362L129.224 71.56L124.46 68.7261C124.112 70.4905 123.694 72.5801 123.196 75.0362Z" fill="#00226D"/>
<path fill-rule="evenodd" clip-rule="evenodd" d="M126.966 62.8693C126.558 61.2117 126.29 60.0095 126.161 59.2644C126.045 60.092 125.816 61.4762 125.473 63.417C125.275 64.5366 124.935 66.3205 124.46 68.7264L124.509 68.7547L129.223 71.5603L128.002 66.8989C127.718 65.8707 127.373 64.5269 126.966 62.8693Z" fill="#00226D"/>
<defs>
<linearGradient id="paint0_linear_0_4329" x1="29.8584" y1="0" x2="29.8584" y2="130.223" gradientUnits="userSpaceOnUse">
<stop stop-color="#D9DDDF"/>
<stop offset="1" stop-color="#EBF3F7"/>
</linearGradient>
<linearGradient id="paint1_linear_0_4329" x1="92.7798" y1="119.296" x2="213.739" y2="-10.0577" gradientUnits="userSpaceOnUse">
<stop stop-color="#F86062"/>
<stop offset="1" stop-color="#EFB563"/>
</linearGradient>
</defs>
</svg>
