<svg width="17" height="13" viewBox="0 0 17 13" fill="none" xmlns="http://www.w3.org/2000/svg">
<path fill-rule="evenodd" clip-rule="evenodd" d="M16.6516 7.4858C16.6667 7.46743 16.6797 7.44767 16.6937 7.42875C16.7097 7.40732 16.7262 7.38617 16.741 7.36391C16.7562 7.34081 16.7694 7.31715 16.7832 7.2935C16.795 7.27346 16.8074 7.25398 16.8184 7.23339C16.8311 7.20917 16.8421 7.1844 16.8533 7.15991C16.8633 7.13849 16.874 7.11761 16.8828 7.09563C16.8927 7.07142 16.901 7.04637 16.9095 7.0216C16.9178 6.9985 16.9266 6.97596 16.9337 6.9523C16.9414 6.9267 16.9469 6.90082 16.9533 6.87522C16.9591 6.85184 16.9657 6.82874 16.9703 6.80481C16.9764 6.77419 16.98 6.74302 16.9844 6.71213C16.9869 6.69293 16.9907 6.67401 16.9924 6.65425C17.0025 6.55183 17.0025 6.44831 16.9924 6.34589C16.9907 6.32613 16.9869 6.30749 16.9844 6.28801C16.98 6.25712 16.9764 6.22595 16.9703 6.19533C16.9657 6.1714 16.9591 6.14858 16.9533 6.1252C16.9469 6.09932 16.9414 6.07344 16.9337 6.04784C16.9266 6.02446 16.9178 6.00164 16.9095 5.97854C16.901 5.95377 16.8927 5.929 16.8828 5.90451C16.874 5.88253 16.8633 5.86165 16.8533 5.84022C16.8421 5.81573 16.8311 5.79097 16.8184 5.76675C16.8074 5.74616 16.795 5.72668 16.7832 5.70664C16.7694 5.68299 16.7562 5.65933 16.741 5.63651C16.7262 5.61397 16.7097 5.5931 16.6937 5.57139C16.6797 5.55246 16.6667 5.53298 16.6516 5.51434C16.6194 5.47482 16.5855 5.43669 16.5497 5.40051L11.6587 0.455435C11.058 -0.151812 10.0841 -0.151812 9.48345 0.455435C8.88253 1.06296 8.88253 2.04758 9.48345 2.65482L11.7487 4.94494H1.53823C0.688734 4.94494 0 5.64124 0 6.50007C0 7.3589 0.688734 8.0552 1.53823 8.0552H11.7487L9.48345 10.3453C8.88253 10.9526 8.88253 11.9372 9.48345 12.5444C9.78377 12.8483 10.1771 13 10.5711 13C10.9647 13 11.3583 12.8483 11.6587 12.5444L16.5497 7.5999C16.5855 7.56372 16.6194 7.5256 16.6516 7.4858Z" fill="white"/>
</svg>
