<svg width="404" height="379" viewBox="0 0 404 379" fill="none" xmlns="http://www.w3.org/2000/svg">
<path opacity="0.514951" fill-rule="evenodd" clip-rule="evenodd" d="M249 328C186.678 290.001 129.863 250.998 67.5418 213L65 219L0 262.5C0 262.5 121.5 340 186 378.5L249 328Z" fill="url(#paint0_linear_0_74)"/>
<mask id="mask0_0_74" style="mask-type:alpha" maskUnits="userSpaceOnUse" x="359" y="217" width="45" height="32">
<path fill-rule="evenodd" clip-rule="evenodd" d="M359.785 217.987H404V248.023H359.785V217.987Z" fill="white"/>
</mask>
<g mask="url(#mask0_0_74)">
<path fill-rule="evenodd" clip-rule="evenodd" d="M381.431 240.106L359.785 222.72L370.059 217.987L404.001 235.966L381.312 248.023L381.431 240.106Z" fill="#F8F7F6"/>
</g>
<path fill-rule="evenodd" clip-rule="evenodd" d="M381.444 237.137L381.278 250.858L246.834 328L246.999 314.282L381.444 237.137Z" fill="#C1C6CE"/>
<path fill-rule="evenodd" clip-rule="evenodd" d="M246.999 314.282L246.834 328L61.7737 220.78L61.9388 207.062L246.999 314.282Z" fill="#D6D9DC"/>
<path fill-rule="evenodd" clip-rule="evenodd" d="M381.444 237.137L246.999 314.283L61.9385 207.063L196.382 129.918L381.444 237.137Z" fill="#F8F7F6"/>
<mask id="mask1_0_74" style="mask-type:alpha" maskUnits="userSpaceOnUse" x="46" y="126" width="327" height="175">
<path fill-rule="evenodd" clip-rule="evenodd" d="M46 126.425H372.044V300.049H46V126.425Z" fill="white"/>
</mask>
<g mask="url(#mask1_0_74)">
<path fill-rule="evenodd" clip-rule="evenodd" d="M372.044 233.644L224.225 300.049L45.9998 207.319L186.981 126.425L372.044 233.644Z" fill="#F8F7F6"/>
</g>
<path fill-rule="evenodd" clip-rule="evenodd" d="M381.459 222.296L381.292 236.015L246.85 313.158L247.015 299.437L381.459 222.296Z" fill="#C1C6CE"/>
<path fill-rule="evenodd" clip-rule="evenodd" d="M247.015 299.437L246.85 313.158L61.7899 205.937L61.9538 192.221L247.015 299.437Z" fill="#D6D9DC"/>
<path fill-rule="evenodd" clip-rule="evenodd" d="M210.281 285.995L61.8022 203.189L61.9304 197.46L210.281 285.995Z" fill="#C1C6CE"/>
<path fill-rule="evenodd" clip-rule="evenodd" d="M381.459 222.296L247.015 299.437L61.9547 192.221L196.397 115.077L381.459 222.296Z" fill="#F8FAFB"/>
<path fill-rule="evenodd" clip-rule="evenodd" d="M381.312 248.023L276.891 303.513L381.431 240.107L381.312 248.023Z" fill="#F8F7F6"/>
<path fill-rule="evenodd" clip-rule="evenodd" d="M351.546 94.5921V152.293L296.952 120.709V63.1401L351.546 94.5921Z" fill="#A5BFD1"/>
<path fill-rule="evenodd" clip-rule="evenodd" d="M288.384 61.3413V116.686L233.79 85.1008V29.8894L288.384 61.3413Z" fill="#D9E1E1"/>
<path fill-rule="evenodd" clip-rule="evenodd" d="M281.257 87.4111V90.0401L242.869 67.7342V65.2375L281.257 87.4111Z" fill="#F2F1F0"/>
<path fill-rule="evenodd" clip-rule="evenodd" d="M281.257 93.738V96.367L242.869 74.0612V71.5645L281.257 93.738Z" fill="#F2F1F0"/>
<path fill-rule="evenodd" clip-rule="evenodd" d="M271.122 95.3856V101.497L250.892 89.4963V83.5173L271.122 95.3856Z" fill="#B2B9BC"/>
<path fill-rule="evenodd" clip-rule="evenodd" d="M342.597 117.697V120.325L304.209 98.0196V95.5229L342.597 117.697Z" fill="#FFFFFE"/>
<path fill-rule="evenodd" clip-rule="evenodd" d="M281.257 80.6809V83.3098L242.869 61.004V58.5073L281.257 80.6809Z" fill="#F2F1F0"/>
<path fill-rule="evenodd" clip-rule="evenodd" d="M342.597 110.967V113.595L304.209 91.2897V88.793L342.597 110.967Z" fill="#FFFFFE"/>
<path fill-rule="evenodd" clip-rule="evenodd" d="M342.597 124.024V126.653L304.209 104.347V101.85L342.597 124.024Z" fill="#FFFFFE"/>
<path fill-rule="evenodd" clip-rule="evenodd" d="M342.597 129.79V132.419L304.209 110.113V107.616L342.597 129.79Z" fill="#FFFFFE"/>
<path fill-rule="evenodd" clip-rule="evenodd" d="M341.649 84.9866C341.649 93.7808 334.388 99.0283 325.432 96.7076C316.474 94.3869 309.213 85.3764 309.213 76.5822C309.213 67.788 316.474 62.5405 325.432 64.8612C334.388 67.1819 341.649 76.1924 341.649 84.9866Z" fill="#FFFFFE"/>
<path fill-rule="evenodd" clip-rule="evenodd" d="M341.649 84.9866C341.649 93.7808 334.388 99.0283 325.432 96.7076C316.474 94.3869 309.213 85.3764 309.213 76.5822C309.213 67.788 316.474 62.5405 325.432 64.8612C334.388 67.1819 341.649 76.1924 341.649 84.9866Z" stroke="#A5BFD1" stroke-width="0.655"/>
<path fill-rule="evenodd" clip-rule="evenodd" d="M278.726 50.4949C278.726 59.2891 271.464 64.5366 262.508 62.2159C253.551 59.8952 246.29 50.8847 246.29 42.0905C246.29 33.2963 253.551 28.0488 262.508 30.3695C271.464 32.6902 278.726 41.7007 278.726 50.4949Z" fill="#FFFFFE"/>
<path fill-rule="evenodd" clip-rule="evenodd" d="M278.726 50.4949C278.726 59.2891 271.464 64.5366 262.508 62.2159C253.551 59.8952 246.29 50.8847 246.29 42.0905C246.29 33.2963 253.551 28.0488 262.508 30.3695C271.464 32.6902 278.726 41.7007 278.726 50.4949Z" stroke="#D9E1E1" stroke-width="0.655"/>
<path fill-rule="evenodd" clip-rule="evenodd" d="M331.476 129.965V136.076L311.247 124.076V118.097L331.476 129.965Z" fill="#E48F29"/>
<path fill-rule="evenodd" clip-rule="evenodd" d="M255.625 41.4149C255.625 41.1907 255.597 40.9722 255.54 40.7583C255.485 40.5455 255.406 40.3477 255.307 40.166C255.208 39.9843 255.09 39.8222 254.954 39.6784C254.816 39.5347 254.666 39.4174 254.502 39.3277C254.33 39.2334 254.172 39.1828 254.03 39.177C253.888 39.1701 253.767 39.2035 253.668 39.2759C253.566 39.3472 253.489 39.4576 253.434 39.6048C253.379 39.752 253.352 39.9314 253.352 40.143C253.352 40.3707 253.378 40.5869 253.429 40.7951C253.479 41.0021 253.552 41.193 253.647 41.3689C253.743 41.546 253.859 41.7024 253.995 41.8416C254.133 41.9796 254.285 42.0958 254.455 42.1889C254.643 42.2924 254.809 42.3442 254.954 42.3442C255.098 42.3453 255.22 42.3085 255.32 42.2315C255.418 42.1556 255.494 42.0463 255.546 41.9049C255.598 41.7622 255.625 41.5989 255.625 41.4149ZM254.224 42.7501C254.014 42.6351 253.813 42.4799 253.624 42.2855C253.434 42.0912 253.268 41.8669 253.125 41.6127C252.982 41.3586 252.867 41.0791 252.783 40.7767C252.698 40.4742 252.656 40.1568 252.656 39.8256C252.656 39.5105 252.701 39.2414 252.794 39.0171C252.884 38.7929 253.012 38.6227 253.176 38.5088C253.341 38.395 253.536 38.3421 253.762 38.349C253.99 38.357 254.239 38.4352 254.51 38.5836C254.778 38.7308 255.022 38.9217 255.241 39.1552C255.461 39.3898 255.648 39.652 255.804 39.9418C255.961 40.2316 256.082 40.5432 256.166 40.8733C256.252 41.2045 256.293 41.5426 256.293 41.8876C256.293 42.0946 256.278 42.2832 256.248 42.4534C256.218 42.6225 256.174 42.78 256.118 42.9261C256.06 43.0721 255.992 43.2101 255.912 43.3424C255.832 43.4746 255.741 43.6069 255.64 43.738L254.275 45.5205C254.241 45.5654 254.193 45.5907 254.131 45.5941C254.068 45.5987 253.997 45.578 253.916 45.5343L253.274 45.1813L254.979 43.2504C255.037 43.1848 255.09 43.1216 255.14 43.0618C255.189 43.002 255.235 42.941 255.281 42.8778C255.137 42.9468 254.976 42.9709 254.796 42.9479C254.615 42.9272 254.425 42.8605 254.224 42.7501Z" fill="#5E666A"/>
<path fill-rule="evenodd" clip-rule="evenodd" d="M256.954 46.6492C256.954 46.5618 256.966 46.4871 256.991 46.4238C257.016 46.3606 257.05 46.3123 257.093 46.2789C257.137 46.2456 257.188 46.2283 257.248 46.2283C257.308 46.2272 257.371 46.2456 257.439 46.2824C257.507 46.3203 257.571 46.3721 257.631 46.4388C257.691 46.5043 257.743 46.5779 257.788 46.6596C257.832 46.7412 257.867 46.8263 257.891 46.9172C257.916 47.008 257.929 47.0966 257.929 47.184C257.929 47.2748 257.916 47.3496 257.891 47.4117C257.867 47.4738 257.832 47.5209 257.788 47.5531C257.743 47.5865 257.691 47.6014 257.631 47.6014C257.571 47.5991 257.507 47.5807 257.439 47.5428C257.371 47.506 257.308 47.4554 257.248 47.391C257.188 47.3254 257.137 47.253 257.093 47.1725C257.05 47.092 257.016 47.0069 256.991 46.9183C256.966 46.8286 256.954 46.7401 256.954 46.6492Z" fill="#5E666A"/>
<path fill-rule="evenodd" clip-rule="evenodd" d="M261.812 44.8114C261.812 44.5872 261.785 44.3687 261.728 44.1548C261.673 43.942 261.594 43.7442 261.495 43.5625C261.396 43.3808 261.278 43.2186 261.142 43.0749C261.004 42.9311 260.854 42.8138 260.69 42.7241C260.518 42.6298 260.36 42.5792 260.218 42.5735C260.076 42.5666 259.955 42.5999 259.855 42.6724C259.754 42.7437 259.676 42.8541 259.622 43.0013C259.567 43.1485 259.54 43.3279 259.54 43.5395C259.54 43.7672 259.565 43.9834 259.616 44.1916C259.667 44.3986 259.74 44.5895 259.835 44.7654C259.93 44.9425 260.047 45.0989 260.183 45.2381C260.321 45.3761 260.473 45.4922 260.643 45.5854C260.831 45.6889 260.997 45.7406 261.142 45.7406C261.286 45.7418 261.408 45.705 261.508 45.6279C261.606 45.552 261.682 45.4428 261.734 45.3013C261.786 45.1587 261.812 44.9954 261.812 44.8114ZM260.412 46.1466C260.201 46.0316 260.001 45.8763 259.811 45.682C259.622 45.4876 259.456 45.2634 259.313 45.0092C259.169 44.7551 259.055 44.4756 258.971 44.1732C258.885 43.8707 258.844 43.5533 258.844 43.2221C258.844 42.907 258.889 42.6379 258.981 42.4136C259.071 42.1894 259.199 42.0192 259.363 41.9053C259.529 41.7915 259.724 41.7386 259.95 41.7455C260.177 41.7535 260.427 41.8317 260.698 41.9801C260.966 42.1273 261.21 42.3182 261.429 42.5516C261.648 42.7862 261.835 43.0484 261.991 43.3382C262.148 43.6281 262.27 43.9397 262.354 44.2698C262.439 44.601 262.481 44.9391 262.481 45.2841C262.481 45.4911 262.466 45.6797 262.436 45.8499C262.406 46.0189 262.362 46.1765 262.305 46.3226C262.248 46.4686 262.179 46.6066 262.1 46.7389C262.02 46.8711 261.929 47.0034 261.827 47.1345L260.463 48.917C260.429 48.9619 260.381 48.9872 260.318 48.9906C260.256 48.9952 260.184 48.9745 260.104 48.9308L259.462 48.5777L261.167 46.6469C261.225 46.5813 261.278 46.5181 261.327 46.4583C261.377 46.3985 261.423 46.3375 261.468 46.2743C261.325 46.3433 261.163 46.3674 260.983 46.3444C260.803 46.3237 260.613 46.257 260.412 46.1466Z" fill="#5E666A"/>
<path fill-rule="evenodd" clip-rule="evenodd" d="M266.377 48.7782C266.377 48.2285 266.341 47.7478 266.269 47.3349C266.198 46.9232 266.101 46.569 265.98 46.2758C265.858 45.9814 265.717 45.741 265.559 45.5547C265.4 45.3684 265.234 45.2281 265.062 45.1338C264.891 45.0395 264.724 44.9981 264.565 45.0096C264.407 45.0211 264.267 45.1073 264.147 45.2695C264.027 45.4317 263.931 45.6789 263.86 46.0124C263.788 46.3471 263.752 46.7887 263.752 47.3372C263.752 47.887 263.788 48.3665 263.86 48.7771C263.931 49.1876 264.027 49.5407 264.147 49.8339C264.267 50.1283 264.407 50.3675 264.565 50.5539C264.724 50.7402 264.891 50.8805 265.062 50.9748C265.234 51.0691 265.4 51.1105 265.559 51.099C265.717 51.0875 265.858 51.0012 265.98 50.8402C266.101 50.6792 266.198 50.4319 266.269 50.0996C266.341 49.7672 266.377 49.3268 266.377 48.7782ZM267.099 49.175C267.099 49.804 267.048 50.3204 266.941 50.7229C266.836 51.1254 266.692 51.4267 266.509 51.628C266.327 51.8292 266.111 51.935 265.862 51.9465C265.612 51.9557 265.347 51.8833 265.062 51.728C264.775 51.5705 264.509 51.3508 264.263 51.0679C264.017 50.785 263.802 50.4434 263.618 50.0421C263.436 49.6396 263.293 49.1807 263.189 48.6632C263.084 48.1457 263.032 47.5718 263.032 46.9428C263.032 46.3126 263.084 45.7951 263.189 45.3914C263.293 44.9866 263.436 44.683 263.618 44.4794C263.802 44.277 264.017 44.1701 264.263 44.1574C264.509 44.1459 264.775 44.2184 265.062 44.3759C265.347 44.5323 265.612 44.752 265.862 45.036C266.111 45.3201 266.327 45.6628 266.509 46.0665C266.692 46.4701 266.836 46.9313 266.941 47.4511C267.048 47.9709 267.099 48.5459 267.099 49.175Z" fill="#5E666A"/>
<path fill-rule="evenodd" clip-rule="evenodd" d="M270.816 52.7663C270.816 52.5984 270.791 52.442 270.743 52.2948C270.696 52.1476 270.629 52.0073 270.545 51.8751C270.462 51.7417 270.364 51.6129 270.252 51.4875C270.14 51.3633 270.02 51.2379 269.893 51.1149L269.759 53.5426C269.929 53.615 270.08 53.6507 270.212 53.6472C270.343 53.6449 270.454 53.6093 270.544 53.5414C270.633 53.4736 270.701 53.3735 270.748 53.2436C270.793 53.1125 270.816 52.9538 270.816 52.7663ZM268.645 48.2398C268.645 48.4008 268.667 48.5526 268.712 48.6964C268.756 48.839 268.817 48.977 268.896 49.1104C268.973 49.2438 269.065 49.3726 269.169 49.4968C269.273 49.621 269.386 49.7441 269.51 49.8648L269.626 47.6648C269.457 47.5912 269.311 47.5544 269.187 47.5533C269.063 47.5521 268.961 47.5797 268.882 47.6372C268.802 47.6936 268.743 47.7741 268.704 47.8776C268.665 47.9822 268.645 48.103 268.645 48.2398ZM269.278 54.0268C268.964 53.8163 268.675 53.5598 268.416 53.2539C268.157 52.9492 267.933 52.6203 267.746 52.2661L267.953 51.9682C267.971 51.9418 267.997 51.9257 268.031 51.9211C268.065 51.9165 268.1 51.9234 268.136 51.9429C268.186 51.9705 268.242 52.0338 268.304 52.1315C268.367 52.2293 268.444 52.3443 268.535 52.4765C268.627 52.6088 268.735 52.7479 268.862 52.894C268.989 53.0412 269.14 53.1757 269.318 53.2999L269.462 50.7124C269.28 50.5422 269.101 50.3639 268.924 50.1788C268.749 49.9925 268.591 49.7901 268.451 49.5716C268.311 49.3519 268.199 49.1116 268.115 48.8482C268.03 48.5848 267.988 48.2904 267.988 47.965C267.988 47.72 268.025 47.5015 268.099 47.3083C268.174 47.1163 268.282 46.9679 268.425 46.8644C268.565 46.7621 268.742 46.7103 268.95 46.708C269.159 46.7069 269.399 46.7805 269.67 46.93L269.708 46.2181C269.714 46.1572 269.734 46.1112 269.767 46.079C269.802 46.0479 269.847 46.0479 269.905 46.079L270.162 46.2204L270.108 47.1853C270.382 47.3785 270.618 47.5993 270.816 47.8454C271.013 48.0915 271.191 48.3537 271.348 48.6343L271.179 48.8724C271.127 48.9448 271.067 48.9621 270.999 48.9253C270.962 48.9046 270.918 48.8597 270.864 48.7884C270.811 48.7171 270.746 48.6331 270.671 48.5365C270.595 48.4399 270.509 48.3364 270.409 48.226C270.31 48.1168 270.197 48.0156 270.069 47.9213L269.939 50.2823C270.128 50.4582 270.312 50.6411 270.495 50.8285C270.677 51.016 270.842 51.2184 270.988 51.4369C271.134 51.6543 271.252 51.8912 271.341 52.1476C271.432 52.4041 271.476 52.6858 271.476 52.9952C271.476 53.2976 271.438 53.5598 271.359 53.7829C271.281 54.0049 271.167 54.1763 271.017 54.2947C270.868 54.4155 270.683 54.4776 270.466 54.4845C270.248 54.4902 269.999 54.4178 269.721 54.2648L269.674 55.1377C269.668 55.1986 269.648 55.2435 269.613 55.2722C269.578 55.301 269.533 55.301 269.479 55.2711L269.22 55.1296L269.278 54.0268Z" fill="#5E666A"/>
<path fill-rule="evenodd" clip-rule="evenodd" d="M324.036 85.3256C324.036 84.9116 324.158 84.6402 324.403 84.5114C324.647 84.3826 324.96 84.4286 325.341 84.6482C325.723 84.8667 326.035 85.1807 326.279 85.5901C326.524 86.0007 326.645 86.4124 326.645 86.8264C326.645 87.2346 326.526 87.5026 326.287 87.6314C326.048 87.7602 325.733 87.7119 325.341 87.4853C324.949 87.2611 324.633 86.9471 324.394 86.5435C324.156 86.1398 324.036 85.7338 324.036 85.3256ZM324.269 82.6069C324.269 81.7387 324.36 81.0981 324.544 80.6876C324.726 80.2781 325.06 79.9619 325.546 79.7422C326.032 79.5214 326.356 79.2995 326.517 79.0787C326.678 78.8579 326.759 78.5727 326.759 78.2254C326.759 77.1754 326.339 76.4083 325.502 75.9265C325.105 75.6976 324.786 75.6562 324.547 75.8023C324.308 75.9483 324.184 76.2657 324.173 76.7579L321.838 75.4147C321.848 74.2348 322.179 73.4965 322.832 73.2009C323.484 72.9065 324.374 73.0825 325.502 73.7299C326.641 74.3854 327.524 75.2112 328.152 76.2094C328.78 77.2076 329.094 78.2863 329.094 79.4478C329.094 79.9757 328.993 80.4161 328.788 80.7669C328.584 81.1188 328.227 81.4339 327.717 81.7111L327.064 82.0538C326.657 82.2723 326.424 82.669 326.364 83.2429L326.331 83.7938L324.269 82.6069Z" fill="#E48F29"/>
<path fill-rule="evenodd" clip-rule="evenodd" d="M200.627 88.053C200.627 87.5845 200.765 87.2774 201.042 87.1317C201.317 86.9859 201.67 87.038 202.1 87.2865C202.532 87.5338 202.884 87.8891 203.16 88.3523C203.437 88.8169 203.573 89.2828 203.573 89.7513C203.573 90.2133 203.439 90.5165 203.169 90.6622C202.899 90.808 202.544 90.7533 202.1 90.497C201.658 90.2432 201.301 89.8879 201.031 89.4312C200.763 88.9744 200.627 88.515 200.627 88.053ZM200.89 84.9766C200.89 83.9941 200.993 83.2693 201.201 82.8047C201.407 82.3414 201.783 81.9835 202.332 81.735C202.881 81.4851 203.246 81.2339 203.429 80.9841C203.61 80.7342 203.701 80.4115 203.701 80.0185C203.701 78.8303 203.228 77.9623 202.283 77.4171C201.834 77.1581 201.474 77.1113 201.205 77.2765C200.935 77.4418 200.794 77.801 200.782 78.358L198.145 76.838C198.156 75.5028 198.531 74.6673 199.267 74.3329C200.004 73.9997 201.009 74.1988 202.283 74.9315C203.568 75.6733 204.566 76.6076 205.275 77.7372C205.984 78.8668 206.339 80.0874 206.339 81.4018C206.339 81.9991 206.224 82.4976 205.993 82.8945C205.762 83.2927 205.36 83.6493 204.783 83.9629L204.047 84.3507C203.586 84.5979 203.323 85.0469 203.255 85.6963L203.219 86.3196L200.89 84.9766Z" fill="#E48F29"/>
<path fill-rule="evenodd" clip-rule="evenodd" d="M209.005 94.5222L204.632 104.383L202.241 105.77L206.614 95.9095L209.005 94.5222Z" fill="#F8F7F6"/>
<path fill-rule="evenodd" clip-rule="evenodd" d="M191.617 56.3266C192.498 55.8148 193.719 55.888 195.066 56.6633L219.468 70.7266C222.144 72.2688 224.308 76.0095 224.299 79.0785L224.257 96.6207C224.251 98.1458 223.713 99.2187 222.843 99.7237L219.719 101.536C220.589 101.031 221.129 99.9584 221.132 98.4332L221.175 80.8911C221.184 77.8203 219.022 74.0813 216.344 72.5391L191.942 58.4758C190.595 57.6988 189.375 57.6274 188.493 58.1375L191.617 56.3266Z" fill="#00226D"/>
<path fill-rule="evenodd" clip-rule="evenodd" d="M191.942 58.4754C189.266 56.9333 187.087 58.1711 187.079 61.2418L187.036 78.7823C187.028 81.853 189.191 85.5937 191.867 87.1359L198.401 90.9021L204.023 110.316L209.736 97.4347L216.271 101.199C218.947 102.741 221.124 101.504 221.134 98.4328L221.176 80.8907C221.185 77.8216 219.022 74.0809 216.346 72.537L191.942 58.4754Z" fill="url(#paint1_linear_0_74)"/>
<path fill-rule="evenodd" clip-rule="evenodd" d="M201.914 87.1693C201.914 86.5571 202.094 86.1559 202.456 85.9654C202.815 85.775 203.277 85.843 203.839 86.1678C204.403 86.4908 204.862 86.955 205.224 87.5603C205.585 88.1673 205.764 88.7761 205.764 89.3882C205.764 89.9918 205.588 90.388 205.236 90.5784C204.883 90.7688 204.418 90.6974 203.839 90.3624C203.261 90.0309 202.794 89.5667 202.442 88.9699C202.091 88.3731 201.914 87.7729 201.914 87.1693ZM202.258 83.1497C202.258 81.866 202.392 80.9189 202.663 80.3119C202.932 79.7066 203.425 79.239 204.142 78.9142C204.859 78.5878 205.336 78.2596 205.575 77.9332C205.811 77.6067 205.931 77.185 205.931 76.6715C205.931 75.1191 205.312 73.985 204.077 73.2726C203.491 72.9342 203.021 72.873 202.668 73.089C202.316 73.3049 202.132 73.7742 202.117 74.5019L198.67 72.516C198.686 70.7714 199.175 69.6798 200.137 69.2429C201.1 68.8076 202.413 69.0677 204.077 70.025C205.757 70.9942 207.06 72.215 207.987 73.6909C208.913 75.1667 209.377 76.7616 209.377 78.479C209.377 79.2594 209.227 79.9106 208.925 80.4292C208.624 80.9495 208.097 81.4154 207.344 81.8252L206.382 82.3319C205.781 82.6549 205.437 83.2415 205.348 84.09L205.3 84.9044L202.258 83.1497Z" fill="#00226D"/>
<path opacity="0.514951" fill-rule="evenodd" clip-rule="evenodd" d="M205.5 225C194 222 184.104 225.497 182 227L163.5 238.5L181 249.5C181 249.5 192.006 239.53 197.5 235C199.154 233.636 193.527 233.623 196.5 231.5C200 229 205.5 225 205.5 225Z" fill="url(#paint2_linear_0_74)"/>
<path fill-rule="evenodd" clip-rule="evenodd" d="M215.584 127.461C214.602 125.145 211.986 121.642 210.114 121.281C207.958 120.866 207.716 120.511 207.131 120.827C205.633 121.635 207.055 122.223 206.999 122.633C206.935 123.093 206.578 122.904 205.875 123.829C205.303 124.581 206.048 124.622 206.034 124.964C206.022 125.244 205.668 125.289 205.737 125.604C205.762 125.719 205.882 125.79 205.895 125.916C205.923 126.228 205.605 126.143 205.81 127.006C206.001 127.826 207.735 126.639 209.129 127.904C209.479 128.219 209.764 128.595 210.084 128.938C210.473 129.356 210.914 129.726 211.394 130.037C211.799 130.301 212.647 130.78 212.832 130.935L215.584 127.461Z" fill="#F1C2A9"/>
<path fill-rule="evenodd" clip-rule="evenodd" d="M197.188 221.652C199.739 220.804 202.355 220.637 204.973 220.159C205.504 220.063 206.06 219.975 206.575 220.136C207.877 220.543 208.378 222.801 208.083 223.929C207.873 224.727 207.253 225.362 206.555 225.804C205.509 226.468 204.08 226.949 202.841 227.008C201.514 227.069 200.272 227.354 199.134 228.069C197.662 228.995 196.574 230.019 194.754 229.965C192.929 229.909 191.537 228.657 191.659 226.779C191.702 226.106 191.889 225.452 192.074 224.805C192.496 223.337 191.945 223.395 197.188 221.652Z" fill="#1E2425"/>
<path fill-rule="evenodd" clip-rule="evenodd" d="M185.386 223.338C185.477 223.227 185.564 223.113 185.649 222.994C186.728 221.468 189.762 219.893 190.55 219.898C191.801 219.906 192.578 221.411 192.379 222.644C192.286 223.216 192.056 223.756 191.929 224.322C191.07 228.209 194.027 228.385 196.878 230.413C197.393 230.779 197.916 231.172 198.222 231.725C198.947 233.025 197.856 235.005 196.69 235.662C195.971 236.069 195.083 236.066 194.278 235.874C193.072 235.586 191.732 234.899 190.827 234.052C189.859 233.144 188.79 232.451 187.482 232.134C185.238 231.591 182.461 231.168 182.027 228.355C181.911 227.604 182.18 226.833 182.606 226.204C183.36 225.086 184.533 224.362 185.386 223.338Z" fill="#363D3F"/>
<path fill-rule="evenodd" clip-rule="evenodd" d="M194.693 166.152C195.698 167.166 199.494 165.3 199.546 164.801C204.058 161.31 203.522 175.254 202.226 180.793C201.53 183.781 201.713 186.89 201.298 189.924C200.835 193.305 200.122 196.652 199.162 199.927C198.956 200.635 198.723 201.367 198.217 201.901C197.172 203.01 195.402 202.903 193.898 202.658C192.595 202.444 191.138 202.077 190.496 200.925C190.1 200.216 190.112 199.36 190.117 198.549C190.131 196.41 190.144 194.2 189.718 192.098C187.58 181.569 186.366 178.2 187.858 168.652C188.151 166.781 187.526 163.275 190.189 162.896C192.597 162.555 194.024 165.475 194.693 166.152Z" fill="#3B5165"/>
<path fill-rule="evenodd" clip-rule="evenodd" d="M200.068 193.941L200.815 190.81C200.517 191.842 200.27 192.888 200.068 193.941Z" fill="#C84D33"/>
<path fill-rule="evenodd" clip-rule="evenodd" d="M198.624 198.745C197.851 197.678 195.937 197.734 195.297 198.017C194.793 198.24 191.131 196.142 190.053 195.333C190.135 195.394 189.99 196.281 189.983 196.414C189.958 196.784 189.936 197.156 189.917 197.527C189.717 201.113 189.672 204.801 189.895 208.428C189.975 209.736 190.196 211.052 190.088 212.349C190.036 212.962 190.112 212.941 190.574 216.627C191.402 223.244 191.382 224.66 192.278 225.53C193.761 226.967 196.763 227.048 198.503 224.985C199.793 223.455 198.877 217.754 198.861 207.554C198.857 203.934 199.05 200.289 199.736 196.744L198.624 198.745Z" fill="#3B5165"/>
<path fill-rule="evenodd" clip-rule="evenodd" d="M201.662 167.127C202.093 166.905 204.312 165.794 204.294 165.192C204.282 164.789 205.373 164.453 205.655 164.458C206.163 164.467 206.676 164.794 207.086 165.087C209.588 166.871 210.015 170.226 210.185 173.287C210.677 182.131 209.97 191.455 207.796 200.779C207.506 202.018 207.249 202.404 206.208 203.059C203.972 204.465 199.945 204.278 198.346 201.753C196.624 199.034 197.341 194.802 196.789 191.746C195.426 184.15 189.413 182.21 191.328 170.65C191.576 169.158 192.037 165.588 193.56 164.715C193.966 164.484 196.706 163.861 198.922 166.059C200.217 167.342 200.066 167.947 201.662 167.127Z" fill="#54677E"/>
<path fill-rule="evenodd" clip-rule="evenodd" d="M191.863 226.892C190.689 227.393 188.928 226.573 187.994 225.918C187.256 225.402 185.869 224.394 185.537 223.53C185.202 222.661 185.719 221.323 186.011 220.507C187.635 215.999 191.95 208.155 194.376 204.005C196.241 200.815 197.728 197.512 199.413 194.228C199.599 193.867 200.02 193.612 200.406 193.572C200.907 193.521 207.063 200.741 207.382 201.98C192.096 226.163 193.718 226.099 191.863 226.892Z" fill="#54677E"/>
<path fill-rule="evenodd" clip-rule="evenodd" d="M186.197 147.051C184.866 139.481 181.529 129.567 187.47 126.213C191.975 123.672 195.735 126.739 199.96 128.258C202.735 129.256 205.396 130.564 207.881 132.15C208.747 132.702 209.632 133.079 210.215 133.939C210.832 134.85 211.161 135.834 211.225 136.935C211.296 138.186 211.066 139.43 210.856 140.664C209.991 145.794 209.439 150.992 209.442 156.198C209.444 160.561 209.932 164.892 210.068 169.25C210.098 170.221 210.148 171.231 209.948 172.19C209.742 173.173 209.19 173.449 208.292 173.864C206.559 174.668 204.618 174.9 202.737 175.088C197.936 175.57 192.793 175.779 188.612 173.376C188.008 173.03 187.179 172.513 186.888 171.84C186.586 171.143 186.848 170.256 186.824 169.489C186.6 161.764 187.584 154.904 186.197 147.051Z" fill="#B26CC9"/>
<path fill-rule="evenodd" clip-rule="evenodd" d="M202.767 124.537C202.934 123.382 203.809 123.65 203.367 122.604C202.992 121.717 202.422 120.899 201.659 120.31C200.895 119.72 199.93 119.372 198.967 119.424C198.635 119.443 198.413 119.632 198.083 119.633C197.174 119.637 196.259 119.463 195.352 119.595C194.448 119.725 193.612 119.791 193.612 120.808C193.614 122.166 193.676 123.471 193.241 124.806C193.009 125.518 192.657 126.205 192.594 126.952C192.472 128.421 193.546 129.79 194.876 130.432C196.509 131.22 198.357 131.147 200.095 130.896C200.967 130.77 202.195 130.596 202.707 129.767C203.092 129.141 202.928 128.322 202.844 127.636C202.72 126.601 202.614 125.578 202.767 124.537Z" fill="#F1C2A9"/>
<path fill-rule="evenodd" clip-rule="evenodd" d="M206.463 110.679C207.012 111.347 207.441 112.098 207.573 112.977C207.866 114.938 207.076 116.954 207.502 118.901C207.916 120.785 207.105 125.068 203.38 126.165C201.496 126.72 197.776 126.07 196.581 125.498C194.975 124.73 193.915 123.177 192.966 121.673C185.185 109.341 201.186 104.27 206.463 110.679Z" fill="#F1C2A9"/>
<path fill-rule="evenodd" clip-rule="evenodd" d="M189.42 116.146C189.469 116.511 189.522 116.876 189.591 117.238C189.644 117.511 189.709 117.782 189.795 118.049C189.867 118.279 189.954 118.502 190.055 118.719C190.424 119.545 190.949 120.3 191.473 121.043C192.235 122.129 193.044 123.144 194.231 123.783C195.894 124.678 197.806 125.109 199.693 125.015C200.669 124.965 201.65 124.775 202.525 124.342C203.401 123.909 204.168 123.22 204.588 122.338C204.934 121.611 205.037 120.778 205.434 120.075C206.069 118.951 207.393 118.264 207.786 117.035C207.968 116.468 207.923 115.856 207.911 115.26C207.886 113.918 208.247 112.644 208.302 111.326C208.376 109.518 206.885 107.733 205.636 106.583C204.964 105.966 204.22 105.407 203.38 105.046C202.642 104.731 201.846 104.573 201.053 104.461C198.703 104.122 196.184 104.178 194.108 105.331C193.561 105.635 193.031 106.035 192.764 106.606C192.707 106.731 192.66 106.868 192.57 106.977C192.45 107.12 192.266 107.193 192.095 107.274C191.531 107.536 191.066 107.868 190.691 108.255C188.786 110.212 189.06 113.545 189.42 116.146Z" fill="#CFB186"/>
<path fill-rule="evenodd" clip-rule="evenodd" d="M203.69 118.069C202.2 117.942 201.789 119.786 202.789 121.234C203.083 121.655 203.604 122.035 203.99 122.375C206.628 124.694 207.341 122.245 206.505 121.456C204.561 119.622 205.568 118.226 203.69 118.069Z" fill="#F1C2A9"/>
<path fill-rule="evenodd" clip-rule="evenodd" d="M203.183 130.376C202.464 131.173 197.911 132.034 194.871 130.91C192.997 130.217 191.79 128.366 192.126 126.492C192.277 125.65 193.213 124.865 193.213 124.865C193.213 124.865 193.139 125.336 193.086 125.7C192.89 127.011 197.929 131.127 202.855 127.72C203.161 128.157 203.906 129.576 203.183 130.376Z" fill="#B26CC9"/>
<path fill-rule="evenodd" clip-rule="evenodd" d="M215.864 126.941C216.31 127.169 226.301 140.974 224.858 145.365C224.572 146.233 223.914 146.006 223.034 146.365C221.463 147.006 219.622 147.086 218.289 146.004C216.953 144.918 216.008 143.724 215.42 142.235C214.06 138.794 212.237 134.733 211.338 131.164C210.36 127.258 215.026 126.514 215.864 126.941Z" fill="#804D90"/>
<path fill-rule="evenodd" clip-rule="evenodd" d="M206.042 131.106C204.585 130.306 199.857 137.615 201.767 140.122C203.106 141.881 223.513 154.494 224.895 145.14C225.737 139.433 205.807 130.977 206.042 131.106Z" fill="#B26CC9"/>
<path opacity="0.623651" fill-rule="evenodd" clip-rule="evenodd" d="M283 246C271.5 243 271.104 241.497 269 243L253 254.5L274.5 260C274.5 260 276 257.5 280 252C281.76 249.58 283 246 283 246Z" fill="url(#paint3_linear_0_74)"/>
<path fill-rule="evenodd" clip-rule="evenodd" d="M264.673 164.593C266.049 162.322 270.135 155.465 272.021 151.675C272.53 150.655 271.929 149.938 272.064 148.784C272.199 147.619 271.908 146.567 271.432 145.414C271.217 144.892 270.902 144.318 270.34 144.112C269.828 143.925 269.299 144.117 268.858 144.34C266.204 145.685 264.543 148.38 263.692 151.06C262.9 153.552 260.98 157.468 260.209 159.978C260.063 160.455 259.871 160.956 259.833 161.465C259.649 163.886 261.18 165.641 262.984 165.198C263.868 164.981 263.926 165.828 264.673 164.593Z" fill="#91B5D2"/>
<path fill-rule="evenodd" clip-rule="evenodd" d="M253.961 171.942C255.547 171.877 257.296 170.653 258.518 170.005C260.534 168.931 262.56 167.85 264.487 166.62C265.263 166.125 265.073 165.231 265.612 164.421C266.156 163.604 266.331 162.628 266.402 161.472C266.434 160.947 266.41 160.327 266.058 159.849C265.735 159.413 265.257 159.258 264.836 159.178C262.295 158.7 260.003 159.825 258.337 161.399C257.001 162.662 255.451 163.692 254.006 164.823C253.33 165.351 252.656 165.895 252.04 166.489C251.37 167.137 251.237 168.226 251.26 169.151C251.281 170.032 251.614 170.951 252.327 171.472C252.828 171.838 253.385 171.967 253.961 171.942Z" fill="#91B5D2"/>
<path fill-rule="evenodd" clip-rule="evenodd" d="M250.087 169.808C249.382 170.409 248.639 170.939 248.306 171.861C247.992 172.73 248.077 173.79 248.709 174.466C249.341 175.143 250.564 175.251 251.18 174.56C251.557 174.135 251.643 173.537 251.845 173.006C252.116 172.297 252.62 171.677 253.264 171.269C253.613 171.045 254.001 170.882 254.336 170.636C254.67 170.39 254.955 170.028 254.968 169.614C254.995 168.675 253.551 167.795 252.73 167.685C252.396 167.643 252.041 167.686 251.766 167.88C251.501 168.066 251.341 168.363 251.169 168.636C250.874 169.106 250.487 169.469 250.087 169.808Z" fill="#EBBEBC"/>
<path fill-rule="evenodd" clip-rule="evenodd" d="M283.561 145.869C281.663 145.009 280.971 144.539 278.976 144.089C278.653 144.017 277.565 144.425 277.241 144.356C274.816 143.845 272.234 143.959 269.985 144.945C269.961 144.956 269.935 144.969 269.91 144.98V159.806H284.176L283.561 145.869Z" fill="#F8F7F6"/>
<path fill-rule="evenodd" clip-rule="evenodd" d="M282.808 146.508C282.808 146.508 273.786 151.835 273.918 146.91C274.102 140.043 274.492 139.255 277.512 138.191C278.34 137.899 279.206 137.675 280.08 137.658C283.269 137.594 282.035 139.329 281.915 140.538C281.559 144.127 282.752 144.623 282.808 146.508Z" fill="#E6AF91"/>
<path fill-rule="evenodd" clip-rule="evenodd" d="M283.561 145.869C281.663 145.009 280.971 144.539 278.976 144.089C278.653 144.017 277.565 144.425 277.241 144.356C274.816 143.845 272.234 143.959 269.985 144.945C269.961 144.956 269.935 144.969 269.91 144.98V159.806H284.176L283.561 145.869Z" fill="#DAAAA8"/>
<path fill-rule="evenodd" clip-rule="evenodd" d="M281.515 148.116C282.111 147.644 283.56 145.87 283.56 145.87C282.999 145.615 282.549 145.398 282.133 145.201C281.059 146.949 277.667 149.431 274.367 149.015C272.827 148.821 272.32 147.166 270.971 144.617C270.64 144.722 270.303 144.806 269.986 144.945C269.96 144.956 269.936 144.969 269.911 144.981C269.911 144.981 271.613 148.318 272.571 149.272C275.019 151.712 279.749 149.512 281.515 148.116Z" fill="#D5D6E0"/>
<path fill-rule="evenodd" clip-rule="evenodd" d="M272.95 143.836C272.91 143.837 272.87 143.839 272.829 143.841C273.183 143.732 273.387 143.824 272.95 143.836Z" fill="#D5D6E0"/>
<path fill-rule="evenodd" clip-rule="evenodd" d="M291.383 152.717C291.44 153.328 290.6 154.153 290.396 154.864C290.17 155.701 289.886 156.514 289.568 157.316C287.843 161.688 285.144 165.733 284.361 170.364C284.055 172.184 284.055 174.025 284.158 175.855C284.214 176.725 284.361 177.618 284.316 178.477C284.304 178.714 284.361 179.144 284.316 179.347C284.248 179.662 284.088 179.775 283.794 180.002C282.207 181.233 280.323 181.945 278.373 182.283C276.274 182.634 274.005 182.488 271.986 182.149C271.386 182.046 270.818 181.934 270.274 181.809C267.87 181.245 266.066 180.52 265.759 180.295C265.317 179.957 265.51 180.058 265.884 176.861C267.427 163.733 261.609 163.495 263.877 156.626C264.262 155.452 265.056 154.345 265.545 153.169C267.348 148.865 266.213 144.075 272.827 143.837C272.418 143.962 271.806 144.357 271.748 145.453C271.613 148.221 273.314 148.75 273.688 148.875C276.728 149.903 282.183 149.893 283.556 145.871C286.415 147.588 291.076 149.294 291.383 152.717Z" fill="#91B5D2"/>
<path fill-rule="evenodd" clip-rule="evenodd" d="M271.383 143.933C271.342 145.108 271.777 146.727 272.424 147.713C272.887 148.421 273.785 148.796 273.785 148.796L270.202 151.733C270.202 151.733 268.95 148.885 269.418 147C269.625 146.169 270.053 143.941 271.383 143.933Z" fill="#D6D9DC"/>
<path fill-rule="evenodd" clip-rule="evenodd" d="M282.571 144.933C282.658 144.923 282.725 144.95 282.772 145.013C282.787 145.409 282.172 144.6 281.888 144.787C280.947 145.401 280.365 147.226 278.745 148.188C276.407 149.58 273.989 148.881 273.785 148.796C273.697 149.889 274.511 153.42 274.66 153.933C276.466 153.706 279.807 151.525 281.362 150.668C282.275 150.164 283.107 149.384 283.587 148.463C283.869 147.923 284.243 147.317 284.141 146.682C284.102 146.439 283.644 144.834 283.243 145.156L282.571 144.933Z" fill="#D6D9DC"/>
<path fill-rule="evenodd" clip-rule="evenodd" d="M281.464 241.597L282.225 246.632C282.564 246.811 282.781 246.727 282.994 246.54L282.984 240.48L281.464 241.597Z" fill="#21272D"/>
<path fill-rule="evenodd" clip-rule="evenodd" d="M275.709 251.774C275.786 252.006 275.9 252.225 276.068 252.409C276.468 252.85 276.939 253.162 277.541 253.252C277.917 253.307 278.283 253.208 278.642 253.1C279.316 252.897 279.743 252.42 280.096 251.838C280.523 251.134 280.87 250.481 281.039 249.676C281.117 249.309 281.689 246.315 281.893 245.801C282.082 245.323 283.14 241.536 282.965 240.105C282.92 239.739 282.791 239.434 282.499 239.196C282.244 238.988 281.814 238.815 281.492 238.764C281.142 238.706 280.772 238.775 280.424 238.818C280.2 238.845 280.037 238.843 279.829 238.95C279.308 239.219 278.853 238.522 278.488 238.979C278.083 239.485 277.696 240.737 277.366 241.674C277.192 242.163 276.428 245.365 276.169 246.493C275.98 247.314 275.766 248.133 275.657 248.969C275.535 249.897 275.408 250.868 275.709 251.774Z" fill="#21272D"/>
<path fill-rule="evenodd" clip-rule="evenodd" d="M274.785 243.851L274.929 238.001L273.274 237.806L273.554 243.875C273.934 244.16 274.41 244.254 274.785 243.851Z" fill="#21272D"/>
<path fill-rule="evenodd" clip-rule="evenodd" d="M263.648 245.751C263.408 246.288 263.072 246.824 263.084 247.429C263.088 247.699 263.157 247.841 263.381 248.007C263.814 248.331 264.534 248.556 265.053 248.593C265.635 248.633 266.275 248.625 266.842 248.486C267.785 248.256 268.702 247.896 269.534 247.4C270.039 247.099 270.472 246.701 270.732 246.174C270.989 245.65 271.086 245.027 271.17 244.453C271.331 243.348 271.647 242.148 272.572 241.516C272.827 241.342 273.115 241.222 273.376 241.059C275.296 239.861 275.36 237.106 273.993 235.477C273.251 234.592 272.443 234.764 271.528 235.294C270.429 235.931 269.927 236.989 269.162 237.947C269.054 238.083 268.942 238.215 268.822 238.34C267.997 239.203 268.793 234.897 268.394 236.084C267.263 239.424 263.948 245.082 263.648 245.751Z" fill="#21272D"/>
<path fill-rule="evenodd" clip-rule="evenodd" d="M266.571 216.023C267.775 221.12 267.662 220.98 268.281 225.686C268.563 227.825 269.09 235.725 267.015 240.351C266.542 241.408 270.074 238.158 271.036 237.508C271.701 237.057 272.989 235.997 272.97 235.195C272.862 230.664 274.695 225.642 275.238 221.141C275.636 217.852 275.191 211.52 274.15 207.865L266.571 216.023Z" fill="#EBBEBC"/>
<path fill-rule="evenodd" clip-rule="evenodd" d="M267.771 238.42C267.679 238.795 267.5 239.166 267.351 239.522C267.206 239.867 264.774 243.608 265.796 244.122C266.386 244.417 267.602 243.798 267.939 243.455C268.753 242.63 269.031 241.821 269.766 240.925C270.419 240.127 271.393 239.613 272.307 239.164C272.702 238.971 273.07 238.743 273.344 238.391C273.786 237.823 273.995 236.947 273.83 236.257C273.733 235.846 273.619 235.49 273.419 235.115C273.238 234.772 273.033 234.434 272.962 234.046C272.836 233.373 272.776 232.634 272.332 232.078C272.332 232.078 267.856 238.072 267.771 238.42Z" fill="#EBBEBC"/>
<path fill-rule="evenodd" clip-rule="evenodd" d="M274.271 203.398C274.853 211.272 276.986 223.206 277.643 231.072C277.824 233.224 278.106 239.733 277.268 244.433C277.065 245.574 280.095 245.558 281.086 244.954C281.772 244.534 282.489 241.371 282.457 240.57C282.256 235.709 284.6 231.782 285.356 227.312C286.133 222.717 285.356 215.546 283.446 211.293C283.056 210.427 282.49 209.488 281.554 209.317L274.271 203.398Z" fill="#EBBEBC"/>
<path fill-rule="evenodd" clip-rule="evenodd" d="M278.341 240.64C278.222 241.179 277.753 240.013 277.713 240.56C277.668 241.176 277.225 244.005 277.096 244.607C276.939 245.345 276.818 246.321 276.922 247.082C277.014 247.745 277.242 248.35 277.858 248.614C278.578 248.922 279.451 248.373 279.963 247.801C280.512 247.19 280.726 246.689 281.066 245.945C281.37 245.276 281.7 244.587 281.858 243.874C282.17 242.475 282.546 240.903 282.427 239.46C282.416 239.31 282.032 237.428 281.931 237.493C281.68 237.656 281.456 237.865 281.225 238.061C280.328 238.834 279.43 239.607 278.533 240.379C278.194 240.671 278.445 240.168 278.341 240.64Z" fill="#EBBEBC"/>
<path fill-rule="evenodd" clip-rule="evenodd" d="M287.618 205.073C287.038 208.757 286.517 213.63 286.084 217.333C285.746 220.253 277.417 220.656 275.486 220.692C273.931 220.723 266.959 219.916 266.458 218.279C265.81 216.148 265.313 204.432 265.142 201.275C264.812 195.235 264.195 189.269 264.804 183.24C264.812 183.117 264.828 182.999 264.839 182.876C264.852 182.741 264.868 182.603 264.883 182.469C264.899 182.321 264.919 182.175 264.939 182.028C264.959 181.866 264.979 181.699 265.003 181.537C265.098 180.868 265.715 178.197 265.715 178.197C265.715 178.197 266.375 180.626 269.671 181.276C279.911 183.308 284.596 178.043 284.302 177.497C285.145 178.756 285.889 179.866 286.513 180.991C286.52 181.002 286.525 181.01 286.533 181.022C286.593 181.125 286.648 181.232 286.699 181.339C286.819 181.561 286.93 181.783 287.042 182.009C287.83 183.632 288.37 185.387 288.609 187.752C289.026 191.879 288.254 201.009 287.618 205.073Z" fill="#3D4A5A"/>
<path fill-rule="evenodd" clip-rule="evenodd" d="M280.302 140.838C280.441 140.408 280.71 140.08 280.852 139.649C281.205 138.584 281.486 137.487 281.512 136.36C281.554 134.644 281.157 132.901 280.254 131.429C279.667 130.472 278.873 129.651 277.931 129.039C275.544 127.489 272.298 127.367 269.801 128.733C269.126 129.104 268.509 129.57 267.919 130.066C267.41 130.493 266.913 130.954 266.583 131.53C266.365 131.91 266.229 132.327 266.111 132.747C265.98 133.218 265.87 133.701 265.862 134.192C265.831 135.942 266.989 137.396 267.329 139.063C267.501 139.902 267.19 140.7 267.292 141.559C267.384 142.314 267.671 143.03 268.101 143.656C268.562 144.33 268.895 145.092 269.286 145.81C269.617 146.414 269.949 147.023 270.412 147.533C272.004 149.285 273.927 147.689 275.454 146.695C275.917 146.395 278.363 144.306 278.96 143.519C279.265 143.117 280.149 141.319 280.302 140.838Z" fill="#EBBEBC"/>
<path fill-rule="evenodd" clip-rule="evenodd" d="M283.048 132.128C281.969 128.102 280.372 127.628 278.526 126.688C276.735 125.777 274.601 125.749 272.648 126.18C267.569 127.302 265.9 131.016 265.654 132.066C265.424 133.049 264.922 134.707 265.826 135.525C266.299 135.953 267.05 135.783 267.678 135.784C268.57 135.787 269.459 135.791 270.349 135.794C271.179 135.796 272.066 135.794 272.838 136.139C273.605 136.481 274.166 137.179 274.837 137.679C275.846 138.432 277.573 139.731 278.769 138.82C279.28 138.431 279.761 137.857 280.477 138.101C281.14 138.325 281.095 139.128 281.083 139.702C281.08 139.81 281.035 140.631 281.353 140.561C281.672 140.492 284.346 136.968 283.048 132.128Z" fill="#3B3A3B"/>
<path fill-rule="evenodd" clip-rule="evenodd" d="M279.85 140.849C279.9 141.369 279.855 141.881 279.744 142.392C279.51 143.471 279.025 144.509 278.519 145.485C277.554 147.345 276.45 149.378 276.228 151.493C276.097 152.749 276.352 153.75 276.806 154.915C277.449 156.567 278.74 159.142 280.976 158.578C282.101 158.295 281.909 156.723 282.022 155.854C282.227 154.284 282.741 152.811 283.602 151.485C284.215 150.54 284.959 149.81 285.144 148.646C285.359 147.292 284.769 145.899 284.648 144.56C284.542 143.396 284.58 142.215 284.749 141.059C284.826 140.536 285.035 135.425 284.717 134.259C284.323 132.815 282.777 129.389 280.784 130.537C279.193 131.453 278.566 133.295 278.356 134.988C278.316 135.31 277.747 137.89 278.232 138.22C278.479 138.387 278.826 138.415 279.038 138.605C279.193 138.745 279.8 140.315 279.85 140.849Z" fill="#3B3A3B"/>
<path fill-rule="evenodd" clip-rule="evenodd" d="M279.783 136.658C281.152 136.247 281.902 137.885 281.253 139.431C281.064 139.883 280.65 140.338 280.358 140.732C278.353 143.415 277.201 141.271 277.826 140.371C279.279 138.279 278.06 137.176 279.783 136.658Z" fill="#EBBEBC"/>
<path fill-rule="evenodd" clip-rule="evenodd" d="M253.618 188.298L238.02 179.326L258.348 167.636L273.946 176.608L253.618 188.298Z" fill="#EAEAEC"/>
<path fill-rule="evenodd" clip-rule="evenodd" d="M255.026 181.623L256.018 182.193C256.627 182.543 256.935 182.46 257.375 182.207L258.585 181.511C259.133 181.197 259.062 181.019 258.588 180.745L257.597 180.175C257.075 179.876 256.775 179.861 256.245 180.164L255.036 180.861C254.57 181.128 254.492 181.313 255.026 181.623ZM255.137 179.27C256.295 178.605 257.36 178.507 258.735 179.296L260.119 180.091C261.451 180.858 261.302 181.482 260.144 182.148L258.486 183.104C257.329 183.769 256.253 183.862 254.879 183.073L253.496 182.278C252.163 181.511 252.322 180.889 253.479 180.223L255.137 179.27ZM252.523 174.762L253.524 175.337C254.131 175.687 254.431 175.6 254.872 175.347L256.082 174.65C256.629 174.335 256.567 174.162 256.094 173.89L255.092 173.315C254.572 173.016 254.272 173 253.742 173.304L252.532 174C252.066 174.267 251.988 174.453 252.523 174.762ZM252.633 172.409C253.79 171.744 254.865 171.65 256.237 172.439L257.613 173.231C258.946 173.998 258.798 174.622 257.641 175.288L255.981 176.242C254.825 176.906 253.75 177.002 252.374 176.209L251.001 175.421C249.667 174.653 249.817 174.029 250.973 173.363L252.633 172.409ZM262.878 176.257L264.242 177.041L248.253 179.302L246.839 178.488L262.878 176.257Z" fill="#029DC4"/>
<path fill-rule="evenodd" clip-rule="evenodd" d="M250.633 170.243C250.637 171.148 250.722 172.053 250.887 172.943C250.924 173.139 250.967 173.338 251.071 173.507C251.176 173.675 251.357 173.81 251.557 173.808C251.769 173.806 251.955 173.646 252.052 173.456C252.227 173.115 252.161 172.707 252.124 172.326C252.087 171.944 252.104 171.509 252.387 171.248C252.521 171.124 252.699 171.057 252.85 170.952C253.408 170.568 253.463 169.676 253.021 169.163C252.626 168.705 251.838 168.539 251.264 168.727C250.622 168.938 250.631 169.652 250.633 170.243Z" fill="#EBBEBC"/>
<path fill-rule="evenodd" clip-rule="evenodd" d="M288.033 176.519C287.954 176.696 287.86 176.865 287.713 177.014C287.497 177.232 287.208 177.379 286.905 177.378C286.515 177.377 286.16 177.141 285.824 176.924C285.281 176.572 284.721 176.247 284.148 175.951C283.999 175.874 283.826 175.797 283.676 175.866C283.542 175.929 283.473 176.098 283.481 176.256C283.486 176.361 283.719 176.804 283.667 176.839C283.561 176.909 283.234 176.829 283.108 176.829C282.888 176.827 282.669 176.835 282.451 176.85C282 176.881 281.552 176.945 281.111 177.04C280.243 177.228 279.4 177.537 278.614 177.962C278.544 177.999 278.472 178.04 278.422 178.104C278.373 178.168 278.351 178.263 278.388 178.339C278.429 178.42 278.524 178.451 278.611 178.469C279.273 178.603 279.936 178.428 280.592 178.374C280.876 178.35 281.146 178.411 281.431 178.4C281.8 178.387 282.17 178.405 282.536 178.455C281.434 178.565 280.344 178.797 279.292 179.149C279.076 179.221 278.577 179.414 278.519 179.679C278.44 180.041 278.965 180.072 279.174 180.079C279.815 180.097 280.454 180.116 281.094 180.136C280.392 180.115 279.672 180.296 279.041 180.602C278.732 180.751 278.502 180.84 278.724 181.223C278.869 181.475 279.15 181.635 279.425 181.591C279.845 181.525 280.257 181.447 280.68 181.401C281.271 181.336 281.868 181.308 282.462 181.371C282.03 181.559 281.595 181.75 281.223 182.045C280.919 182.288 280.588 182.657 280.506 183.071C280.452 183.343 280.576 183.807 280.913 183.721C281.271 183.629 281.624 183.512 281.968 183.373C282.692 183.08 283.394 182.705 284.166 182.563C285.288 182.358 286.464 182.667 287.582 182.442C288.59 182.239 289.459 181.615 290.169 180.861C290.831 180.158 291.173 179.205 291.759 178.439C292.116 177.973 293.306 175.859 293.531 175.231C293.639 174.93 293.743 174.601 293.66 174.286C293.543 173.85 293.109 173.596 292.7 173.462C292.155 173.285 291.579 173.232 291.018 173.301C290.494 173.365 289.913 173.448 289.523 173.848C289.009 174.374 288.686 175.223 288.322 175.873C288.203 176.083 288.129 176.306 288.033 176.519Z" fill="#EBBEBC"/>
<path fill-rule="evenodd" clip-rule="evenodd" d="M288.681 148.727C288.322 148.336 287.836 148.012 287.386 148.204C287.035 148.353 286.804 148.775 286.64 149.196C286.212 150.294 286.078 151.534 285.983 152.752C285.887 153.99 285.826 155.244 285.967 156.475C286.093 157.578 286.4 159.061 287.118 159.786C287.81 160.486 288.471 161.247 289.142 161.99C290.494 163.487 291.868 164.953 293.267 166.378C293.916 167.038 294.633 167.981 295.407 168.408C297.6 169.618 299.796 168.211 300.226 166.137C300.389 165.35 300.16 164.474 299.905 163.762C299.531 162.727 298.868 161.929 298.3 161.077C297.639 160.082 296.967 159.096 296.288 158.12C294.489 155.53 292.662 152.901 290.608 150.628C290.095 150.059 288.791 148.846 288.681 148.727Z" fill="#91B5D2"/>
<path fill-rule="evenodd" clip-rule="evenodd" d="M290.752 180.47C290.752 180.47 299.211 170.532 300.256 165.969C300.508 164.872 298.364 164.227 297.306 163.335C296.584 162.725 295.505 163.29 294.814 163.704C293.953 164.219 287.916 176.359 287.432 177.029C286.743 177.981 290.752 180.47 290.752 180.47Z" fill="#91B5D2"/>
<path d="M207.5 58.9999C207.5 58.9999 197.5 53.4999 194.5 51.4999C190.565 48.8765 184 52.4999 183.5 55.4999C182.923 58.9637 182.5 71.4999 182.5 71.4999" stroke="#D9E1E1" stroke-width="1.4" stroke-linecap="round" stroke-linejoin="round" stroke-dasharray="3"/>
<path d="M340 65C343.5 67 348 77.2338 348 82.5C348 87 358.5 90 358.5 94.5C358.5 98 358.462 126.167 358.462 126.167" stroke="#D9E1E1" stroke-width="1.4" stroke-linecap="round" stroke-linejoin="round" stroke-dasharray="3"/>
<path fill-rule="evenodd" clip-rule="evenodd" d="M154.718 37.8926C151.676 46.5106 149.91 83.7581 145.436 93.9376C145.071 94.7676 144.201 95.3304 143.76 95.0124C141.41 93.3239 138.457 82.5319 136.267 74.2999C135.991 73.2607 133.796 74.56 133.587 75.8899C132.282 84.1716 128.103 101.597 126.177 102.701C122.064 105.061 117.425 53.367 115.136 48.7396C114.682 47.8242 112.97 48.8858 112.461 50.3305C110.912 54.7192 107.054 101.817 102.174 104.617C98.7955 106.555 95.691 87.4042 94.0064 82.5197C93.6578 81.5089 91.596 82.728 91.3313 84.1106C88.3311 99.8471 85.8685 128.912 82.487 130.239C80.4988 131.886 78.6599 116.96 78.3317 114.8C76.9129 105.456 75.4695 88.6731 72.8782 84.7984C72.3303 83.9786 70.7121 84.9447 70.203 86.3893C68.6554 90.7791 68.0922 99.9152 64.4663 126.418C63.4216 134.055 62.9943 139.849 61 142.985V182L167 121.178V92.0815C165.012 93.7313 159.98 40.149 157.385 36.2956C157.248 36.0924 157.044 36.001 156.806 36C156.098 36 155.098 36.8168 154.718 37.8926Z" fill="url(#paint4_linear_0_74)"/>
<path fill-rule="evenodd" clip-rule="evenodd" d="M61 171.634V172L167 111.366V111L61 171.634Z" fill="url(#paint5_linear_0_74)"/>
<path fill-rule="evenodd" clip-rule="evenodd" d="M61 181.635V182L167 121.366V121L61 181.635Z" fill="url(#paint6_linear_0_74)"/>
<path fill-rule="evenodd" clip-rule="evenodd" d="M167 32L61 92.6334V93L167 32.3666V32Z" fill="url(#paint7_linear_0_74)"/>
<path fill-rule="evenodd" clip-rule="evenodd" d="M61 103.634V104L167 43.3656V43L61 103.634Z" fill="url(#paint8_linear_0_74)"/>
<path fill-rule="evenodd" clip-rule="evenodd" d="M61 112.634V113L167 52.3656V52L61 112.634Z" fill="url(#paint9_linear_0_74)"/>
<path fill-rule="evenodd" clip-rule="evenodd" d="M61 122.633V123L167 62.3666V62L61 122.633Z" fill="url(#paint10_linear_0_74)"/>
<path fill-rule="evenodd" clip-rule="evenodd" d="M61 133.634V134L167 73.3656V73L61 133.634Z" fill="url(#paint11_linear_0_74)"/>
<path fill-rule="evenodd" clip-rule="evenodd" d="M61 142.634V143L167 82.3656V82L61 142.634Z" fill="url(#paint12_linear_0_74)"/>
<path fill-rule="evenodd" clip-rule="evenodd" d="M61 151.633V152L167 91.3666V91L61 151.633Z" fill="url(#paint13_linear_0_74)"/>
<path fill-rule="evenodd" clip-rule="evenodd" d="M61 162.634V163L167 102.366V102L61 162.634Z" fill="url(#paint14_linear_0_74)"/>
<defs>
<linearGradient id="paint0_linear_0_74" x1="156.574" y1="343.02" x2="179.318" y2="241.715" gradientUnits="userSpaceOnUse">
<stop stop-color="#EEEEEE" stop-opacity="0.01"/>
<stop offset="1" stop-color="#D8D8D8"/>
</linearGradient>
<linearGradient id="paint1_linear_0_74" x1="192.811" y1="49.5337" x2="170.147" y2="96.2679" gradientUnits="userSpaceOnUse">
<stop stop-color="#FFD438"/>
<stop offset="1" stop-color="#FF8B00"/>
</linearGradient>
<linearGradient id="paint2_linear_0_74" x1="186.937" y1="242.927" x2="188.763" y2="231.293" gradientUnits="userSpaceOnUse">
<stop stop-color="#EEEEEE" stop-opacity="0.01"/>
<stop offset="1" stop-color="#D8D8D8"/>
</linearGradient>
<linearGradient id="paint3_linear_0_74" x1="270.062" y1="255.296" x2="271.03" y2="249.452" gradientUnits="userSpaceOnUse">
<stop stop-color="#EEEEEE" stop-opacity="0.01"/>
<stop offset="1" stop-color="#D8D8D8"/>
</linearGradient>
<linearGradient id="paint4_linear_0_74" x1="147.451" y1="195.197" x2="228.422" y2="118.116" gradientUnits="userSpaceOnUse">
<stop stop-color="#F86062"/>
<stop offset="1" stop-color="#EFB563"/>
</linearGradient>
<linearGradient id="paint5_linear_0_74" x1="40.3935" y1="22.4778" x2="39.3595" y2="111.962" gradientUnits="userSpaceOnUse">
<stop stop-color="#1A1919"/>
<stop offset="1" stop-color="#FFFFFE"/>
</linearGradient>
<linearGradient id="paint6_linear_0_74" x1="40.7365" y1="22.6073" x2="39.7026" y2="112.093" gradientUnits="userSpaceOnUse">
<stop stop-color="#1A1919"/>
<stop offset="1" stop-color="#FFFFFE"/>
</linearGradient>
<linearGradient id="paint7_linear_0_74" x1="37.661" y1="21.8326" x2="36.6271" y2="111.316" gradientUnits="userSpaceOnUse">
<stop stop-color="#1A1919"/>
<stop offset="1" stop-color="#FFFFFE"/>
</linearGradient>
<linearGradient id="paint8_linear_0_74" x1="38.004" y1="22.9635" x2="36.9701" y2="112.448" gradientUnits="userSpaceOnUse">
<stop stop-color="#1A1919"/>
<stop offset="1" stop-color="#FFFFFE"/>
</linearGradient>
<linearGradient id="paint9_linear_0_74" x1="38.3483" y1="22.0956" x2="37.3144" y2="111.58" gradientUnits="userSpaceOnUse">
<stop stop-color="#1A1919"/>
<stop offset="1" stop-color="#FFFFFE"/>
</linearGradient>
<linearGradient id="paint10_linear_0_74" x1="38.6939" y1="22.2283" x2="37.66" y2="111.712" gradientUnits="userSpaceOnUse">
<stop stop-color="#1A1919"/>
<stop offset="1" stop-color="#FFFFFE"/>
</linearGradient>
<linearGradient id="paint11_linear_0_74" x1="39.0369" y1="23.3587" x2="38.003" y2="112.843" gradientUnits="userSpaceOnUse">
<stop stop-color="#1A1919"/>
<stop offset="1" stop-color="#FFFFFE"/>
</linearGradient>
<linearGradient id="paint12_linear_0_74" x1="39.3812" y1="22.4908" x2="38.3473" y2="111.976" gradientUnits="userSpaceOnUse">
<stop stop-color="#1A1919"/>
<stop offset="1" stop-color="#FFFFFE"/>
</linearGradient>
<linearGradient id="paint13_linear_0_74" x1="39.7268" y1="21.624" x2="38.6929" y2="111.107" gradientUnits="userSpaceOnUse">
<stop stop-color="#1A1919"/>
<stop offset="1" stop-color="#FFFFFE"/>
</linearGradient>
<linearGradient id="paint14_linear_0_74" x1="40.0698" y1="22.754" x2="39.0359" y2="112.239" gradientUnits="userSpaceOnUse">
<stop stop-color="#1A1919"/>
<stop offset="1" stop-color="#FFFFFE"/>
</linearGradient>
</defs>
</svg>
