<svg width="16" height="16" viewBox="0 0 16 16" fill="none" xmlns="http://www.w3.org/2000/svg">
<path fill-rule="evenodd" clip-rule="evenodd" d="M13.9993 8.08568C13.95 11.3899 11.224 14.0286 7.91067 13.9794C4.59734 13.9302 1.95135 11.2117 2.00068 7.90684C2.05001 4.60261 4.77601 1.96454 8.08933 2.01374C11.4027 2.06294 14.0487 4.78145 13.9993 8.08568Z" stroke="#B2B9BC" stroke-width="0.735" stroke-linecap="round" stroke-linejoin="round"/>
<path fill-rule="evenodd" clip-rule="evenodd" d="M11.4754 8.0482C11.426 11.3617 9.93539 14.0264 8.14606 13.9998C6.35673 13.9732 4.94606 11.2653 4.9954 7.9518C5.0454 4.63826 6.53606 1.9736 8.32539 2.0002C10.1147 2.02679 11.5247 4.73466 11.4754 8.0482Z" stroke="#B2B9BC" stroke-width="0.735" stroke-linecap="round" stroke-linejoin="round"/>
<path d="M3.18457 11.5658C4.29257 10.8152 6.02456 10.3465 7.96456 10.3757C9.90389 10.4043 11.6212 10.9242 12.7066 11.7074" stroke="#B2B9BC" stroke-width="0.735" stroke-linecap="round" stroke-linejoin="round"/>
<path d="M12.8153 4.42732C11.7073 5.17791 9.97527 5.64662 8.03594 5.61737C6.09594 5.58878 4.37928 5.06888 3.29395 4.28571" stroke="#B2B9BC" stroke-width="0.735" stroke-linecap="round" stroke-linejoin="round"/>
<path d="M8.0895 2.01361L7.91017 13.9793" stroke="#B2B9BC" stroke-width="0.735" stroke-linecap="round" stroke-linejoin="round"/>
<path d="M13.9991 8.08572L2.00049 7.90688" stroke="#B2B9BC" stroke-width="0.735" stroke-linecap="round" stroke-linejoin="round"/>
</svg>
