<svg width="473" height="405" viewBox="0 0 473 405" fill="none" xmlns="http://www.w3.org/2000/svg">
<path opacity="0.6" fill-rule="evenodd" clip-rule="evenodd" d="M227.348 113.998C229.658 115.329 229.672 117.486 227.375 118.818C225.08 120.148 221.348 120.147 219.039 118.816C216.73 117.486 216.715 115.329 219.009 113.998C221.306 112.667 225.038 112.668 227.348 113.998Z" fill="#D9E1E1"/>
<path opacity="0.6" fill-rule="evenodd" clip-rule="evenodd" d="M132.182 287.879C134.492 289.209 134.506 291.366 132.209 292.698C129.914 294.029 126.182 294.027 123.873 292.697C121.564 291.366 121.549 289.209 123.843 287.879C126.14 286.547 129.872 286.549 132.182 287.879Z" fill="#D9E1E1"/>
<path opacity="0.6" fill-rule="evenodd" clip-rule="evenodd" d="M175.776 315.141C178.086 316.472 178.1 318.629 175.803 319.961C173.508 321.291 169.777 321.29 167.467 319.959C165.158 318.629 165.143 316.472 167.437 315.141C169.735 313.81 173.466 313.811 175.776 315.141Z" fill="#D9E1E1"/>
<path opacity="0.6" fill-rule="evenodd" clip-rule="evenodd" d="M123.05 380.097C125.36 381.428 125.374 383.585 123.077 384.917C120.782 386.247 117.051 386.246 114.741 384.915C112.432 383.585 112.417 381.428 114.711 380.097C117.008 378.766 120.74 378.767 123.05 380.097Z" fill="#D9E1E1"/>
<path opacity="0.6" fill-rule="evenodd" clip-rule="evenodd" d="M390.106 145.471C392.415 146.801 392.43 148.959 390.132 150.29C387.838 151.621 384.106 151.619 381.796 150.289C379.488 148.959 379.473 146.801 381.768 145.471C384.064 144.139 387.796 144.141 390.106 145.471Z" fill="#D9E1E1"/>
<path opacity="0.6" fill-rule="evenodd" clip-rule="evenodd" d="M321.089 149.966C323.398 151.297 323.412 153.454 321.115 154.786C318.821 156.116 315.089 156.115 312.779 154.784C310.471 153.454 310.455 151.297 312.75 149.966C315.047 148.635 318.779 148.636 321.089 149.966Z" fill="#D9E1E1"/>
<path opacity="0.6" fill-rule="evenodd" clip-rule="evenodd" d="M241.113 399.184C243.423 400.514 243.437 402.671 241.14 404.003C238.846 405.333 235.114 405.332 232.804 404.002C230.496 402.671 230.48 400.514 232.775 399.184C235.072 397.852 238.804 397.853 241.113 399.184Z" fill="#D9E1E1"/>
<path opacity="0.6" fill-rule="evenodd" clip-rule="evenodd" d="M371.155 381.137C373.465 382.467 373.479 384.624 371.182 385.956C368.887 387.286 365.156 387.285 362.846 385.955C360.537 384.624 360.522 382.467 362.816 381.137C365.113 379.805 368.845 379.806 371.155 381.137Z" fill="#D9E1E1"/>
<path opacity="0.6" fill-rule="evenodd" clip-rule="evenodd" d="M450.836 222.053C453.146 223.383 453.16 225.541 450.863 226.872C448.568 228.201 444.837 228.201 442.527 226.871C440.218 225.541 440.203 223.383 442.497 222.053C444.795 220.721 448.526 220.723 450.836 222.053Z" fill="#D9E1E1"/>
<path opacity="0.6" fill-rule="evenodd" clip-rule="evenodd" d="M471.259 263.18C473.569 264.51 473.583 266.668 471.286 268C468.991 269.33 465.26 269.328 462.95 267.998C460.641 266.668 460.626 264.51 462.92 263.18C465.217 261.848 468.949 261.85 471.259 263.18Z" fill="#D9E1E1"/>
<path opacity="0.6" fill-rule="evenodd" clip-rule="evenodd" d="M462.521 370.97C464.831 372.3 464.845 374.457 462.547 375.789C460.253 377.119 456.521 377.118 454.211 375.788C451.903 374.457 451.888 372.3 454.182 370.97C456.479 369.638 460.211 369.639 462.521 370.97Z" fill="#D9E1E1"/>
<path opacity="0.6" fill-rule="evenodd" clip-rule="evenodd" d="M351.583 191.849C353.893 193.179 353.907 195.336 351.61 196.668C349.316 197.998 345.584 197.997 343.274 196.667C340.966 195.336 340.95 193.179 343.244 191.849C345.542 190.517 349.273 190.518 351.583 191.849Z" fill="#D9E1E1"/>
<path opacity="0.6" fill-rule="evenodd" clip-rule="evenodd" d="M127.629 291.542C127.774 291.542 127.919 291.507 128.054 291.428L163.872 270.582C164.273 270.348 164.41 269.833 164.175 269.431C163.942 269.032 163.428 268.893 163.02 269.128L127.202 289.974C126.8 290.209 126.666 290.723 126.899 291.125C127.056 291.392 127.339 291.542 127.629 291.542Z" fill="#D9E1E1"/>
<path opacity="0.6" fill-rule="evenodd" clip-rule="evenodd" d="M118.205 383.284C118.348 383.284 118.491 383.248 118.625 383.171L240.087 313.336C240.49 313.104 240.629 312.589 240.396 312.186C240.165 311.784 239.65 311.645 239.244 311.879L117.782 381.714C117.379 381.946 117.239 382.46 117.473 382.862C117.629 383.133 117.912 383.284 118.205 383.284Z" fill="#D9E1E1"/>
<path opacity="0.6" fill-rule="evenodd" clip-rule="evenodd" d="M265.834 217.988C265.977 217.988 266.122 217.952 266.254 217.876L387.715 148.041C388.119 147.81 388.258 147.294 388.025 146.892C387.793 146.489 387.28 146.351 386.872 146.583L265.412 216.418C265.009 216.65 264.87 217.166 265.103 217.568C265.259 217.837 265.541 217.988 265.834 217.988Z" fill="#D9E1E1"/>
<path opacity="0.6" fill-rule="evenodd" clip-rule="evenodd" d="M239.605 402.933C239.896 402.933 240.179 402.785 240.335 402.514C240.569 402.113 240.432 401.599 240.029 401.364L189.829 372.33L275.826 323.196C276.231 322.966 276.371 322.451 276.139 322.049C275.91 321.648 275.396 321.505 274.99 321.737L187.722 371.597C187.461 371.746 187.298 372.023 187.298 372.323C187.296 372.625 187.458 372.902 187.718 373.055L239.183 402.821C239.317 402.898 239.461 402.933 239.605 402.933Z" fill="#D9E1E1"/>
<path opacity="0.6" fill-rule="evenodd" clip-rule="evenodd" d="M461.504 374.972C461.795 374.972 462.078 374.823 462.235 374.553C462.468 374.152 462.331 373.637 461.929 373.405L360.075 314.429C359.671 314.194 359.155 314.331 358.923 314.734C358.69 315.135 358.826 315.65 359.228 315.883L461.082 374.858C461.215 374.937 461.36 374.972 461.504 374.972Z" fill="#D9E1E1"/>
<path opacity="0.6" fill-rule="evenodd" clip-rule="evenodd" d="M366.635 384.22C366.778 384.22 366.924 384.184 367.057 384.106L402.051 363.841C402.309 363.691 402.469 363.416 402.471 363.118C402.472 362.818 402.315 362.542 402.056 362.39L353.988 334.019C353.586 333.784 353.072 333.915 352.833 334.315C352.597 334.716 352.729 335.232 353.13 335.469L399.96 363.107L366.21 382.652C365.808 382.885 365.671 383.399 365.904 383.8C366.061 384.07 366.344 384.22 366.635 384.22Z" fill="#D9E1E1"/>
<path opacity="0.6" fill-rule="evenodd" clip-rule="evenodd" d="M468.003 267.94C468.292 267.94 468.572 267.793 468.729 267.527C468.967 267.127 468.833 266.611 468.431 266.376L421.65 238.85C421.25 238.614 420.731 238.749 420.496 239.147C420.259 239.547 420.393 240.062 420.794 240.298L467.576 267.824C467.709 267.904 467.857 267.94 468.003 267.94Z" fill="#D9E1E1"/>
<path opacity="0.6" fill-rule="evenodd" clip-rule="evenodd" d="M384.996 260.712C385.138 260.712 385.281 260.677 385.413 260.601L445.387 226.493C445.792 226.263 445.934 225.75 445.702 225.346C445.472 224.942 444.959 224.802 444.553 225.031L384.577 259.139C384.172 259.369 384.032 259.882 384.262 260.286C384.418 260.559 384.702 260.712 384.996 260.712Z" fill="#D9E1E1"/>
<path opacity="0.6" fill-rule="evenodd" clip-rule="evenodd" d="M264.674 183.515C264.819 183.515 264.963 183.478 265.097 183.401L318.546 152.424C318.949 152.19 319.086 151.676 318.852 151.275C318.618 150.873 318.101 150.737 317.7 150.969L264.25 181.946C263.848 182.179 263.71 182.695 263.943 183.096C264.101 183.365 264.384 183.515 264.674 183.515Z" fill="#D9E1E1"/>
<path opacity="0.6" fill-rule="evenodd" clip-rule="evenodd" d="M236.841 156.743C237.134 156.743 237.416 156.593 237.572 156.322C237.805 155.92 237.668 155.405 237.264 155.173L197.404 132.213L224.966 116.441C225.37 116.21 225.51 115.697 225.278 115.294C225.045 114.89 224.535 114.752 224.126 114.982L195.294 131.481C195.033 131.631 194.871 131.91 194.871 132.21C194.87 132.511 195.03 132.789 195.292 132.94L236.421 156.629C236.555 156.706 236.698 156.743 236.841 156.743Z" fill="#D9E1E1"/>
<path opacity="0.6" fill-rule="evenodd" clip-rule="evenodd" d="M201.091 335.307C201.381 335.307 201.664 335.157 201.821 334.888C202.054 334.487 201.918 333.972 201.516 333.738L171.767 316.455C171.366 316.219 170.848 316.357 170.614 316.758C170.38 317.161 170.516 317.675 170.918 317.909L200.668 335.192C200.801 335.27 200.946 335.307 201.091 335.307Z" fill="#D9E1E1"/>
<path opacity="0.6" fill-rule="evenodd" clip-rule="evenodd" d="M346.39 194.752C346.68 194.752 346.961 194.603 347.118 194.337C347.354 193.936 347.219 193.422 346.819 193.186L326.921 181.506C326.518 181.274 326.002 181.405 325.768 181.805C325.531 182.206 325.665 182.72 326.067 182.956L345.963 194.636C346.098 194.714 346.244 194.752 346.39 194.752Z" fill="#D9E1E1"/>
<g opacity="0.6" filter="url(#filter0_f_0_2897)">
<path fill-rule="evenodd" clip-rule="evenodd" d="M200.401 173.081C203.74 171.148 207.857 171.156 211.189 173.098L442.343 270.051C445.916 272.134 443.118 282.033 439.538 284.105L329.593 355.492C329.593 355.492 310.27 367.851 296.577 359.866C260.281 338.698 159.319 279.969 155.519 277.781L107.832 248.97C99.4167 240.538 101.165 229.555 106.43 226.485L200.401 173.081Z" fill="#B2B9BC"/>
</g>
<mask id="mask0_0_2897" style="mask-type:alpha" maskUnits="userSpaceOnUse" x="109" y="159" width="333" height="197">
<path fill-rule="evenodd" clip-rule="evenodd" d="M441.092 159.378H109.047V355.577H326.632H441.092V159.378Z" fill="white"/>
</mask>
<g mask="url(#mask0_0_2897)">
<path fill-rule="evenodd" clip-rule="evenodd" d="M115.621 245.859L299.183 352.966C305.12 356.425 312.468 356.452 318.432 353.018L427.537 289.406L434.546 285.317C443.726 279.08 442.156 267.211 436.533 262.729C436.324 262.546 436.167 262.468 436.037 262.389L251.524 161.926C245.56 158.519 238.212 158.519 232.25 161.978L160.582 196.96L114.968 222.354C108.273 225.891 105.71 239.151 115.621 245.859Z" fill="#2B5C99"/>
</g>
<path fill-rule="evenodd" clip-rule="evenodd" d="M118.043 239.813L299.177 345.521C305.115 348.955 312.455 348.979 318.417 345.568L432.712 279.29C442.154 274.212 441.237 265.025 434.743 261.325L251.392 154.62C245.404 151.209 238.206 151.075 232.268 154.534L115.615 221.664C109.194 225.39 109.119 235.139 118.043 239.813Z" fill="#A5BFD1"/>
<path fill-rule="evenodd" clip-rule="evenodd" d="M119.044 238.55L299.485 343.855C305.338 347.24 312.572 347.264 318.449 343.902L431.1 278.578C440.406 273.572 439.503 264.519 433.101 260.87L250.475 154.582C244.573 151.221 237.479 151.089 231.626 154.498L116.651 220.663C110.321 224.335 110.247 233.942 119.044 238.55Z" fill="#A5BFD1"/>
<path fill-rule="evenodd" clip-rule="evenodd" d="M176.369 193.077L193.125 183.383C194.375 182.66 195.913 182.655 197.169 183.367C198.149 183.925 198.155 185.339 197.178 185.904L180.276 195.681C179.067 196.381 177.578 196.381 176.369 195.681C175.369 195.102 175.369 193.656 176.369 193.077Z" fill="#435775"/>
<path fill-rule="evenodd" clip-rule="evenodd" d="M250.071 161.647L264.136 169.845L424.784 263.494L300.122 335.603L264.136 314.635L125.357 233.773L250.071 161.647Z" fill="#E0E6EA"/>
<path fill-rule="evenodd" clip-rule="evenodd" d="M359.462 289.48C318.516 264.747 233.928 224.372 192.982 199.639L135 233.054C175.945 257.787 252.529 305.267 293.475 330L359.462 289.48Z" fill="url(#paint0_linear_0_2897)"/>
<path fill-rule="evenodd" clip-rule="evenodd" d="M185.873 80.9704C184.109 81.2173 183.693 83.5779 185.266 84.4128L354.158 174.044C355.92 174.979 357.7 172.831 356.454 171.274L274.304 68.5928L185.873 80.9704Z" fill="#FFB76F"/>
<path fill-rule="evenodd" clip-rule="evenodd" d="M185.767 81.756L358.328 173.613L351.903 176.369L230.743 210.356L185.767 81.756Z" fill="#BD472F"/>
<path fill-rule="evenodd" clip-rule="evenodd" d="M228.162 9.79121C220.814 5.46176 211.543 10.7599 211.543 19.2891L211.543 118.442L339.889 243.359L339.891 81.9163C339.891 78.0126 337.827 74.3999 334.463 72.4183L228.162 9.79121Z" fill="#CBCCCB"/>
<path fill-rule="evenodd" clip-rule="evenodd" d="M337.351 245.07L211.25 172.214L211.254 17.2028C211.254 11.5445 217.38 8.00894 222.279 10.8396L333.68 75.2034C335.953 76.5165 337.352 78.9421 337.352 81.5669L337.351 245.07Z" fill="white"/>
<path fill-rule="evenodd" clip-rule="evenodd" d="M326.163 113.157L222.441 53.2287V44.4931L326.163 104.421V113.157Z" fill="#A5BFD1"/>
<path fill-rule="evenodd" clip-rule="evenodd" d="M326.163 129.697L222.441 69.7688V61.0331L326.163 120.961V129.697Z" fill="#D9E1E1"/>
<path fill-rule="evenodd" clip-rule="evenodd" d="M265.785 111.352L222.44 86.3096V77.5721L265.785 102.616V111.352Z" fill="#D9E1E1"/>
<path fill-rule="evenodd" clip-rule="evenodd" d="M265.784 127.892L222.44 102.85V94.1142L265.784 119.156V127.892Z" fill="#D9E1E1"/>
<path fill-rule="evenodd" clip-rule="evenodd" d="M326.163 179.317L271.126 147.518V105.703L326.163 137.502V179.317Z" fill="#D9E1E1"/>
<path fill-rule="evenodd" clip-rule="evenodd" d="M265.784 144.432L222.44 119.39V110.654L265.784 135.696V144.432Z" fill="#D9E1E1"/>
<path fill-rule="evenodd" clip-rule="evenodd" d="M326.162 195.857L222.44 135.929V127.194L326.162 187.122V195.857Z" fill="#D9E1E1"/>
<path fill-rule="evenodd" clip-rule="evenodd" d="M326.162 212.397L222.44 152.47V143.734L326.162 203.662V212.397Z" fill="#D9E1E1"/>
<path fill-rule="evenodd" clip-rule="evenodd" d="M351.763 174.687L344.56 293.028L349.632 293.893C354.119 294.658 358.216 291.201 358.216 286.649L358.218 173.905C358.218 172.452 356.61 171.574 355.387 172.359L351.763 174.687Z" fill="url(#paint1_linear_0_2897)"/>
<path fill-rule="evenodd" clip-rule="evenodd" d="M183.931 198.257C183.931 200.902 185.352 203.343 187.652 204.648L343.679 293.226C348.579 296.008 354.657 292.469 354.657 286.835V172.695L274.372 186.016C270.356 186.682 266.3 185.081 263.822 181.851L187.228 82.0149C186.159 80.6221 183.933 81.3777 183.933 83.1332L183.931 198.257Z" fill="url(#paint2_linear_0_2897)"/>
<path d="M77.3572 125.7C33.8625 136.62 14.6263 169.39 58.0552 183.177C102.653 197.336 170.904 178.512 117.862 266.322C64.8199 354.133 288.582 389.994 368.677 355.556C448.772 321.119 446.941 248.898 402.406 241.713" stroke="#5E666A" stroke-width="1.40415" stroke-linecap="round" stroke-linejoin="round" stroke-dasharray="2.81 3.83"/>
<path fill-rule="evenodd" clip-rule="evenodd" d="M94.1852 100.803L86.4472 126.113C86.0643 127.365 87.4532 128.414 88.5528 127.702L112.193 112.405L138.069 95.6616C139.357 94.8285 138.567 92.8295 137.058 93.1006L94.1852 100.803Z" fill="#2B5C99"/>
<path fill-rule="evenodd" clip-rule="evenodd" d="M77.1212 91.7851C75.9503 90.9837 76.5714 89.1494 77.9883 89.2242L139.288 92.4585C140.961 92.5468 141.101 94.963 139.45 95.2449L93.6084 103.07L77.1212 91.7851Z" fill="#00A4D1"/>
<path fill-rule="evenodd" clip-rule="evenodd" d="M139.635 92.4311C140.999 92.0001 142.058 93.645 141.103 94.7086L115.463 123.237C114.334 124.493 112.36 124.476 111.253 123.2L96.4119 106.094L139.635 92.4311Z" fill="#00A4D1"/>
<path fill-rule="evenodd" clip-rule="evenodd" d="M76.7197 91.4544L93.1078 104.326L87.3691 126.308L96.4114 106.093L137.005 93.7189L93.608 103.07L76.7197 91.4544Z" fill="#00226D"/>
<path fill-rule="evenodd" clip-rule="evenodd" d="M389.493 38.4171L385.853 40.5538C386.96 39.904 388.492 39.9912 390.177 40.9735L390.177 40.9737L426.095 61.9174L429.735 59.7806L393.817 38.8371L393.818 38.8369C392.133 37.8545 390.6 37.7672 389.493 38.4171ZM435.8 70.3883L432.16 72.525L432.087 98.652L432.087 98.6524C432.081 100.579 431.401 101.939 430.306 102.582L433.946 100.446C435.041 99.804 435.721 98.4421 435.727 96.5163L435.728 96.5159L435.8 70.3883Z" fill="#466BA3"/>
<path fill-rule="evenodd" clip-rule="evenodd" d="M426.096 61.9171C429.442 63.8682 432.171 68.6406 432.16 72.5248L432.086 98.6524C432.075 102.527 429.33 104.116 425.983 102.165L412.57 94.3442C412.479 94.4163 412.338 94.4676 412.149 94.4911L395.025 96.3036C394.757 96.3313 394.528 96.2856 394.351 96.1817C393.957 95.9517 393.815 95.4362 394.04 94.7987L397.319 85.4521L390.065 81.2215C386.717 79.2704 383.989 74.4883 384 70.6139L384.073 44.4862C384.084 40.602 386.829 39.0223 390.177 40.9734L426.096 61.9171Z" fill="#CCDFF2"/>
<path fill-rule="evenodd" clip-rule="evenodd" d="M430.2 78.9782L389.465 55.2269L389.6 50.7174L430.335 74.4704L430.2 78.9782Z" fill="white"/>
<path fill-rule="evenodd" clip-rule="evenodd" d="M426.565 87.7252L389.465 65.1183L389.6 60.6087L426.7 83.2174L426.565 87.7252Z" fill="white"/>
<path fill-rule="evenodd" clip-rule="evenodd" d="M432.582 69.2346C434.161 70.1513 435.438 72.3779 435.433 74.2141C435.427 76.0392 434.142 76.7772 432.564 75.8605C430.985 74.9425 429.708 72.7158 429.712 70.8894C429.717 69.0546 431.002 68.3166 432.582 69.2346Z" fill="#EDEDEC"/>
<path fill-rule="evenodd" clip-rule="evenodd" d="M441.369 74.3407C442.948 75.2587 444.225 77.484 444.22 79.3201C444.214 81.1466 442.929 81.8833 441.35 80.9666C439.772 80.0485 438.495 77.8219 438.499 75.9954C438.505 74.1607 439.79 73.4226 441.369 74.3407Z" fill="#EDEDEC"/>
<path fill-rule="evenodd" clip-rule="evenodd" d="M423.795 64.1286C425.374 65.0466 426.659 67.2774 426.654 69.1122C426.648 70.9387 425.355 71.6712 423.776 70.7531C422.197 69.8364 420.921 67.6098 420.925 65.7833C420.93 63.9486 422.215 63.2105 423.795 64.1286Z" fill="#EDEDEC"/>
<path fill-rule="evenodd" clip-rule="evenodd" d="M419.816 46.7855L416.166 48.9207C416.986 48.4417 418.119 48.5066 419.366 49.2305L419.365 49.2306L445.868 64.6301L446.324 64.3634L445.867 64.6305C448.34 66.0665 450.358 69.5765 450.35 72.4346L450.349 72.4347L450.296 91.6505L450.295 91.6507C450.291 93.07 449.788 94.0726 448.98 94.5462L452.629 92.4109C453.438 91.9387 453.941 90.9362 453.945 89.5156L453.946 89.5153L454 70.2998L454 70.2996C454.008 67.4415 451.99 63.9313 449.517 62.4953L449.517 62.4957L423.016 47.0957L423.016 47.0956C421.77 46.3714 420.636 46.3063 419.816 46.7855ZM440.436 91.1305L442.8 89.5761L444.9 99.4674L442.809 100.793L440.436 91.1305ZM442.802 101.561C442.904 101.484 442.914 101.224 442.81 100.793L444.9 99.4674C445.008 99.9161 445.014 100.107 444.9 100.174L442.802 101.561ZM442.802 101.561L442.799 101.564L442.794 101.567L442.789 101.57L442.802 101.561Z" fill="#767B7D"/>
<path fill-rule="evenodd" clip-rule="evenodd" d="M441.35 80.9659C442.93 81.884 444.215 81.1459 444.22 79.3194C444.224 77.4847 442.948 75.258 441.37 74.34C439.79 73.4233 438.505 74.16 438.5 75.9961C438.494 77.8226 439.771 80.0478 441.35 80.9659ZM432.563 75.859C434.142 76.7771 435.427 76.0404 435.433 74.214C435.438 72.3778 434.16 70.1526 432.582 69.2345C431.003 68.3164 429.718 69.0545 429.712 70.8892C429.707 72.7157 430.985 74.9423 432.563 75.859ZM423.776 70.7535C425.355 71.6716 426.648 70.9391 426.654 69.1126C426.659 67.2765 425.373 65.0457 423.795 64.129C422.215 63.2109 420.93 63.9476 420.925 65.7838C420.921 67.6102 422.198 69.8355 423.776 70.7535ZM445.867 64.6303C448.339 66.0662 450.358 69.5765 450.35 72.4346L450.296 91.6504C450.288 94.5099 448.256 95.6744 445.785 94.2385L440.435 91.1298L442.81 100.792C442.968 101.446 442.864 101.705 442.575 101.537C442.444 101.463 442.278 101.301 442.081 101.049L429.483 85.0522C429.342 84.875 429.251 84.7268 429.177 84.5883L419.282 78.8389C416.81 77.4016 414.792 73.883 414.8 71.0249L414.854 51.8091C414.862 48.9497 416.894 47.7948 419.366 49.2307L445.867 64.6303Z" fill="#C0C8CC"/>
<path fill-rule="evenodd" clip-rule="evenodd" d="M168.14 51.4246L171.206 58.066L172.883 59L169.816 52.3586L168.14 51.4246Z" fill="#A3C768"/>
<path fill-rule="evenodd" clip-rule="evenodd" d="M179.541 31.1684C179.069 30.9045 178.413 30.9422 177.69 31.3421L164.593 38.5914C163.156 39.3861 161.996 41.314 162 42.8969L162.023 51.9397C162.026 52.7262 162.315 53.2793 162.782 53.539L164.459 54.473C163.991 54.2133 163.702 53.6603 163.7 52.8737L163.677 43.8309C163.672 42.2488 164.833 40.3201 166.27 39.5254L179.367 32.2761C180.09 31.8763 180.745 31.8386 181.218 32.1024L179.541 31.1684Z" fill="#A3C768"/>
<path fill-rule="evenodd" clip-rule="evenodd" d="M179.367 32.2761C180.804 31.4805 181.972 32.1196 181.977 33.7017L182 42.7445C182.004 44.3274 180.844 46.2553 179.407 47.0508L175.901 48.991L172.883 58.9998L169.816 52.3592L166.31 54.2993C164.873 55.0949 163.704 54.4566 163.7 52.8737L163.677 43.8309C163.672 42.2488 164.833 40.3201 166.27 39.5254L179.367 32.2761Z" fill="#87B24F"/>
<path fill-rule="evenodd" clip-rule="evenodd" d="M172.58 50.2473L166.805 44.9365C166.216 44.3957 166.195 43.4994 166.761 42.9349C167.327 42.3704 168.259 42.3515 168.849 42.8931L171.666 45.483L176.515 35.6569C176.862 34.9515 177.743 34.6475 178.482 34.9834C179.219 35.3177 179.534 36.1624 179.186 36.8687L172.58 50.2473Z" fill="#F8F7F6"/>
<path fill-rule="evenodd" clip-rule="evenodd" d="M334.064 63.831C333.946 63.831 333.825 63.8001 333.716 63.734L331.34 62.3103C331.012 62.1148 330.902 61.6843 331.095 61.3481C331.288 61.0132 331.71 60.8993 332.037 61.0976L334.413 62.5213C334.74 62.7169 334.85 63.1487 334.659 63.4836C334.53 63.7072 334.3 63.831 334.064 63.831ZM340 67.3888C339.882 67.3888 339.762 67.3579 339.653 67.2918L337.279 65.8695C336.951 65.6725 336.841 65.2421 337.032 64.9072C337.228 64.5696 337.65 64.4613 337.975 64.6568L340.348 66.0791C340.677 66.276 340.788 66.7065 340.595 67.0413C340.465 67.265 340.236 67.3888 340 67.3888ZM345.915 70.9874C345.778 70.9874 345.639 70.9452 345.519 70.858C345.244 70.6596 344.959 70.4725 344.665 70.2967L343.215 69.4273C342.887 69.2303 342.777 68.7998 342.969 68.465C343.162 68.1288 343.585 68.0177 343.911 68.2146L345.362 69.0826C345.69 69.2796 346.008 69.4878 346.312 69.7086C346.623 69.9323 346.697 70.3712 346.478 70.6892C346.345 70.8833 346.132 70.9874 345.915 70.9874ZM350.221 76.3613C349.958 76.3613 349.705 76.2052 349.592 75.9421C349.241 75.1304 348.804 74.3567 348.291 73.6434C348.067 73.3297 348.133 72.8894 348.439 72.6601C348.744 72.4294 349.178 72.4969 349.402 72.812C349.974 73.6083 350.461 74.4692 350.851 75.3738C351.006 75.7297 350.846 76.1447 350.5 76.3023C350.41 76.3431 350.315 76.3613 350.221 76.3613ZM351.312 83.2392C350.932 83.2392 350.623 82.9254 350.623 82.5358V80.9278C350.623 80.5452 350.607 80.1667 350.571 79.7897C350.537 79.4028 350.815 79.061 351.192 79.0244C351.591 78.985 351.906 79.272 351.942 79.6589C351.981 80.0781 352 80.5015 352 80.9278V82.5358C352 82.9254 351.693 83.2392 351.312 83.2392ZM351.312 90.2731C350.932 90.2731 350.623 89.9594 350.623 89.5697V86.7561C350.623 86.3679 350.932 86.0527 351.312 86.0527C351.693 86.0527 352 86.3679 352 86.7561V89.5697C352 89.9594 351.693 90.2731 351.312 90.2731ZM351.312 97.3071C350.932 97.3071 350.623 96.9934 350.623 96.6037V93.7901C350.623 93.4018 350.932 93.0867 351.312 93.0867C351.693 93.0867 352 93.4018 352 93.7901V96.6037C352 96.9934 351.693 97.3071 351.312 97.3071ZM351.312 104.341C350.932 104.341 350.623 104.027 350.623 103.638V100.824C350.623 100.436 350.932 100.121 351.312 100.121C351.693 100.121 352 100.436 352 100.824V103.638C352 104.027 351.693 104.341 351.312 104.341ZM351.312 111.375C350.932 111.375 350.623 111.061 350.623 110.672V107.858C350.623 107.47 350.932 107.155 351.312 107.155C351.693 107.155 352 107.47 352 107.858V110.672C352 111.061 351.693 111.375 351.312 111.375ZM351.312 118.409C350.932 118.409 350.623 118.095 350.623 117.706V114.892C350.623 114.504 350.932 114.189 351.312 114.189C351.693 114.189 352 114.504 352 114.892V117.706C352 118.095 351.693 118.409 351.312 118.409ZM351.312 125.443C350.932 125.443 350.623 125.129 350.623 124.74V121.926C350.623 121.538 350.932 121.223 351.312 121.223C351.693 121.223 352 121.538 352 121.926V124.74C352 125.129 351.693 125.443 351.312 125.443ZM351.312 132.477C350.932 132.477 350.623 132.163 350.623 131.774V128.96C350.623 128.572 350.932 128.257 351.312 128.257C351.693 128.257 352 128.572 352 128.96V131.774C352 132.163 351.693 132.477 351.312 132.477ZM351.312 138C350.932 138 350.623 137.686 350.623 137.297V135.994C350.623 135.606 350.932 135.291 351.312 135.291C351.693 135.291 352 135.606 352 135.994V137.297C352 137.686 351.693 138 351.312 138Z" fill="#A5BFD1"/>
<defs>
<filter id="filter0_f_0_2897" x="98.1831" y="167.819" width="349.634" height="198.55" filterUnits="userSpaceOnUse" color-interpolation-filters="sRGB">
<feFlood flood-opacity="0" result="BackgroundImageFix"/>
<feBlend mode="normal" in="SourceGraphic" in2="BackgroundImageFix" result="shape"/>
<feGaussianBlur stdDeviation="1.90844" result="effect1_foregroundBlur_0_2897"/>
</filter>
<linearGradient id="paint0_linear_0_2897" x1="231.389" y1="292.814" x2="238.663" y2="253.158" gradientUnits="userSpaceOnUse">
<stop stop-color="#EEEEEE" stop-opacity="0.01"/>
<stop offset="1" stop-color="#D8D8D8"/>
</linearGradient>
<linearGradient id="paint1_linear_0_2897" x1="360.31" y1="315.212" x2="360.31" y2="152.16" gradientUnits="userSpaceOnUse">
<stop stop-color="#F86062"/>
<stop offset="1" stop-color="#EFB563"/>
</linearGradient>
<linearGradient id="paint2_linear_0_2897" x1="242.016" y1="283.465" x2="355.686" y2="216.685" gradientUnits="userSpaceOnUse">
<stop stop-color="#F86062"/>
<stop offset="1" stop-color="#EFB563"/>
</linearGradient>
</defs>
</svg>
