<svg width="16" height="16" viewBox="0 0 16 16" fill="none" xmlns="http://www.w3.org/2000/svg">
<path fill-rule="evenodd" clip-rule="evenodd" d="M8 14.9498C4.16784 14.9498 1.05019 11.8321 1.05019 8C1.05019 4.16784 4.16784 1.05019 8 1.05019C11.8321 1.05019 14.9498 4.16784 14.9498 8C14.9498 11.8321 11.8321 14.9498 8 14.9498ZM8 0C3.58873 0 0 3.58882 0 8C0 12.4112 3.58873 16 8 16C12.4112 16 16 12.4112 16 8C16 3.58882 12.4112 0 8 0Z" fill="#5E666A"/>
<path fill-rule="evenodd" clip-rule="evenodd" d="M8.20584 10.6229C6.23937 10.6229 5.47775 9.24746 5.46637 7.92883C5.45499 6.59891 6.28478 5.16669 8.20584 5.16669C8.8992 5.16669 9.60402 5.40533 10.1269 5.91693L11.1272 4.95071C10.3088 4.14358 9.28574 3.73438 8.20584 3.73438C5.32994 3.73438 3.97727 5.84867 3.98864 7.92883C4.00002 9.99761 5.25039 12.0324 8.20584 12.0324C9.35391 12.0324 10.4111 11.6573 11.2295 10.8502L10.2065 9.81585C9.68357 10.3386 8.8992 10.6229 8.20584 10.6229Z" fill="#5E666A"/>
</svg>
