<svg width="16" height="16" viewBox="0 0 16 16" fill="none" xmlns="http://www.w3.org/2000/svg">
<path fill-rule="evenodd" clip-rule="evenodd" d="M13.2748 4.58757L8.06286 8.58334L2.77939 4.58757H13.2748ZM9.42262 8.28016C9.42905 8.28809 9.43462 8.29646 9.44193 8.30366L13.2334 12.0791H3.05669L6.7931 8.35875L7.88784 9.18678C7.94008 9.22615 8.00198 9.24583 8.06403 9.24583C8.12652 9.24583 8.18915 9.22585 8.24154 9.1856L9.42262 8.28016ZM13.4142 5.21994V11.4317L9.88957 7.92203L13.4142 5.21994ZM6.32073 8.0015L2.58535 11.7208V5.17646L6.32073 8.0015ZM2.62427 12.6667H13.3753C13.7196 12.6667 13.9996 12.3855 13.9996 12.0399V4.62929C13.9996 4.62797 14 4.62694 14 4.62562C14 4.28071 13.7199 4 13.3756 4H13.3753H2.6749H2.62427C2.27994 4 2 4.28115 2 4.62679V12.0399C2 12.3855 2.27994 12.6667 2.62427 12.6667Z" fill="#B2B9BC"/>
<path d="M13.2748 4.58757L13.3356 4.66693L13.5696 4.48757H13.2748V4.58757ZM8.06286 8.58334L8.00254 8.6631L8.06327 8.70903L8.1237 8.66271L8.06286 8.58334ZM2.77939 4.58757V4.48757H2.48138L2.71907 4.66733L2.77939 4.58757ZM9.42262 8.28016L9.50026 8.21713L9.43896 8.14162L9.36177 8.2008L9.42262 8.28016ZM9.44193 8.30366L9.51249 8.2328L9.51206 8.23237L9.44193 8.30366ZM13.2334 12.0791V12.1791H13.4755L13.3039 12.0082L13.2334 12.0791ZM3.05669 12.0791L2.98614 12.0082L2.81454 12.1791H3.05669V12.0791ZM6.7931 8.35875L6.85342 8.27899L6.78412 8.22657L6.72254 8.28788L6.7931 8.35875ZM7.88784 9.18678L7.82752 9.26653L7.82766 9.26664L7.88784 9.18678ZM8.24154 9.1856L8.18069 9.10624L8.18061 9.10631L8.24154 9.1856ZM13.4142 5.21994H13.5142V5.01728L13.3534 5.14058L13.4142 5.21994ZM13.4142 11.4317L13.3437 11.5026L13.5142 11.6724V11.4317H13.4142ZM9.88957 7.92203L9.82873 7.84267L9.738 7.91223L9.81901 7.99289L9.88957 7.92203ZM6.32073 8.0015L6.39128 8.07237L6.47284 7.99116L6.38105 7.92174L6.32073 8.0015ZM2.58535 11.7208H2.48535V11.9615L2.6559 11.7917L2.58535 11.7208ZM2.58535 5.17646L2.64567 5.0967L2.48535 4.97546V5.17646H2.58535ZM13.2139 4.50821L8.00202 8.50398L8.1237 8.66271L13.3356 4.66693L13.2139 4.50821ZM8.12318 8.50359L2.83971 4.50781L2.71907 4.66733L8.00254 8.6631L8.12318 8.50359ZM2.77939 4.68757H13.2748V4.48757H2.77939V4.68757ZM9.34497 8.34318C9.34777 8.34662 9.34732 8.3463 9.35311 8.35371C9.3572 8.35894 9.36354 8.36682 9.3718 8.37495L9.51206 8.23237C9.51301 8.23331 9.51291 8.23339 9.51078 8.23066C9.5096 8.22915 9.50866 8.2279 9.50672 8.22537C9.50504 8.22318 9.50279 8.22026 9.50026 8.21713L9.34497 8.34318ZM9.37137 8.37452L13.1628 12.15L13.3039 12.0082L9.51249 8.2328L9.37137 8.37452ZM13.2334 11.9791H3.05669V12.1791H13.2334V11.9791ZM3.12725 12.15L6.86366 8.42961L6.72254 8.28788L2.98614 12.0082L3.12725 12.15ZM6.73277 8.4385L7.82752 9.26653L7.94817 9.10702L6.85342 8.27899L6.73277 8.4385ZM7.82766 9.26664C7.89764 9.31937 7.98076 9.34583 8.06403 9.34583V9.14583C8.0232 9.14583 7.98253 9.13292 7.94802 9.10692L7.82766 9.26664ZM8.06403 9.34583C8.14781 9.34583 8.23202 9.31902 8.30246 9.2649L8.18061 9.10631C8.14627 9.13269 8.10522 9.14583 8.06403 9.14583V9.34583ZM8.30238 9.26497L9.48346 8.35952L9.36177 8.2008L8.18069 9.10624L8.30238 9.26497ZM13.3142 5.21994V11.4317H13.5142V5.21994H13.3142ZM13.4848 11.3609L9.96013 7.85117L9.81901 7.99289L13.3437 11.5026L13.4848 11.3609ZM9.95042 8.0014L13.4751 5.29931L13.3534 5.14058L9.82873 7.84267L9.95042 8.0014ZM6.25017 7.93064L2.51479 11.65L2.6559 11.7917L6.39128 8.07237L6.25017 7.93064ZM2.68535 11.7208V5.17646H2.48535V11.7208H2.68535ZM2.52502 5.25622L6.2604 8.08126L6.38105 7.92174L2.64567 5.0967L2.52502 5.25622ZM2.62427 12.7667H13.3753V12.5667H2.62427V12.7667ZM13.3753 12.7667C13.7753 12.7667 14.0996 12.4404 14.0996 12.0399H13.8996C13.8996 12.3307 13.664 12.5667 13.3753 12.5667V12.7667ZM14.0996 12.0399V4.62929H13.8996V12.0399H14.0996ZM14.0996 4.62929C14.0996 4.63918 14.0978 4.64724 14.0981 4.6458C14.0981 4.64575 14.0982 4.64499 14.0984 4.64412C14.0986 4.64317 14.0988 4.64174 14.099 4.64001C14.0995 4.63648 14.1 4.63153 14.1 4.62562H13.9C13.9 4.61573 13.9018 4.60766 13.9015 4.6091C13.9015 4.60915 13.9013 4.60991 13.9012 4.61079C13.901 4.61173 13.9008 4.61316 13.9006 4.61489C13.9001 4.61843 13.8996 4.62337 13.8996 4.62929H14.0996ZM14.1 4.62562C14.1 4.22567 13.7753 3.9 13.3756 3.9V4.1C13.6645 4.1 13.9 4.33575 13.9 4.62562H14.1ZM13.3756 3.9H13.3753V4.1H13.3756V3.9ZM13.3753 3.9H2.6749V4.1H13.3753V3.9ZM2.6749 3.9H2.62427V4.1H2.6749V3.9ZM2.62427 3.9C2.22432 3.9 1.9 4.22631 1.9 4.62679H2.1C2.1 4.33599 2.33556 4.1 2.62427 4.1V3.9ZM1.9 4.62679V12.0399H2.1V4.62679H1.9ZM1.9 12.0399C1.9 12.4404 2.22432 12.7667 2.62427 12.7667V12.5667C2.33556 12.5667 2.1 12.3307 2.1 12.0399H1.9Z" fill="#B2B9BC"/>
</svg>
