<svg width="16" height="16" viewBox="0 0 16 16" fill="none" xmlns="http://www.w3.org/2000/svg">
<path fill-rule="evenodd" clip-rule="evenodd" d="M6.5701 7.87544C6.99978 8.07831 7.48126 8.19546 7.9918 8.19546C8.49974 8.19546 8.97898 8.07956 9.40698 7.87847C9.95219 8.38083 12.0723 10.5035 12.2437 13.2857H3.75632C3.92569 10.5392 5.99005 8.41941 6.5701 7.87544ZM5.50522 5.09773C5.50522 3.78353 6.62059 2.71434 7.9918 2.71434C9.36301 2.71434 10.4786 3.78353 10.4786 5.09773C10.4786 6.41194 9.36301 7.48112 7.9918 7.48112C6.62059 7.48112 5.50522 6.41194 5.50522 5.09773ZM12.6273 14C12.8332 14 13 13.8402 13 13.6428C13 10.5633 10.8449 8.23439 10.0526 7.48202C10.7676 6.9134 11.2239 6.05584 11.2239 5.09773C11.2239 3.38957 9.77406 2 7.9918 2C6.20973 2 4.75989 3.38957 4.75989 5.09773C4.75989 6.05369 5.21435 6.90947 5.9267 7.47826C5.11951 8.25618 3 10.589 3 13.6428C3 13.8402 3.16695 14 3.37266 14H12.6273Z" fill="#B2B9BC"/>
<path d="M9.40698 7.87847L9.47475 7.80493L9.42531 7.75938L9.36446 7.78796L9.40698 7.87847ZM12.2437 13.2857V13.3857H12.35L12.3435 13.2795L12.2437 13.2857ZM3.75632 13.2857L3.65651 13.2795L3.64996 13.3857H3.75632V13.2857ZM10.0526 7.48202L9.99037 7.40375L9.90037 7.47534L9.98376 7.55453L10.0526 7.48202ZM5.9267 7.47826L5.99609 7.55027L6.07812 7.47121L5.98909 7.40012L5.9267 7.47826ZM6.5274 7.96586C6.96978 8.17473 7.46578 8.29546 7.9918 8.29546V8.09546C7.49673 8.09546 7.02977 7.98189 6.61279 7.78501L6.5274 7.96586ZM7.9918 8.29546C8.51512 8.29546 9.00883 8.17602 9.44951 7.96898L9.36446 7.78796C8.94913 7.9831 8.48436 8.09546 7.9918 8.09546V8.29546ZM9.33922 7.95201C9.88252 8.45262 11.975 10.5518 12.1439 13.2918L12.3435 13.2795C12.1695 10.4552 10.0219 8.30904 9.47475 7.80493L9.33922 7.95201ZM12.2437 13.1857H3.75632V13.3857H12.2437V13.1857ZM3.85613 13.2918C4.02294 10.5868 6.06053 8.4904 6.6385 7.94838L6.50169 7.80249C5.91957 8.34841 3.82844 10.4916 3.65651 13.2795L3.85613 13.2918ZM5.60522 5.09773C5.60522 3.8427 6.67179 2.81434 7.9918 2.81434V2.61434C6.5694 2.61434 5.40522 3.72435 5.40522 5.09773H5.60522ZM7.9918 2.81434C9.31183 2.81434 10.3786 3.84271 10.3786 5.09773H10.5786C10.5786 3.72434 9.41419 2.61434 7.9918 2.61434V2.81434ZM10.3786 5.09773C10.3786 6.35275 9.31183 7.38112 7.9918 7.38112V7.58112C9.41419 7.58112 10.5786 6.47112 10.5786 5.09773H10.3786ZM7.9918 7.38112C6.67179 7.38112 5.60522 6.35276 5.60522 5.09773H5.40522C5.40522 6.47111 6.5694 7.58112 7.9918 7.58112V7.38112ZM12.6273 14.1C12.8844 14.1 13.1 13.8994 13.1 13.6428H12.9C12.9 13.781 12.7821 13.9 12.6273 13.9V14.1ZM13.1 13.6428C13.1 10.5194 10.9172 8.16512 10.1215 7.4095L9.98376 7.55453C10.7726 8.30366 12.9 10.6072 12.9 13.6428H13.1ZM10.1149 7.56028C10.8518 6.97418 11.3239 6.08862 11.3239 5.09773H11.1239C11.1239 6.02305 10.6833 6.85262 9.99037 7.40375L10.1149 7.56028ZM11.3239 5.09773C11.3239 3.33038 9.82524 1.9 7.9918 1.9V2.1C9.72287 2.1 11.1239 3.44876 11.1239 5.09773H11.3239ZM7.9918 1.9C6.15855 1.9 4.65989 3.33038 4.65989 5.09773H4.85989C4.85989 3.44875 6.26092 2.1 7.9918 2.1V1.9ZM4.65989 5.09773C4.65989 6.08642 5.13006 6.97014 5.8643 7.55641L5.98909 7.40012C5.29864 6.84881 4.85989 6.02097 4.85989 5.09773H4.65989ZM5.8573 7.40626C5.04669 8.18748 2.9 10.5456 2.9 13.6428H3.1C3.1 10.6325 5.19233 8.32488 5.99609 7.55027L5.8573 7.40626ZM2.9 13.6428C2.9 13.8994 3.1158 14.1 3.37266 14.1V13.9C3.2181 13.9 3.1 13.7809 3.1 13.6428H2.9ZM3.37266 14.1H12.6273V13.9H3.37266V14.1Z" fill="#B2B9BC"/>
</svg>
