<svg width="404" height="379" viewBox="0 0 404 379" fill="none" xmlns="http://www.w3.org/2000/svg">
<path opacity="0.514951" fill-rule="evenodd" clip-rule="evenodd" d="M249 328C186.678 290.001 129.863 250.998 67.5418 213L65 219L0 262.5C0 262.5 121.5 340 186 378.5L249 328Z" fill="url(#paint0_linear_0_3123)"/>
<mask id="mask0_0_3123" style="mask-type:alpha" maskUnits="userSpaceOnUse" x="359" y="217" width="45" height="32">
<path fill-rule="evenodd" clip-rule="evenodd" d="M359.785 217.987H404V248.023H359.785V217.987Z" fill="white"/>
</mask>
<g mask="url(#mask0_0_3123)">
<path fill-rule="evenodd" clip-rule="evenodd" d="M381.43 240.106L359.785 222.72L370.059 217.987L404 235.966L381.311 248.023L381.43 240.106Z" fill="#F8F7F6"/>
</g>
<path fill-rule="evenodd" clip-rule="evenodd" d="M381.445 237.137L381.278 250.858L246.834 328L246.999 314.282L381.445 237.137Z" fill="#C1C6CE"/>
<path fill-rule="evenodd" clip-rule="evenodd" d="M246.999 314.282L246.834 328L61.7734 220.78L61.9385 207.062L246.999 314.282Z" fill="#D6D9DC"/>
<path fill-rule="evenodd" clip-rule="evenodd" d="M381.444 237.137L246.999 314.283L61.9385 207.063L196.382 129.918L381.444 237.137Z" fill="#F8F7F6"/>
<mask id="mask1_0_3123" style="mask-type:alpha" maskUnits="userSpaceOnUse" x="46" y="126" width="327" height="175">
<path fill-rule="evenodd" clip-rule="evenodd" d="M46 126.425H372.044V300.049H46V126.425Z" fill="white"/>
</mask>
<g mask="url(#mask1_0_3123)">
<path fill-rule="evenodd" clip-rule="evenodd" d="M372.044 233.644L224.225 300.049L46 207.319L186.982 126.425L372.044 233.644Z" fill="#F8F7F6"/>
</g>
<path fill-rule="evenodd" clip-rule="evenodd" d="M381.459 222.296L381.292 236.015L246.85 313.158L247.015 299.437L381.459 222.296Z" fill="#C1C6CE"/>
<path fill-rule="evenodd" clip-rule="evenodd" d="M247.016 299.437L246.85 313.158L61.79 205.937L61.954 192.221L247.016 299.437Z" fill="#D6D9DC"/>
<path fill-rule="evenodd" clip-rule="evenodd" d="M210.28 285.995L61.8018 203.189L61.9299 197.46L210.28 285.995Z" fill="#C1C6CE"/>
<path fill-rule="evenodd" clip-rule="evenodd" d="M381.46 222.296L247.016 299.437L61.9551 192.221L196.397 115.077L381.46 222.296Z" fill="#F8FAFB"/>
<path fill-rule="evenodd" clip-rule="evenodd" d="M381.312 248.023L276.892 303.512L381.431 240.107L381.312 248.023Z" fill="#F8F7F6"/>
<path fill-rule="evenodd" clip-rule="evenodd" d="M351.547 94.5921V152.293L296.952 120.709V63.1401L351.547 94.5921Z" fill="#A5BFD1"/>
<path fill-rule="evenodd" clip-rule="evenodd" d="M288.384 61.3413V116.686L233.79 85.1008V29.8894L288.384 61.3413Z" fill="#D9E1E1"/>
<path fill-rule="evenodd" clip-rule="evenodd" d="M281.257 87.4111V90.0401L242.869 67.7342V65.2375L281.257 87.4111Z" fill="#F2F1F0"/>
<path fill-rule="evenodd" clip-rule="evenodd" d="M281.257 93.738V96.367L242.869 74.0612V71.5645L281.257 93.738Z" fill="#F2F1F0"/>
<path fill-rule="evenodd" clip-rule="evenodd" d="M271.122 95.3856V101.497L250.893 89.4963V83.5173L271.122 95.3856Z" fill="#B2B9BC"/>
<path fill-rule="evenodd" clip-rule="evenodd" d="M342.597 117.697V120.325L304.209 98.0196V95.5229L342.597 117.697Z" fill="#FFFFFE"/>
<path fill-rule="evenodd" clip-rule="evenodd" d="M281.257 80.6809V83.3098L242.869 61.004V58.5073L281.257 80.6809Z" fill="#F2F1F0"/>
<path fill-rule="evenodd" clip-rule="evenodd" d="M342.597 110.967V113.595L304.209 91.2897V88.793L342.597 110.967Z" fill="#FFFFFE"/>
<path fill-rule="evenodd" clip-rule="evenodd" d="M342.597 124.024V126.653L304.209 104.347V101.85L342.597 124.024Z" fill="#FFFFFE"/>
<path fill-rule="evenodd" clip-rule="evenodd" d="M342.597 129.79V132.419L304.209 110.113V107.616L342.597 129.79Z" fill="#FFFFFE"/>
<path fill-rule="evenodd" clip-rule="evenodd" d="M341.649 84.9866C341.649 93.7808 334.388 99.0283 325.431 96.7076C316.474 94.3869 309.213 85.3764 309.213 76.5822C309.213 67.788 316.474 62.5405 325.431 64.8612C334.388 67.1819 341.649 76.1924 341.649 84.9866Z" fill="#FFFFFE"/>
<path fill-rule="evenodd" clip-rule="evenodd" d="M341.649 84.9866C341.649 93.7808 334.388 99.0283 325.431 96.7076C316.474 94.3869 309.213 85.3764 309.213 76.5822C309.213 67.788 316.474 62.5405 325.431 64.8612C334.388 67.1819 341.649 76.1924 341.649 84.9866Z" stroke="#A5BFD1" stroke-width="0.655"/>
<path fill-rule="evenodd" clip-rule="evenodd" d="M278.726 50.4949C278.726 59.2891 271.465 64.5366 262.509 62.2159C253.551 59.8952 246.29 50.8847 246.29 42.0905C246.29 33.2963 253.551 28.0488 262.509 30.3695C271.465 32.6902 278.726 41.7007 278.726 50.4949Z" fill="#FFFFFE"/>
<path fill-rule="evenodd" clip-rule="evenodd" d="M278.726 50.4949C278.726 59.2891 271.465 64.5366 262.509 62.2159C253.551 59.8952 246.29 50.8847 246.29 42.0905C246.29 33.2963 253.551 28.0488 262.509 30.3695C271.465 32.6902 278.726 41.7007 278.726 50.4949Z" stroke="#D9E1E1" stroke-width="0.655"/>
<path fill-rule="evenodd" clip-rule="evenodd" d="M331.477 129.965V136.076L311.247 124.076V118.097L331.477 129.965Z" fill="#E48F29"/>
<path fill-rule="evenodd" clip-rule="evenodd" d="M255.625 41.4149C255.625 41.1907 255.597 40.9722 255.54 40.7583C255.485 40.5455 255.406 40.3477 255.307 40.166C255.208 39.9843 255.09 39.8222 254.954 39.6784C254.816 39.5347 254.666 39.4174 254.502 39.3277C254.33 39.2334 254.172 39.1828 254.03 39.177C253.888 39.1701 253.767 39.2035 253.668 39.2759C253.566 39.3472 253.489 39.4576 253.434 39.6048C253.379 39.752 253.352 39.9314 253.352 40.143C253.352 40.3707 253.378 40.5869 253.429 40.7951C253.479 41.0021 253.552 41.193 253.647 41.3689C253.743 41.546 253.859 41.7024 253.996 41.8416C254.133 41.9796 254.285 42.0958 254.455 42.1889C254.643 42.2924 254.81 42.3442 254.954 42.3442C255.098 42.3453 255.221 42.3085 255.32 42.2315C255.418 42.1556 255.494 42.0463 255.546 41.9049C255.598 41.7622 255.625 41.5989 255.625 41.4149ZM254.224 42.7501C254.014 42.6351 253.813 42.4799 253.624 42.2855C253.434 42.0912 253.268 41.8669 253.125 41.6127C252.982 41.3586 252.868 41.0791 252.783 40.7767C252.698 40.4742 252.656 40.1568 252.656 39.8256C252.656 39.5105 252.701 39.2414 252.794 39.0171C252.884 38.7929 253.012 38.6227 253.176 38.5088C253.341 38.395 253.536 38.3421 253.762 38.349C253.99 38.357 254.239 38.4352 254.511 38.5836C254.778 38.7308 255.022 38.9217 255.241 39.1552C255.461 39.3898 255.648 39.652 255.804 39.9418C255.961 40.2316 256.082 40.5432 256.166 40.8733C256.252 41.2045 256.293 41.5426 256.293 41.8876C256.293 42.0946 256.278 42.2832 256.248 42.4534C256.218 42.6225 256.174 42.78 256.118 42.9261C256.06 43.0721 255.992 43.2101 255.912 43.3424C255.833 43.4746 255.741 43.6069 255.64 43.738L254.275 45.5205C254.242 45.5654 254.193 45.5907 254.131 45.5941C254.068 45.5987 253.997 45.578 253.916 45.5343L253.274 45.1813L254.979 43.2504C255.037 43.1848 255.09 43.1216 255.14 43.0618C255.189 43.002 255.236 42.941 255.281 42.8778C255.137 42.9468 254.976 42.9709 254.796 42.9479C254.616 42.9272 254.425 42.8605 254.224 42.7501Z" fill="#5E666A"/>
<path fill-rule="evenodd" clip-rule="evenodd" d="M256.954 46.6492C256.954 46.5618 256.966 46.4871 256.991 46.4238C257.016 46.3606 257.05 46.3123 257.093 46.2789C257.137 46.2456 257.188 46.2283 257.248 46.2283C257.308 46.2272 257.371 46.2456 257.439 46.2824C257.507 46.3203 257.571 46.3721 257.631 46.4388C257.691 46.5043 257.743 46.5779 257.788 46.6596C257.832 46.7412 257.866 46.8263 257.891 46.9172C257.916 47.008 257.929 47.0966 257.929 47.184C257.929 47.2748 257.916 47.3496 257.891 47.4117C257.866 47.4738 257.832 47.5209 257.788 47.5531C257.743 47.5865 257.691 47.6014 257.631 47.6014C257.571 47.5991 257.507 47.5807 257.439 47.5428C257.371 47.506 257.308 47.4554 257.248 47.391C257.188 47.3254 257.137 47.253 257.093 47.1725C257.05 47.092 257.016 47.0069 256.991 46.9183C256.966 46.8286 256.954 46.7401 256.954 46.6492Z" fill="#5E666A"/>
<path fill-rule="evenodd" clip-rule="evenodd" d="M261.812 44.8114C261.812 44.5872 261.784 44.3687 261.728 44.1548C261.673 43.942 261.594 43.7442 261.495 43.5625C261.395 43.3808 261.278 43.2186 261.141 43.0749C261.004 42.9311 260.854 42.8138 260.69 42.7241C260.518 42.6298 260.36 42.5792 260.218 42.5735C260.076 42.5666 259.954 42.5999 259.855 42.6724C259.754 42.7437 259.676 42.8541 259.622 43.0013C259.567 43.1485 259.54 43.3279 259.54 43.5395C259.54 43.7672 259.565 43.9834 259.616 44.1916C259.667 44.3986 259.74 44.5895 259.834 44.7654C259.93 44.9425 260.047 45.0989 260.183 45.2381C260.32 45.3761 260.473 45.4922 260.643 45.5854C260.831 45.6889 260.997 45.7406 261.141 45.7406C261.286 45.7418 261.408 45.705 261.507 45.6279C261.606 45.552 261.682 45.4428 261.734 45.3013C261.786 45.1587 261.812 44.9954 261.812 44.8114ZM260.412 46.1466C260.2 46.0316 260.001 45.8763 259.811 45.682C259.622 45.4876 259.456 45.2634 259.313 45.0092C259.169 44.7551 259.055 44.4756 258.971 44.1732C258.885 43.8707 258.844 43.5533 258.844 43.2221C258.844 42.907 258.889 42.6379 258.981 42.4136C259.071 42.1894 259.199 42.0192 259.363 41.9053C259.528 41.7915 259.724 41.7386 259.95 41.7455C260.177 41.7535 260.427 41.8317 260.698 41.9801C260.966 42.1273 261.21 42.3182 261.429 42.5516C261.648 42.7862 261.835 43.0484 261.991 43.3382C262.148 43.6281 262.269 43.9397 262.354 44.2698C262.439 44.601 262.481 44.9391 262.481 45.2841C262.481 45.4911 262.466 45.6797 262.436 45.8499C262.406 46.0189 262.362 46.1765 262.305 46.3226C262.247 46.4686 262.179 46.6066 262.1 46.7389C262.02 46.8711 261.929 47.0034 261.827 47.1345L260.462 48.917C260.429 48.9619 260.381 48.9872 260.318 48.9906C260.256 48.9952 260.184 48.9745 260.103 48.9308L259.461 48.5777L261.167 46.6469C261.225 46.5813 261.278 46.5181 261.327 46.4583C261.377 46.3985 261.423 46.3375 261.468 46.2743C261.325 46.3433 261.163 46.3674 260.983 46.3444C260.803 46.3237 260.613 46.257 260.412 46.1466Z" fill="#5E666A"/>
<path fill-rule="evenodd" clip-rule="evenodd" d="M266.377 48.7782C266.377 48.2285 266.341 47.7478 266.27 47.3349C266.198 46.9232 266.101 46.569 265.98 46.2758C265.859 45.9814 265.718 45.741 265.56 45.5547C265.4 45.3684 265.234 45.2281 265.062 45.1338C264.891 45.0395 264.725 44.9981 264.566 45.0096C264.407 45.0211 264.268 45.1073 264.148 45.2695C264.027 45.4317 263.932 45.6789 263.86 46.0124C263.788 46.3471 263.753 46.7887 263.753 47.3372C263.753 47.887 263.788 48.3665 263.86 48.7771C263.932 49.1876 264.027 49.5407 264.148 49.8339C264.268 50.1283 264.407 50.3675 264.566 50.5539C264.725 50.7402 264.891 50.8805 265.062 50.9748C265.234 51.0691 265.4 51.1105 265.56 51.099C265.718 51.0875 265.859 51.0012 265.98 50.8402C266.101 50.6792 266.198 50.4319 266.27 50.0996C266.341 49.7672 266.377 49.3268 266.377 48.7782ZM267.1 49.175C267.1 49.804 267.048 50.3204 266.942 50.7229C266.837 51.1254 266.692 51.4267 266.51 51.628C266.327 51.8292 266.112 51.935 265.862 51.9465C265.613 51.9557 265.347 51.8833 265.062 51.728C264.776 51.5705 264.509 51.3508 264.263 51.0679C264.017 50.785 263.802 50.4434 263.619 50.0421C263.436 49.6396 263.293 49.1807 263.189 48.6632C263.084 48.1457 263.032 47.5718 263.032 46.9428C263.032 46.3126 263.084 45.7951 263.189 45.3914C263.293 44.9866 263.436 44.683 263.619 44.4794C263.802 44.277 264.017 44.1701 264.263 44.1574C264.509 44.1459 264.776 44.2184 265.062 44.3759C265.347 44.5323 265.613 44.752 265.862 45.036C266.112 45.3201 266.327 45.6628 266.51 46.0665C266.692 46.4701 266.837 46.9313 266.942 47.4511C267.048 47.9709 267.1 48.5459 267.1 49.175Z" fill="#5E666A"/>
<path fill-rule="evenodd" clip-rule="evenodd" d="M270.816 52.7663C270.816 52.5984 270.792 52.442 270.743 52.2948C270.696 52.1476 270.629 52.0073 270.546 51.8751C270.463 51.7417 270.365 51.6129 270.253 51.4875C270.141 51.3633 270.021 51.2379 269.894 51.1149L269.76 53.5426C269.929 53.615 270.081 53.6507 270.212 53.6472C270.344 53.6449 270.455 53.6093 270.545 53.5414C270.634 53.4736 270.702 53.3735 270.748 53.2436C270.793 53.1125 270.816 52.9538 270.816 52.7663ZM268.646 48.2398C268.646 48.4008 268.667 48.5526 268.712 48.6964C268.756 48.839 268.818 48.977 268.896 49.1104C268.973 49.2438 269.066 49.3726 269.17 49.4968C269.274 49.621 269.387 49.7441 269.51 49.8648L269.627 47.6648C269.457 47.5912 269.312 47.5544 269.187 47.5533C269.063 47.5521 268.962 47.5797 268.882 47.6372C268.803 47.6936 268.744 47.7741 268.704 47.8776C268.665 47.9822 268.646 48.103 268.646 48.2398ZM269.278 54.0268C268.964 53.8163 268.676 53.5598 268.417 53.2539C268.157 52.9492 267.933 52.6203 267.746 52.2661L267.954 51.9682C267.971 51.9418 267.998 51.9257 268.031 51.9211C268.066 51.9165 268.101 51.9234 268.136 51.9429C268.186 51.9705 268.243 52.0338 268.305 52.1315C268.367 52.2293 268.445 52.3443 268.536 52.4765C268.627 52.6088 268.736 52.7479 268.863 52.894C268.99 53.0412 269.141 53.1757 269.319 53.2999L269.463 50.7124C269.281 50.5422 269.102 50.3639 268.925 50.1788C268.749 49.9925 268.591 49.7901 268.452 49.5716C268.312 49.3519 268.2 49.1116 268.116 48.8482C268.03 48.5848 267.989 48.2904 267.989 47.965C267.989 47.72 268.026 47.5015 268.099 47.3083C268.174 47.1163 268.283 46.9679 268.425 46.8644C268.566 46.7621 268.743 46.7103 268.95 46.708C269.159 46.7069 269.399 46.7805 269.671 46.93L269.709 46.2181C269.715 46.1572 269.734 46.1112 269.768 46.079C269.802 46.0479 269.847 46.0479 269.905 46.079L270.163 46.2204L270.108 47.1853C270.382 47.3785 270.619 47.5993 270.816 47.8454C271.014 48.0915 271.191 48.3537 271.348 48.6343L271.18 48.8724C271.128 48.9448 271.068 48.9621 271 48.9253C270.963 48.9046 270.919 48.8597 270.865 48.7884C270.812 48.7171 270.747 48.6331 270.672 48.5365C270.596 48.4399 270.509 48.3364 270.41 48.226C270.31 48.1168 270.197 48.0156 270.069 47.9213L269.94 50.2823C270.128 50.4582 270.313 50.6411 270.495 50.8285C270.678 51.016 270.843 51.2184 270.988 51.4369C271.135 51.6543 271.253 51.8912 271.341 52.1476C271.433 52.4041 271.477 52.6858 271.477 52.9952C271.477 53.2976 271.438 53.5598 271.36 53.7829C271.281 54.0049 271.167 54.1763 271.017 54.2947C270.868 54.4155 270.683 54.4776 270.466 54.4845C270.248 54.4902 270 54.4178 269.722 54.2648L269.674 55.1377C269.668 55.1986 269.649 55.2435 269.613 55.2722C269.578 55.301 269.533 55.301 269.479 55.2711L269.221 55.1296L269.278 54.0268Z" fill="#5E666A"/>
<path fill-rule="evenodd" clip-rule="evenodd" d="M324.036 85.3256C324.036 84.9116 324.159 84.6402 324.403 84.5114C324.647 84.3826 324.96 84.4286 325.341 84.6482C325.723 84.8667 326.035 85.1807 326.28 85.5901C326.524 86.0007 326.646 86.4124 326.646 86.8264C326.646 87.2346 326.527 87.5026 326.288 87.6314C326.049 87.7602 325.733 87.7119 325.341 87.4853C324.95 87.2611 324.633 86.9471 324.394 86.5435C324.156 86.1398 324.036 85.7338 324.036 85.3256ZM324.269 82.6069C324.269 81.7387 324.361 81.0981 324.544 80.6876C324.727 80.2781 325.06 79.9619 325.546 79.7422C326.033 79.5214 326.356 79.2995 326.517 79.0787C326.678 78.8579 326.759 78.5727 326.759 78.2254C326.759 77.1754 326.34 76.4083 325.503 75.9265C325.105 75.6976 324.787 75.6562 324.548 75.8023C324.309 75.9483 324.184 76.2657 324.174 76.7579L321.838 75.4147C321.848 74.2348 322.18 73.4965 322.832 73.2009C323.484 72.9065 324.375 73.0825 325.503 73.7299C326.641 74.3854 327.524 75.2112 328.152 76.2094C328.78 77.2076 329.095 78.2863 329.095 79.4478C329.095 79.9757 328.993 80.4161 328.789 80.7669C328.584 81.1188 328.227 81.4339 327.717 81.7111L327.065 82.0538C326.657 82.2723 326.424 82.669 326.364 83.2429L326.332 83.7938L324.269 82.6069Z" fill="#E48F29"/>
<path fill-rule="evenodd" clip-rule="evenodd" d="M200.627 88.053C200.627 87.5845 200.765 87.2774 201.041 87.1317C201.317 86.9859 201.67 87.038 202.1 87.2865C202.532 87.5338 202.884 87.8891 203.16 88.3523C203.436 88.8169 203.573 89.2828 203.573 89.7513C203.573 90.2133 203.439 90.5165 203.169 90.6622C202.899 90.808 202.543 90.7533 202.1 90.497C201.658 90.2432 201.301 89.8879 201.031 89.4312C200.762 88.9744 200.627 88.515 200.627 88.053ZM200.89 84.9766C200.89 83.9941 200.993 83.2693 201.201 82.8047C201.407 82.3414 201.783 81.9835 202.332 81.735C202.881 81.4851 203.246 81.2339 203.429 80.9841C203.61 80.7342 203.701 80.4115 203.701 80.0185C203.701 78.8303 203.228 77.9623 202.283 77.4171C201.834 77.1581 201.474 77.1113 201.204 77.2765C200.935 77.4418 200.794 77.801 200.782 78.358L198.145 76.838C198.156 75.5028 198.53 74.6673 199.267 74.3329C200.004 73.9997 201.009 74.1988 202.283 74.9315C203.568 75.6733 204.565 76.6076 205.275 77.7372C205.984 78.8668 206.339 80.0874 206.339 81.4018C206.339 81.9991 206.224 82.4976 205.993 82.8945C205.762 83.2927 205.359 83.6493 204.783 83.9629L204.047 84.3507C203.586 84.5979 203.323 85.0469 203.255 85.6963L203.219 86.3196L200.89 84.9766Z" fill="#E48F29"/>
<path fill-rule="evenodd" clip-rule="evenodd" d="M209.005 94.5222L204.632 104.383L202.241 105.77L206.614 95.9095L209.005 94.5222Z" fill="#F8F7F6"/>
<path fill-rule="evenodd" clip-rule="evenodd" d="M191.617 56.3266C192.498 55.8148 193.719 55.888 195.067 56.6633L219.468 70.7266C222.145 72.2688 224.308 76.0095 224.299 79.0785L224.257 96.6207C224.252 98.1458 223.713 99.2187 222.843 99.7237L219.719 101.536C220.589 101.031 221.129 99.9584 221.133 98.4332L221.175 80.8911C221.184 77.8203 219.022 74.0813 216.344 72.5391L191.943 58.4758C190.595 57.6988 189.376 57.6274 188.493 58.1375L191.617 56.3266Z" fill="#00226D"/>
<path fill-rule="evenodd" clip-rule="evenodd" d="M191.942 58.4754C189.266 56.9333 187.087 58.1711 187.079 61.2418L187.036 78.7823C187.028 81.853 189.191 85.5937 191.867 87.1359L198.401 90.9021L204.023 110.316L209.736 97.4347L216.271 101.199C218.947 102.741 221.124 101.504 221.134 98.4328L221.176 80.8907C221.185 77.8216 219.022 74.0809 216.346 72.537L191.942 58.4754Z" fill="url(#paint1_linear_0_3123)"/>
<path fill-rule="evenodd" clip-rule="evenodd" d="M201.914 87.1693C201.914 86.5571 202.095 86.1559 202.456 85.9654C202.815 85.775 203.277 85.843 203.839 86.1678C204.403 86.4908 204.863 86.955 205.224 87.5603C205.585 88.1673 205.764 88.7761 205.764 89.3882C205.764 89.9918 205.589 90.388 205.236 90.5784C204.883 90.7688 204.418 90.6974 203.839 90.3624C203.262 90.0309 202.795 89.5667 202.442 88.9699C202.091 88.3731 201.914 87.7729 201.914 87.1693ZM202.258 83.1497C202.258 81.866 202.393 80.9189 202.664 80.3119C202.933 79.7066 203.425 79.239 204.142 78.9142C204.859 78.5878 205.336 78.2596 205.575 77.9332C205.812 77.6067 205.931 77.185 205.931 76.6715C205.931 75.1191 205.313 73.985 204.078 73.2726C203.492 72.9342 203.021 72.873 202.669 73.089C202.316 73.3049 202.132 73.7742 202.117 74.5019L198.671 72.516C198.686 70.7714 199.175 69.6798 200.138 69.2429C201.1 68.8076 202.413 69.0677 204.078 70.025C205.757 70.9942 207.06 72.215 207.987 73.6909C208.914 75.1667 209.377 76.7616 209.377 78.479C209.377 79.2594 209.227 79.9106 208.926 80.4292C208.624 80.9495 208.098 81.4154 207.345 81.8252L206.382 82.3319C205.781 82.6549 205.437 83.2415 205.348 84.09L205.301 84.9044L202.258 83.1497Z" fill="#00226D"/>
<path opacity="0.514951" fill-rule="evenodd" clip-rule="evenodd" d="M205.5 225C194 222 184.104 225.497 182 227L163.5 238.5L181 249.5C181 249.5 192.006 239.53 197.5 235C199.154 233.636 193.527 233.623 196.5 231.5C200 229 205.5 225 205.5 225Z" fill="url(#paint2_linear_0_3123)"/>
<path fill-rule="evenodd" clip-rule="evenodd" d="M215.584 127.461C214.602 125.145 211.985 121.642 210.113 121.281C207.958 120.866 207.715 120.511 207.13 120.827C205.632 121.635 207.054 122.223 206.998 122.633C206.935 123.093 206.577 122.904 205.875 123.829C205.302 124.581 206.048 124.622 206.034 124.964C206.022 125.244 205.667 125.289 205.736 125.604C205.761 125.719 205.881 125.79 205.894 125.916C205.923 126.228 205.605 126.143 205.809 127.006C206.001 127.826 207.735 126.639 209.129 127.904C209.478 128.219 209.764 128.595 210.083 128.938C210.473 129.356 210.914 129.726 211.393 130.037C211.799 130.301 212.646 130.78 212.831 130.935L215.584 127.461Z" fill="#F1C2A9"/>
<path fill-rule="evenodd" clip-rule="evenodd" d="M197.188 221.652C199.738 220.804 202.355 220.637 204.973 220.159C205.503 220.063 206.06 219.975 206.575 220.136C207.876 220.543 208.378 222.801 208.082 223.929C207.872 224.727 207.253 225.362 206.554 225.804C205.509 226.468 204.08 226.949 202.841 227.008C201.514 227.069 200.271 227.354 199.133 228.069C197.661 228.995 196.574 230.019 194.754 229.965C192.929 229.909 191.536 228.657 191.659 226.779C191.702 226.106 191.888 225.452 192.073 224.805C192.496 223.337 191.944 223.395 197.188 221.652Z" fill="#1E2425"/>
<path fill-rule="evenodd" clip-rule="evenodd" d="M185.386 223.338C185.477 223.228 185.564 223.113 185.649 222.995C186.728 221.468 189.762 219.893 190.55 219.899C191.801 219.907 192.578 221.411 192.379 222.645C192.286 223.216 192.056 223.756 191.929 224.322C191.07 228.209 194.027 228.385 196.878 230.414C197.393 230.779 197.916 231.172 198.222 231.725C198.947 233.025 197.856 235.005 196.69 235.662C195.971 236.069 195.083 236.067 194.278 235.874C193.072 235.587 191.732 234.899 190.827 234.052C189.859 233.144 188.79 232.452 187.482 232.134C185.238 231.591 182.461 231.168 182.027 228.355C181.911 227.604 182.18 226.834 182.606 226.204C183.36 225.086 184.533 224.362 185.386 223.338Z" fill="#363D3F"/>
<path fill-rule="evenodd" clip-rule="evenodd" d="M194.693 166.152C195.698 167.166 199.494 165.3 199.546 164.801C204.058 161.31 203.522 175.254 202.226 180.793C201.53 183.781 201.712 186.89 201.298 189.924C200.835 193.305 200.122 196.652 199.162 199.927C198.956 200.635 198.723 201.367 198.217 201.901C197.172 203.01 195.402 202.903 193.898 202.658C192.595 202.444 191.138 202.077 190.496 200.925C190.1 200.216 190.112 199.36 190.117 198.549C190.131 196.41 190.144 194.2 189.718 192.098C187.58 181.569 186.366 178.2 187.858 168.652C188.151 166.781 187.526 163.275 190.189 162.896C192.597 162.555 194.024 165.475 194.693 166.152Z" fill="#3B5165"/>
<path fill-rule="evenodd" clip-rule="evenodd" d="M200.068 193.941L200.815 190.81C200.517 191.842 200.27 192.888 200.068 193.941Z" fill="#C84D33"/>
<path fill-rule="evenodd" clip-rule="evenodd" d="M198.623 198.745C197.85 197.678 195.936 197.734 195.296 198.017C194.793 198.24 191.131 196.142 190.053 195.333C190.135 195.394 189.99 196.281 189.982 196.414C189.957 196.784 189.935 197.156 189.917 197.527C189.716 201.113 189.672 204.801 189.895 208.428C189.974 209.736 190.196 211.052 190.088 212.349C190.036 212.962 190.111 212.941 190.574 216.627C191.402 223.244 191.381 224.66 192.278 225.53C193.76 226.967 196.763 227.048 198.502 224.985C199.793 223.455 198.876 217.754 198.861 207.554C198.857 203.934 199.05 200.289 199.736 196.744L198.623 198.745Z" fill="#3B5165"/>
<path fill-rule="evenodd" clip-rule="evenodd" d="M201.662 167.127C202.093 166.905 204.312 165.794 204.294 165.192C204.282 164.789 205.373 164.453 205.655 164.458C206.164 164.467 206.676 164.794 207.087 165.087C209.589 166.871 210.015 170.226 210.186 173.287C210.677 182.131 209.971 191.455 207.796 200.779C207.506 202.018 207.25 202.404 206.208 203.059C203.972 204.465 199.945 204.278 198.346 201.753C196.624 199.034 197.341 194.802 196.79 191.746C195.426 184.15 189.413 182.21 191.328 170.65C191.576 169.158 192.037 165.588 193.56 164.715C193.966 164.484 196.706 163.861 198.923 166.059C200.217 167.342 200.066 167.947 201.662 167.127Z" fill="#54677E"/>
<path fill-rule="evenodd" clip-rule="evenodd" d="M191.863 226.892C190.689 227.393 188.928 226.573 187.994 225.918C187.256 225.402 185.869 224.394 185.537 223.53C185.202 222.661 185.719 221.323 186.011 220.507C187.634 215.999 191.95 208.155 194.376 204.005C196.241 200.815 197.728 197.512 199.413 194.228C199.599 193.867 200.02 193.612 200.406 193.572C200.907 193.521 207.063 200.741 207.382 201.98C192.096 226.163 193.718 226.099 191.863 226.892Z" fill="#54677E"/>
<path fill-rule="evenodd" clip-rule="evenodd" d="M186.197 147.051C184.866 139.481 181.528 129.567 187.47 126.213C191.975 123.672 195.735 126.739 199.959 128.258C202.735 129.256 205.396 130.564 207.881 132.15C208.747 132.702 209.632 133.079 210.215 133.939C210.831 134.85 211.161 135.834 211.225 136.935C211.296 138.186 211.066 139.43 210.856 140.664C209.99 145.794 209.439 150.992 209.442 156.198C209.444 160.561 209.932 164.892 210.067 169.25C210.097 170.221 210.148 171.231 209.947 172.19C209.741 173.173 209.19 173.449 208.292 173.864C206.559 174.668 204.618 174.9 202.736 175.088C197.936 175.57 192.793 175.779 188.612 173.376C188.008 173.03 187.179 172.513 186.888 171.84C186.586 171.143 186.848 170.256 186.824 169.489C186.6 161.764 187.584 154.904 186.197 147.051Z" fill="#B26CC9"/>
<path fill-rule="evenodd" clip-rule="evenodd" d="M202.768 124.537C202.935 123.382 203.809 123.65 203.367 122.604C202.992 121.717 202.422 120.899 201.659 120.31C200.895 119.72 199.931 119.372 198.967 119.424C198.635 119.443 198.413 119.632 198.083 119.633C197.175 119.637 196.259 119.463 195.352 119.595C194.448 119.725 193.613 119.791 193.613 120.808C193.614 122.166 193.677 123.471 193.241 124.806C193.009 125.518 192.657 126.205 192.595 126.952C192.472 128.421 193.546 129.79 194.876 130.432C196.51 131.22 198.357 131.147 200.095 130.896C200.967 130.77 202.195 130.596 202.708 129.767C203.092 129.141 202.928 128.322 202.845 127.636C202.721 126.601 202.614 125.578 202.768 124.537Z" fill="#F1C2A9"/>
<path fill-rule="evenodd" clip-rule="evenodd" d="M206.463 110.679C207.012 111.347 207.441 112.098 207.572 112.977C207.866 114.938 207.076 116.954 207.502 118.901C207.915 120.785 207.104 125.068 203.38 126.165C201.496 126.72 197.776 126.07 196.581 125.498C194.974 124.73 193.914 123.177 192.965 121.673C185.185 109.341 201.185 104.27 206.463 110.679Z" fill="#F1C2A9"/>
<path fill-rule="evenodd" clip-rule="evenodd" d="M189.42 116.146C189.47 116.511 189.522 116.876 189.591 117.238C189.645 117.511 189.71 117.782 189.796 118.049C189.867 118.279 189.955 118.502 190.055 118.719C190.424 119.545 190.95 120.3 191.474 121.043C192.235 122.129 193.045 123.144 194.231 123.783C195.895 124.678 197.806 125.109 199.694 125.015C200.669 124.965 201.651 124.775 202.526 124.342C203.402 123.909 204.168 123.22 204.588 122.338C204.935 121.611 205.038 120.778 205.434 120.075C206.069 118.951 207.394 118.264 207.786 117.035C207.969 116.468 207.923 115.856 207.911 115.26C207.887 113.918 208.248 112.644 208.302 111.326C208.377 109.518 206.885 107.733 205.636 106.583C204.965 105.966 204.22 105.407 203.381 105.046C202.643 104.731 201.846 104.573 201.054 104.461C198.703 104.122 196.184 104.178 194.109 105.331C193.561 105.635 193.032 106.035 192.764 106.606C192.707 106.731 192.66 106.868 192.57 106.977C192.45 107.12 192.266 107.193 192.096 107.274C191.531 107.536 191.067 107.868 190.691 108.255C188.787 110.212 189.06 113.545 189.42 116.146Z" fill="#CFB186"/>
<path fill-rule="evenodd" clip-rule="evenodd" d="M203.69 118.069C202.2 117.942 201.79 119.786 202.79 121.234C203.083 121.655 203.604 122.035 203.99 122.375C206.628 124.694 207.341 122.245 206.505 121.456C204.561 119.622 205.568 118.226 203.69 118.069Z" fill="#F1C2A9"/>
<path fill-rule="evenodd" clip-rule="evenodd" d="M203.184 130.376C202.464 131.173 197.911 132.034 194.871 130.91C192.997 130.217 191.79 128.366 192.126 126.492C192.278 125.65 193.214 124.865 193.214 124.865C193.214 124.865 193.139 125.336 193.086 125.7C192.89 127.011 197.929 131.127 202.855 127.72C203.161 128.157 203.906 129.576 203.184 130.376Z" fill="#B26CC9"/>
<path fill-rule="evenodd" clip-rule="evenodd" d="M215.865 126.941C216.311 127.169 226.301 140.974 224.858 145.365C224.572 146.233 223.914 146.006 223.034 146.365C221.463 147.006 219.622 147.086 218.29 146.004C216.953 144.918 216.008 143.724 215.42 142.235C214.06 138.794 212.238 134.733 211.338 131.164C210.36 127.258 215.026 126.514 215.865 126.941Z" fill="#804D90"/>
<path fill-rule="evenodd" clip-rule="evenodd" d="M206.042 131.106C204.586 130.306 199.857 137.615 201.767 140.122C203.106 141.881 223.514 154.494 224.896 145.14C225.738 139.433 205.807 130.977 206.042 131.106Z" fill="#B26CC9"/>
<path opacity="0.623651" fill-rule="evenodd" clip-rule="evenodd" d="M283 246C271.5 243 271.104 241.497 269 243L253 254.5L274.5 260C274.5 260 276 257.5 280 252C281.76 249.58 283 246 283 246Z" fill="url(#paint3_linear_0_3123)"/>
<path fill-rule="evenodd" clip-rule="evenodd" d="M264.674 164.593C266.049 162.322 270.135 155.465 272.021 151.675C272.531 150.655 271.929 149.938 272.064 148.784C272.199 147.619 271.908 146.567 271.433 145.414C271.217 144.892 270.903 144.318 270.34 144.112C269.828 143.925 269.299 144.117 268.858 144.34C266.205 145.685 264.543 148.38 263.692 151.06C262.9 153.552 260.98 157.468 260.209 159.978C260.063 160.455 259.872 160.956 259.834 161.465C259.649 163.886 261.18 165.641 262.984 165.198C263.868 164.981 263.927 165.828 264.674 164.593Z" fill="#91B5D2"/>
<path fill-rule="evenodd" clip-rule="evenodd" d="M253.961 171.942C255.547 171.877 257.296 170.653 258.518 170.005C260.534 168.931 262.56 167.85 264.487 166.62C265.263 166.125 265.073 165.231 265.612 164.421C266.156 163.604 266.331 162.628 266.402 161.472C266.434 160.947 266.41 160.327 266.058 159.849C265.735 159.413 265.257 159.258 264.836 159.178C262.295 158.7 260.003 159.825 258.337 161.399C257.001 162.662 255.451 163.692 254.006 164.823C253.33 165.351 252.656 165.895 252.04 166.489C251.37 167.137 251.237 168.226 251.26 169.151C251.281 170.032 251.614 170.951 252.327 171.472C252.828 171.838 253.385 171.967 253.961 171.942Z" fill="#91B5D2"/>
<path fill-rule="evenodd" clip-rule="evenodd" d="M250.088 169.808C249.382 170.409 248.64 170.939 248.306 171.861C247.992 172.73 248.077 173.79 248.709 174.466C249.342 175.143 250.564 175.251 251.18 174.56C251.557 174.135 251.643 173.537 251.845 173.006C252.116 172.297 252.621 171.677 253.264 171.269C253.614 171.045 254.002 170.882 254.336 170.636C254.67 170.39 254.955 170.028 254.968 169.614C254.996 168.675 253.551 167.795 252.73 167.685C252.397 167.643 252.041 167.686 251.766 167.88C251.501 168.066 251.341 168.363 251.169 168.636C250.874 169.106 250.487 169.469 250.088 169.808Z" fill="#EBBEBC"/>
<path fill-rule="evenodd" clip-rule="evenodd" d="M283.561 145.869C281.663 145.009 280.971 144.539 278.976 144.089C278.653 144.017 277.565 144.425 277.241 144.356C274.816 143.845 272.234 143.959 269.985 144.945C269.961 144.956 269.936 144.969 269.91 144.98V159.806H284.176L283.561 145.869Z" fill="#F8F7F6"/>
<path fill-rule="evenodd" clip-rule="evenodd" d="M282.808 146.508C282.808 146.508 273.786 151.835 273.917 146.91C274.101 140.043 274.491 139.255 277.512 138.191C278.34 137.899 279.205 137.675 280.08 137.658C283.268 137.594 282.034 139.329 281.914 140.538C281.559 144.127 282.751 144.623 282.808 146.508Z" fill="#E6AF91"/>
<path fill-rule="evenodd" clip-rule="evenodd" d="M283.561 145.869C281.663 145.009 280.971 144.539 278.976 144.089C278.653 144.017 277.565 144.425 277.241 144.356C274.816 143.845 272.234 143.959 269.985 144.945C269.961 144.956 269.936 144.969 269.91 144.98V159.806H284.176L283.561 145.869Z" fill="#DAAAA8"/>
<path fill-rule="evenodd" clip-rule="evenodd" d="M281.515 148.116C282.111 147.644 283.56 145.87 283.56 145.87C282.999 145.615 282.548 145.398 282.133 145.201C281.059 146.949 277.667 149.431 274.367 149.015C272.827 148.821 272.32 147.166 270.97 144.617C270.64 144.722 270.303 144.806 269.985 144.945C269.96 144.956 269.936 144.969 269.91 144.981C269.91 144.981 271.612 148.318 272.57 149.272C275.018 151.712 279.748 149.512 281.515 148.116Z" fill="#D5D6E0"/>
<path fill-rule="evenodd" clip-rule="evenodd" d="M272.949 143.836C272.909 143.837 272.87 143.839 272.828 143.841C273.183 143.732 273.386 143.824 272.949 143.836Z" fill="#D5D6E0"/>
<path fill-rule="evenodd" clip-rule="evenodd" d="M291.383 152.717C291.439 153.328 290.6 154.153 290.395 154.864C290.169 155.701 289.885 156.514 289.568 157.316C287.843 161.688 285.143 165.733 284.36 170.364C284.054 172.184 284.054 174.025 284.157 175.855C284.214 176.725 284.36 177.618 284.315 178.477C284.304 178.714 284.36 179.144 284.315 179.347C284.247 179.662 284.088 179.775 283.793 180.002C282.206 181.233 280.323 181.945 278.373 182.283C276.274 182.634 274.005 182.488 271.985 182.149C271.385 182.046 270.817 181.934 270.273 181.809C267.869 181.245 266.066 180.52 265.759 180.295C265.317 179.957 265.509 180.058 265.883 176.861C267.426 163.733 261.608 163.495 263.877 156.626C264.261 155.452 265.056 154.345 265.544 153.169C267.347 148.865 266.212 144.075 272.826 143.837C272.417 143.962 271.805 144.357 271.748 145.453C271.613 148.221 273.313 148.75 273.687 148.875C276.727 149.903 282.183 149.893 283.556 145.871C286.414 147.588 291.075 149.294 291.383 152.717Z" fill="#91B5D2"/>
<path fill-rule="evenodd" clip-rule="evenodd" d="M271.384 143.933C271.342 145.108 271.777 146.727 272.424 147.713C272.887 148.421 273.785 148.796 273.785 148.796L270.202 151.733C270.202 151.733 268.95 148.885 269.418 147C269.625 146.169 270.054 143.941 271.384 143.933Z" fill="#D6D9DC"/>
<path fill-rule="evenodd" clip-rule="evenodd" d="M282.571 144.933C282.658 144.923 282.725 144.95 282.772 145.013C282.787 145.409 282.172 144.6 281.888 144.787C280.947 145.401 280.365 147.226 278.745 148.188C276.407 149.58 273.989 148.881 273.785 148.796C273.697 149.889 274.511 153.42 274.66 153.933C276.466 153.706 279.807 151.525 281.363 150.668C282.275 150.164 283.107 149.384 283.587 148.463C283.869 147.923 284.243 147.317 284.142 146.682C284.102 146.439 283.644 144.834 283.243 145.156L282.571 144.933Z" fill="#D6D9DC"/>
<path fill-rule="evenodd" clip-rule="evenodd" d="M281.464 241.597L282.225 246.632C282.564 246.811 282.781 246.727 282.994 246.54L282.984 240.48L281.464 241.597Z" fill="#21272D"/>
<path fill-rule="evenodd" clip-rule="evenodd" d="M275.709 251.774C275.786 252.006 275.9 252.224 276.068 252.408C276.468 252.85 276.939 253.162 277.541 253.251C277.917 253.307 278.283 253.208 278.642 253.1C279.316 252.897 279.743 252.42 280.096 251.838C280.523 251.134 280.87 250.481 281.039 249.676C281.117 249.309 281.689 246.314 281.893 245.8C282.082 245.323 283.14 241.536 282.965 240.104C282.92 239.739 282.791 239.434 282.499 239.196C282.244 238.988 281.814 238.815 281.492 238.763C281.142 238.706 280.772 238.775 280.424 238.817C280.2 238.845 280.037 238.843 279.829 238.95C279.308 239.219 278.853 238.522 278.488 238.978C278.083 239.484 277.696 240.737 277.366 241.674C277.192 242.163 276.428 245.365 276.169 246.493C275.98 247.314 275.766 248.133 275.657 248.969C275.535 249.897 275.408 250.867 275.709 251.774Z" fill="#21272D"/>
<path fill-rule="evenodd" clip-rule="evenodd" d="M274.785 243.851L274.929 238.001L273.273 237.806L273.554 243.875C273.934 244.16 274.41 244.254 274.785 243.851Z" fill="#21272D"/>
<path fill-rule="evenodd" clip-rule="evenodd" d="M263.648 245.751C263.408 246.288 263.072 246.824 263.083 247.429C263.088 247.7 263.157 247.841 263.381 248.008C263.814 248.331 264.533 248.556 265.053 248.593C265.635 248.633 266.275 248.625 266.841 248.486C267.785 248.256 268.702 247.896 269.534 247.401C270.039 247.099 270.472 246.701 270.731 246.175C270.989 245.65 271.086 245.027 271.17 244.453C271.331 243.348 271.647 242.148 272.572 241.516C272.827 241.342 273.114 241.223 273.375 241.059C275.295 239.861 275.36 237.107 273.993 235.477C273.251 234.593 272.442 234.764 271.528 235.294C270.429 235.931 269.927 236.989 269.162 237.947C269.054 238.083 268.942 238.215 268.822 238.341C267.997 239.203 268.793 234.897 268.393 236.084C267.263 239.424 263.948 245.082 263.648 245.751Z" fill="#21272D"/>
<path fill-rule="evenodd" clip-rule="evenodd" d="M266.57 216.023C267.775 221.12 267.661 220.98 268.28 225.686C268.562 227.825 269.09 235.725 267.015 240.351C266.541 241.408 270.073 238.158 271.035 237.508C271.7 237.057 272.989 235.997 272.969 235.195C272.862 230.664 274.694 225.642 275.238 221.141C275.635 217.852 275.191 211.52 274.149 207.865L266.57 216.023Z" fill="#EBBEBC"/>
<path fill-rule="evenodd" clip-rule="evenodd" d="M267.77 238.42C267.679 238.795 267.5 239.166 267.351 239.521C267.206 239.866 264.774 243.608 265.796 244.122C266.386 244.417 267.602 243.797 267.939 243.455C268.753 242.63 269.031 241.82 269.765 240.925C270.419 240.126 271.392 239.612 272.307 239.164C272.701 238.971 273.07 238.743 273.343 238.391C273.786 237.823 273.995 236.947 273.83 236.257C273.733 235.846 273.618 235.49 273.418 235.115C273.237 234.772 273.033 234.434 272.961 234.046C272.835 233.372 272.775 232.634 272.332 232.077C272.332 232.077 267.856 238.071 267.77 238.42Z" fill="#EBBEBC"/>
<path fill-rule="evenodd" clip-rule="evenodd" d="M274.271 203.398C274.852 211.272 276.986 223.206 277.643 231.072C277.823 233.224 278.106 239.733 277.268 244.433C277.065 245.574 280.094 245.558 281.086 244.954C281.772 244.534 282.489 241.371 282.457 240.57C282.256 235.709 284.599 231.782 285.356 227.312C286.133 222.717 285.356 215.546 283.446 211.293C283.056 210.427 282.49 209.488 281.554 209.317L274.271 203.398Z" fill="#EBBEBC"/>
<path fill-rule="evenodd" clip-rule="evenodd" d="M278.341 240.64C278.222 241.179 277.753 240.013 277.712 240.56C277.667 241.176 277.224 244.005 277.096 244.607C276.939 245.345 276.818 246.321 276.922 247.082C277.014 247.745 277.241 248.35 277.858 248.614C278.577 248.922 279.45 248.373 279.963 247.801C280.511 247.19 280.726 246.689 281.065 245.945C281.369 245.276 281.699 244.587 281.857 243.874C282.169 242.475 282.546 240.903 282.427 239.46C282.415 239.31 282.032 237.428 281.93 237.493C281.68 237.656 281.456 237.865 281.225 238.061C280.328 238.834 279.429 239.607 278.532 240.379C278.194 240.671 278.444 240.168 278.341 240.64Z" fill="#EBBEBC"/>
<path fill-rule="evenodd" clip-rule="evenodd" d="M287.618 205.073C287.038 208.757 286.517 213.63 286.084 217.333C285.746 220.253 277.418 220.656 275.486 220.692C273.931 220.723 266.959 219.916 266.458 218.279C265.81 216.148 265.313 204.432 265.142 201.275C264.812 195.235 264.195 189.269 264.804 183.24C264.812 183.117 264.828 182.999 264.839 182.876C264.852 182.741 264.868 182.603 264.883 182.469C264.899 182.321 264.919 182.175 264.939 182.028C264.96 181.866 264.979 181.699 265.003 181.537C265.098 180.868 265.715 178.197 265.715 178.197C265.715 178.197 266.375 180.626 269.671 181.276C279.912 183.308 284.596 178.043 284.302 177.497C285.145 178.756 285.889 179.866 286.513 180.991C286.52 181.002 286.525 181.01 286.533 181.022C286.593 181.125 286.649 181.232 286.699 181.339C286.819 181.561 286.93 181.783 287.042 182.009C287.83 183.632 288.37 185.387 288.609 187.752C289.026 191.879 288.255 201.009 287.618 205.073Z" fill="#3D4A5A"/>
<path fill-rule="evenodd" clip-rule="evenodd" d="M280.302 140.838C280.441 140.408 280.71 140.08 280.852 139.649C281.205 138.584 281.486 137.487 281.512 136.36C281.554 134.644 281.157 132.901 280.254 131.429C279.667 130.472 278.873 129.651 277.931 129.039C275.544 127.489 272.298 127.367 269.801 128.733C269.126 129.104 268.509 129.57 267.919 130.066C267.41 130.493 266.913 130.954 266.584 131.53C266.365 131.91 266.229 132.327 266.111 132.747C265.98 133.218 265.87 133.701 265.862 134.192C265.831 135.942 266.989 137.396 267.329 139.063C267.501 139.902 267.19 140.7 267.292 141.559C267.384 142.314 267.671 143.03 268.101 143.656C268.563 144.33 268.895 145.092 269.286 145.81C269.617 146.414 269.949 147.023 270.412 147.533C272.004 149.285 273.927 147.689 275.454 146.695C275.917 146.395 278.363 144.306 278.96 143.519C279.266 143.117 280.149 141.319 280.302 140.838Z" fill="#EBBEBC"/>
<path fill-rule="evenodd" clip-rule="evenodd" d="M283.048 132.128C281.969 128.102 280.372 127.628 278.526 126.688C276.735 125.777 274.601 125.749 272.648 126.18C267.569 127.302 265.9 131.016 265.654 132.066C265.424 133.049 264.922 134.707 265.826 135.525C266.299 135.953 267.05 135.783 267.678 135.784C268.57 135.787 269.459 135.791 270.349 135.794C271.179 135.796 272.066 135.794 272.838 136.139C273.605 136.481 274.166 137.179 274.837 137.679C275.846 138.432 277.573 139.731 278.769 138.82C279.28 138.431 279.761 137.857 280.477 138.101C281.14 138.325 281.095 139.128 281.083 139.702C281.08 139.81 281.035 140.631 281.353 140.561C281.672 140.492 284.346 136.968 283.048 132.128Z" fill="#3B3A3B"/>
<path fill-rule="evenodd" clip-rule="evenodd" d="M279.85 140.849C279.9 141.369 279.855 141.881 279.744 142.392C279.509 143.471 279.024 144.509 278.519 145.485C277.553 147.345 276.45 149.378 276.228 151.493C276.096 152.749 276.351 153.75 276.805 154.915C277.448 156.567 278.739 159.142 280.976 158.578C282.1 158.295 281.909 156.723 282.022 155.854C282.226 154.284 282.741 152.811 283.601 151.485C284.214 150.54 284.959 149.81 285.144 148.646C285.358 147.292 284.768 145.899 284.647 144.56C284.541 143.396 284.579 142.215 284.749 141.059C284.825 140.536 285.034 135.425 284.717 134.259C284.323 132.815 282.777 129.389 280.784 130.537C279.193 131.453 278.566 133.295 278.356 134.988C278.315 135.31 277.746 137.89 278.231 138.22C278.478 138.387 278.826 138.415 279.037 138.605C279.193 138.745 279.799 140.315 279.85 140.849Z" fill="#3B3A3B"/>
<path fill-rule="evenodd" clip-rule="evenodd" d="M279.782 136.658C281.152 136.247 281.901 137.885 281.252 139.431C281.064 139.883 280.649 140.338 280.357 140.732C278.353 143.415 277.201 141.271 277.825 140.371C279.279 138.279 278.06 137.176 279.782 136.658Z" fill="#EBBEBC"/>
<path fill-rule="evenodd" clip-rule="evenodd" d="M253.618 188.298L238.02 179.326L258.347 167.636L273.946 176.608L253.618 188.298Z" fill="#EAEAEC"/>
<path fill-rule="evenodd" clip-rule="evenodd" d="M255.025 181.623L256.017 182.193C256.627 182.543 256.935 182.46 257.375 182.207L258.585 181.511C259.132 181.197 259.062 181.019 258.587 180.745L257.596 180.175C257.075 179.876 256.774 179.861 256.244 180.164L255.035 180.861C254.569 181.128 254.492 181.313 255.025 181.623ZM255.136 179.27C256.294 178.605 257.36 178.507 258.735 179.296L260.118 180.091C261.45 180.858 261.301 181.482 260.143 182.148L258.485 183.104C257.329 183.769 256.252 183.862 254.878 183.073L253.495 182.278C252.163 181.511 252.321 180.889 253.478 180.223L255.136 179.27ZM252.522 174.762L253.523 175.337C254.13 175.687 254.43 175.6 254.872 175.347L256.082 174.65C256.629 174.335 256.566 174.162 256.093 173.89L255.091 173.315C254.571 173.016 254.271 173 253.741 173.304L252.531 174C252.066 174.267 251.987 174.453 252.522 174.762ZM252.633 172.409C253.79 171.744 254.865 171.65 256.236 172.439L257.613 173.231C258.945 173.998 258.797 174.622 257.64 175.288L255.98 176.242C254.824 176.906 253.749 177.002 252.373 176.209L251 175.421C249.667 174.653 249.817 174.029 250.972 173.363L252.633 172.409ZM262.877 176.257L264.241 177.041L248.252 179.302L246.838 178.488L262.877 176.257Z" fill="#029DC4"/>
<path fill-rule="evenodd" clip-rule="evenodd" d="M250.633 170.243C250.637 171.148 250.722 172.053 250.887 172.943C250.924 173.139 250.967 173.338 251.071 173.507C251.176 173.675 251.357 173.81 251.557 173.808C251.769 173.806 251.955 173.646 252.052 173.456C252.227 173.115 252.161 172.707 252.124 172.326C252.087 171.944 252.104 171.509 252.387 171.248C252.521 171.124 252.699 171.057 252.85 170.952C253.408 170.568 253.463 169.676 253.021 169.163C252.626 168.705 251.837 168.539 251.264 168.727C250.622 168.938 250.631 169.652 250.633 170.243Z" fill="#EBBEBC"/>
<path fill-rule="evenodd" clip-rule="evenodd" d="M288.033 176.519C287.953 176.696 287.86 176.865 287.713 177.014C287.497 177.232 287.208 177.379 286.905 177.378C286.515 177.377 286.16 177.141 285.824 176.924C285.281 176.572 284.721 176.247 284.148 175.951C283.999 175.874 283.826 175.797 283.676 175.866C283.542 175.929 283.472 176.098 283.481 176.256C283.486 176.361 283.718 176.804 283.666 176.839C283.561 176.909 283.233 176.829 283.108 176.829C282.888 176.827 282.669 176.835 282.451 176.85C282 176.881 281.552 176.945 281.111 177.04C280.243 177.228 279.4 177.537 278.614 177.962C278.544 177.999 278.472 178.04 278.422 178.104C278.373 178.168 278.351 178.263 278.388 178.339C278.429 178.42 278.524 178.451 278.61 178.469C279.273 178.603 279.936 178.428 280.592 178.374C280.876 178.35 281.146 178.411 281.431 178.4C281.799 178.387 282.17 178.405 282.536 178.455C281.433 178.565 280.344 178.797 279.292 179.149C279.076 179.221 278.577 179.414 278.519 179.679C278.44 180.041 278.965 180.072 279.174 180.079C279.815 180.097 280.454 180.116 281.094 180.136C280.392 180.115 279.672 180.296 279.041 180.602C278.732 180.751 278.502 180.84 278.724 181.223C278.869 181.475 279.15 181.635 279.424 181.591C279.845 181.525 280.257 181.447 280.68 181.401C281.271 181.336 281.868 181.308 282.462 181.371C282.03 181.559 281.595 181.75 281.223 182.045C280.919 182.288 280.588 182.657 280.506 183.071C280.452 183.343 280.576 183.807 280.913 183.721C281.271 183.629 281.624 183.512 281.968 183.373C282.692 183.08 283.394 182.705 284.166 182.563C285.287 182.358 286.464 182.667 287.582 182.442C288.59 182.239 289.459 181.615 290.169 180.861C290.831 180.158 291.172 179.205 291.759 178.439C292.116 177.973 293.306 175.859 293.531 175.231C293.639 174.93 293.743 174.601 293.659 174.286C293.543 173.85 293.109 173.596 292.7 173.462C292.155 173.285 291.579 173.232 291.018 173.301C290.494 173.365 289.913 173.448 289.523 173.848C289.009 174.374 288.685 175.223 288.322 175.873C288.203 176.083 288.129 176.306 288.033 176.519Z" fill="#EBBEBC"/>
<path fill-rule="evenodd" clip-rule="evenodd" d="M288.681 148.727C288.322 148.336 287.836 148.012 287.386 148.204C287.035 148.353 286.804 148.775 286.64 149.196C286.212 150.294 286.078 151.534 285.983 152.752C285.887 153.99 285.826 155.244 285.967 156.475C286.093 157.578 286.4 159.061 287.118 159.786C287.809 160.486 288.471 161.247 289.142 161.99C290.494 163.487 291.868 164.953 293.267 166.378C293.916 167.038 294.633 167.981 295.407 168.408C297.599 169.618 299.795 168.211 300.226 166.137C300.389 165.35 300.16 164.474 299.905 163.762C299.531 162.727 298.868 161.929 298.3 161.077C297.639 160.082 296.967 159.096 296.288 158.12C294.489 155.53 292.662 152.901 290.608 150.628C290.094 150.059 288.791 148.846 288.681 148.727Z" fill="#91B5D2"/>
<path fill-rule="evenodd" clip-rule="evenodd" d="M290.752 180.47C290.752 180.47 299.211 170.532 300.256 165.969C300.508 164.872 298.364 164.227 297.306 163.335C296.584 162.725 295.505 163.29 294.814 163.704C293.953 164.219 287.916 176.359 287.432 177.029C286.743 177.981 290.752 180.47 290.752 180.47Z" fill="#91B5D2"/>
<path d="M207.5 58.9999C207.5 58.9999 197.5 53.4999 194.5 51.4999C190.565 48.8765 184 52.4999 183.5 55.4999C182.923 58.9637 182.5 71.4999 182.5 71.4999" stroke="#D9E1E1" stroke-width="1.4" stroke-linecap="round" stroke-linejoin="round" stroke-dasharray="3"/>
<path d="M340 65C343.5 67 348 77.2338 348 82.5C348 87 358.5 90 358.5 94.5C358.5 98 358.462 126.167 358.462 126.167" stroke="#D9E1E1" stroke-width="1.4" stroke-linecap="round" stroke-linejoin="round" stroke-dasharray="3"/>
<path fill-rule="evenodd" clip-rule="evenodd" d="M154.718 37.8926C151.676 46.5106 149.91 83.7581 145.436 93.9376C145.071 94.7676 144.201 95.3304 143.76 95.0124C141.41 93.3239 138.457 82.5319 136.267 74.2999C135.991 73.2607 133.796 74.56 133.587 75.8899C132.282 84.1716 128.103 101.597 126.177 102.701C122.064 105.061 117.425 53.367 115.136 48.7396C114.682 47.8242 112.97 48.8858 112.461 50.3305C110.912 54.7192 107.054 101.817 102.174 104.617C98.7955 106.555 95.691 87.4042 94.0064 82.5197C93.6578 81.5089 91.596 82.728 91.3313 84.1106C88.3311 99.8471 85.8685 128.912 82.487 130.239C80.4988 131.886 78.6599 116.96 78.3317 114.8C76.9129 105.456 75.4695 88.6731 72.8782 84.7984C72.3303 83.9786 70.7121 84.9447 70.203 86.3893C68.6554 90.7791 68.0922 99.9152 64.4663 126.418C63.4216 134.055 62.9943 139.849 61 142.985V182L167 121.178V92.0815C165.012 93.7313 159.98 40.149 157.385 36.2956C157.248 36.0924 157.044 36.001 156.806 36C156.098 36 155.098 36.8168 154.718 37.8926Z" fill="url(#paint4_linear_0_3123)"/>
<path fill-rule="evenodd" clip-rule="evenodd" d="M61 171.634V172L167 111.366V111L61 171.634Z" fill="url(#paint5_linear_0_3123)"/>
<path fill-rule="evenodd" clip-rule="evenodd" d="M61 181.635V182L167 121.366V121L61 181.635Z" fill="url(#paint6_linear_0_3123)"/>
<path fill-rule="evenodd" clip-rule="evenodd" d="M167 32L61 92.6334V93L167 32.3666V32Z" fill="url(#paint7_linear_0_3123)"/>
<path fill-rule="evenodd" clip-rule="evenodd" d="M61 103.634V104L167 43.3656V43L61 103.634Z" fill="url(#paint8_linear_0_3123)"/>
<path fill-rule="evenodd" clip-rule="evenodd" d="M61 112.634V113L167 52.3656V52L61 112.634Z" fill="url(#paint9_linear_0_3123)"/>
<path fill-rule="evenodd" clip-rule="evenodd" d="M61 122.633V123L167 62.3666V62L61 122.633Z" fill="url(#paint10_linear_0_3123)"/>
<path fill-rule="evenodd" clip-rule="evenodd" d="M61 133.634V134L167 73.3656V73L61 133.634Z" fill="url(#paint11_linear_0_3123)"/>
<path fill-rule="evenodd" clip-rule="evenodd" d="M61 142.634V143L167 82.3656V82L61 142.634Z" fill="url(#paint12_linear_0_3123)"/>
<path fill-rule="evenodd" clip-rule="evenodd" d="M61 151.633V152L167 91.3666V91L61 151.633Z" fill="url(#paint13_linear_0_3123)"/>
<path fill-rule="evenodd" clip-rule="evenodd" d="M61 162.634V163L167 102.366V102L61 162.634Z" fill="url(#paint14_linear_0_3123)"/>
<defs>
<linearGradient id="paint0_linear_0_3123" x1="156.574" y1="343.02" x2="179.318" y2="241.715" gradientUnits="userSpaceOnUse">
<stop stop-color="#EEEEEE" stop-opacity="0.01"/>
<stop offset="1" stop-color="#D8D8D8"/>
</linearGradient>
<linearGradient id="paint1_linear_0_3123" x1="192.811" y1="49.5337" x2="170.147" y2="96.2679" gradientUnits="userSpaceOnUse">
<stop stop-color="#FFD438"/>
<stop offset="1" stop-color="#FF8B00"/>
</linearGradient>
<linearGradient id="paint2_linear_0_3123" x1="186.937" y1="242.927" x2="188.763" y2="231.293" gradientUnits="userSpaceOnUse">
<stop stop-color="#EEEEEE" stop-opacity="0.01"/>
<stop offset="1" stop-color="#D8D8D8"/>
</linearGradient>
<linearGradient id="paint3_linear_0_3123" x1="270.062" y1="255.296" x2="271.03" y2="249.452" gradientUnits="userSpaceOnUse">
<stop stop-color="#EEEEEE" stop-opacity="0.01"/>
<stop offset="1" stop-color="#D8D8D8"/>
</linearGradient>
<linearGradient id="paint4_linear_0_3123" x1="147.451" y1="195.197" x2="228.422" y2="118.116" gradientUnits="userSpaceOnUse">
<stop stop-color="#F86062"/>
<stop offset="1" stop-color="#EFB563"/>
</linearGradient>
<linearGradient id="paint5_linear_0_3123" x1="40.3935" y1="22.4778" x2="39.3595" y2="111.962" gradientUnits="userSpaceOnUse">
<stop stop-color="#1A1919"/>
<stop offset="1" stop-color="#FFFFFE"/>
</linearGradient>
<linearGradient id="paint6_linear_0_3123" x1="40.7365" y1="22.6073" x2="39.7026" y2="112.093" gradientUnits="userSpaceOnUse">
<stop stop-color="#1A1919"/>
<stop offset="1" stop-color="#FFFFFE"/>
</linearGradient>
<linearGradient id="paint7_linear_0_3123" x1="37.661" y1="21.8326" x2="36.6271" y2="111.316" gradientUnits="userSpaceOnUse">
<stop stop-color="#1A1919"/>
<stop offset="1" stop-color="#FFFFFE"/>
</linearGradient>
<linearGradient id="paint8_linear_0_3123" x1="38.004" y1="22.9635" x2="36.9701" y2="112.448" gradientUnits="userSpaceOnUse">
<stop stop-color="#1A1919"/>
<stop offset="1" stop-color="#FFFFFE"/>
</linearGradient>
<linearGradient id="paint9_linear_0_3123" x1="38.3483" y1="22.0956" x2="37.3144" y2="111.58" gradientUnits="userSpaceOnUse">
<stop stop-color="#1A1919"/>
<stop offset="1" stop-color="#FFFFFE"/>
</linearGradient>
<linearGradient id="paint10_linear_0_3123" x1="38.6939" y1="22.2283" x2="37.66" y2="111.712" gradientUnits="userSpaceOnUse">
<stop stop-color="#1A1919"/>
<stop offset="1" stop-color="#FFFFFE"/>
</linearGradient>
<linearGradient id="paint11_linear_0_3123" x1="39.0369" y1="23.3587" x2="38.003" y2="112.843" gradientUnits="userSpaceOnUse">
<stop stop-color="#1A1919"/>
<stop offset="1" stop-color="#FFFFFE"/>
</linearGradient>
<linearGradient id="paint12_linear_0_3123" x1="39.3812" y1="22.4908" x2="38.3473" y2="111.976" gradientUnits="userSpaceOnUse">
<stop stop-color="#1A1919"/>
<stop offset="1" stop-color="#FFFFFE"/>
</linearGradient>
<linearGradient id="paint13_linear_0_3123" x1="39.7268" y1="21.624" x2="38.6929" y2="111.107" gradientUnits="userSpaceOnUse">
<stop stop-color="#1A1919"/>
<stop offset="1" stop-color="#FFFFFE"/>
</linearGradient>
<linearGradient id="paint14_linear_0_3123" x1="40.0698" y1="22.754" x2="39.0359" y2="112.239" gradientUnits="userSpaceOnUse">
<stop stop-color="#1A1919"/>
<stop offset="1" stop-color="#FFFFFE"/>
</linearGradient>
</defs>
</svg>
