<svg width="97" height="44" viewBox="0 0 97 44" fill="none" xmlns="http://www.w3.org/2000/svg">
<path fill-rule="evenodd" clip-rule="evenodd" d="M48.2843 14.0675H47.8263C44.3879 14.0675 41.7377 15.1769 40.1612 17.3157V14.4023C40.1518 14.1783 39.9678 14.0011 39.7432 14H34.4179C34.1934 14.0011 34.0094 14.1783 34 14.4023V14.4198V36.5552C34.0014 36.8013 34.2015 37 34.4479 37H39.996C40.2424 37 40.4426 36.8013 40.4439 36.5552V36.5303H40.4615V26.0834C40.4615 21.8357 42.8238 19.9143 46.3874 19.9143C46.7052 19.9143 46.998 19.9343 47.3008 19.9568L48.3343 20.0792C48.701 20.0792 48.9986 19.7831 49 19.4171L48.96 14.7271C48.9593 14.5497 48.8874 14.38 48.7604 14.2561C48.6334 14.1321 48.4619 14.0641 48.2843 14.0675Z" fill="url(#paint0_linear_0_1310)"/>
<path fill-rule="evenodd" clip-rule="evenodd" d="M76.9627 13.6823C76.9627 13.6648 76.9627 13.6523 76.9627 13.6373L77 13.5447H76.9801C77.0216 13.4102 76.9934 13.2637 76.905 13.1546C76.8165 13.0454 76.6797 12.9882 76.5404 13.002H71.6988C71.2755 13.032 70.9026 13.2931 70.7275 13.6823L70.0593 15.4329L64.5941 28.5773L59.4693 16.1756L58.4757 13.7473C58.4458 13.6873 58.3639 13.5522 58.3639 13.5522C58.1482 13.2343 57.7991 13.0341 57.4174 13.0096H52.2379C52.0949 12.9884 51.9509 13.042 51.856 13.1518C51.761 13.2616 51.728 13.4125 51.7684 13.5522V13.5747C51.7734 13.614 51.7825 13.6525 51.7958 13.6898L52.0442 14.1899L61.3473 35.8548L61.2654 36.0623C60.309 38.4206 58.8334 38.8683 57.8795 38.8808C57.2982 38.8775 56.7248 38.7452 56.2002 38.4931C55.5195 38.1905 53.7309 37.2127 53.7309 37.2127C53.4461 37.0662 53.0971 37.1777 52.9484 37.4628L51.0604 41.0565C50.921 41.3422 51.0307 41.6879 51.3089 41.8393C51.5477 42.02 51.7966 42.1869 52.0541 42.3394C52.817 42.7838 53.6206 43.1531 54.4538 43.4423C55.5506 43.8024 56.696 43.9905 57.8496 44C61.8367 44 64.8823 42.3945 67.0211 37.0427L76.7665 14.1174L76.9627 13.6823Z" fill="url(#paint1_linear_0_1310)"/>
<path fill-rule="evenodd" clip-rule="evenodd" d="M83.2247 19.6713C83.2247 18.559 84.5045 17.6856 87.4607 17.6856C89.539 17.6856 92.2342 18.1923 94.031 19.2756C94.1543 19.3683 94.315 19.4044 94.4693 19.3741C94.6237 19.3437 94.7558 19.2502 94.8295 19.1188C95.575 18.0341 96.2305 16.8967 96.7901 15.7168C97.0128 15.1836 96.2296 14.8651 96.2296 14.8651C94.0719 13.6732 90.5987 13 87.4607 13C80.806 13 76.9104 15.8591 76.9104 19.9102C76.9104 28.4489 90.6806 24.8732 90.6806 28.3693C90.6806 29.5588 89.539 30.314 86.4881 30.314C84.356 30.314 81.8605 29.8315 80.1789 29.0521C78.4973 28.2728 77.709 27.8337 77.709 27.8337C77.4301 27.7016 77.0903 27.802 76.9411 28.0605L75.065 31.4046C74.9949 31.5306 74.9809 31.6778 75.026 31.8136C75.0711 31.9494 75.1717 32.0627 75.3056 32.1284C75.3056 32.1284 76.0888 32.5941 76.7799 32.9246C79.7079 34.3388 82.9606 35.0506 86.2501 34.9972C93.0712 34.9972 97 32.1791 97 28.2077C96.9923 19.7895 83.2247 23.3242 83.2247 19.6713Z" fill="url(#paint2_linear_0_1310)"/>
<path d="M20.9615 0H10.6706C10.3596 0 10.1075 0.258309 10.1075 0.57695V14.5257C12.2164 13.1477 14.2426 11.6413 16.1753 10.0146L14.7724 7.68935C14.4825 7.20577 14.4854 6.5955 14.7799 6.11483C15.0745 5.63417 15.6097 5.36634 16.1607 5.42383L24.5609 6.22211C25.1071 6.274 25.5974 6.58668 25.884 7.06584C26.1706 7.545 26.22 8.13456 26.0172 8.65674L22.8935 16.6147C22.6832 17.1401 22.2032 17.5004 21.6509 17.5476C21.0986 17.5948 20.5671 17.3209 20.2747 16.8385L19.4956 15.5453C15.1268 18.3729 8.40613 21.1681 0.0933086 21.576C0.0933086 21.576 0.0933086 21.576 0.078746 21.5884C-0.0377549 21.6033 -0.163964 21.7276 0.806877 21.8744C3.44028 22.2748 6.72415 22.3717 10.0954 22.2648V34.423C10.0954 34.5765 10.1551 34.7236 10.2612 34.8319C10.3673 34.9402 10.5112 35.0007 10.6609 35H16.1753C16.3251 35.0007 16.4689 34.9402 16.575 34.8319C16.6811 34.7236 16.7408 34.5765 16.7408 34.423V21.7824C18.4283 21.7044 20.1109 21.5384 21.7819 21.285C23.1726 21.0736 25.5779 20.4221 26.7793 19.768C29.8229 18.1093 32 14.9236 32 10.5269C31.9951 3.30006 27.7793 0 20.9615 0Z" fill="url(#paint3_linear_0_1310)"/>
<g style="mix-blend-mode:darken" opacity="0.26">
<path fill-rule="evenodd" clip-rule="evenodd" d="M29.0667 7.09583C26.9679 2.29555 20.1912 4.22765 20 5.33842L25.3379 5.89119C25.8626 5.9456 26.3337 6.27344 26.6091 6.77583C26.8844 7.27822 26.9319 7.89637 26.7371 8.44387L25.9955 10.5037C27.8191 11.8075 28.6609 13.5988 28.7938 15.2545C28.9804 17.7941 27.4716 20 27.4716 20C29.6147 18.1174 31.0255 11.5989 29.0667 7.09583Z" fill="#0B2970"/>
</g>
<path d="M20.6322 0H12C12.1622 0.418052 12.247 0.862384 12.2501 1.31106V9.76014L15.1783 9.25782L14.2531 7.75085C13.9543 7.26245 13.9573 6.6461 14.2608 6.16065C14.5642 5.6752 15.1157 5.4047 15.6834 5.46277L24.3381 6.26899C24.9008 6.3214 25.4059 6.63719 25.7012 7.12112C25.9965 7.60505 26.0474 8.20049 25.8385 8.72787L25.6859 9.10963C26.0399 9.28975 26.375 9.50516 26.6862 9.75261C29.6244 12.111 29.4919 17.0087 26.4986 20C29.957 18.5131 32 15.4088 32 10.6116C32.0025 3.33292 27.6564 0 20.6322 0Z" fill="url(#paint4_linear_0_1310)"/>
<g style="mix-blend-mode:multiply" opacity="0.26">
<path fill-rule="evenodd" clip-rule="evenodd" d="M24 0.186062C23.3133 0.0875501 22.6206 0.0254192 21.9255 0L11 0.342626L11.0563 6.90924C13.054 6.90924 14.4907 7 14.4907 7C14.1848 6.56011 14.1864 6.00471 14.4947 5.56613C14.803 5.12756 15.3649 4.8814 15.9454 4.93063L17.0364 5.02139C17.646 3.75527 18.591 2.48006 19.9791 1.61783C21.1696 0.860418 22.549 0.36921 24 0.186062Z" fill="#0A3074"/>
</g>
<path fill-rule="evenodd" clip-rule="evenodd" d="M21.6905 7.35661e-06H10.6509C10.2912 0.00421212 10.0014 0.291166 10 0.644588V15C12.2718 13.5776 14.4542 12.022 16.5354 10.3416L15.0244 7.94042C14.8006 7.59008 14.7335 7.16471 14.8388 6.76426C14.8388 6.74371 14.8388 6.7206 14.8571 6.69749C14.863 6.67015 14.8718 6.64347 14.8832 6.61788C14.8892 6.60452 14.8962 6.59164 14.9041 6.57936C14.9377 6.49009 14.9797 6.40411 15.0296 6.32255C15.9237 4.61993 17.5418 2.57576 19.7717 1.42014C21.5598 0.495641 23.1544 0.243972 25 0.282493C23.9073 0.0935629 22.7999 -0.000960443 21.6905 7.35661e-06Z" fill="url(#paint5_linear_0_1310)"/>
<defs>
<linearGradient id="paint0_linear_0_1310" x1="49.7678" y1="34.6534" x2="68.9738" y2="6.61449" gradientUnits="userSpaceOnUse">
<stop stop-color="#0B2970"/>
<stop offset="0.52" stop-color="#047AAB"/>
<stop offset="0.79" stop-color="#01A0C6"/>
</linearGradient>
<linearGradient id="paint1_linear_0_1310" x1="73.5366" y1="37.5476" x2="87.0473" y2="4.66253" gradientUnits="userSpaceOnUse">
<stop stop-color="#0B2970"/>
<stop offset="0.52" stop-color="#047AAB"/>
<stop offset="0.79" stop-color="#01A0C6"/>
</linearGradient>
<linearGradient id="paint2_linear_0_1310" x1="99.3473" y1="42.7098" x2="109.58" y2="9.55354" gradientUnits="userSpaceOnUse">
<stop stop-color="#0B2970"/>
<stop offset="0.52" stop-color="#047AAB"/>
<stop offset="0.79" stop-color="#01A0C6"/>
</linearGradient>
<linearGradient id="paint3_linear_0_1310" x1="25.7464" y1="30.9988" x2="46.2153" y2="3.46624" gradientUnits="userSpaceOnUse">
<stop stop-color="#0B2970"/>
<stop offset="0.52" stop-color="#047AAB"/>
<stop offset="0.79" stop-color="#01A0C6"/>
</linearGradient>
<linearGradient id="paint4_linear_0_1310" x1="21.1209" y1="18.1387" x2="35.497" y2="10.7746" gradientUnits="userSpaceOnUse">
<stop stop-color="#DD4448"/>
<stop offset="0.15" stop-color="#E05648"/>
<stop offset="0.18" stop-color="#E15A48"/>
<stop offset="0.39" stop-color="#E57845"/>
<stop offset="0.85" stop-color="#F0C63D"/>
<stop offset="1" stop-color="#F4E13A"/>
</linearGradient>
<linearGradient id="paint5_linear_0_1310" x1="18.6391" y1="10.829" x2="22.0794" y2="1.8742" gradientUnits="userSpaceOnUse">
<stop stop-color="#0B2970"/>
<stop offset="0.52" stop-color="#047AAB"/>
<stop offset="0.79" stop-color="#01A0C6"/>
</linearGradient>
</defs>
</svg>
