<svg width="42" height="47" viewBox="0 0 42 47" fill="none" xmlns="http://www.w3.org/2000/svg">
<path fill-rule="evenodd" clip-rule="evenodd" d="M28.3168 40.8789L22.1653 34.6981L24.3091 32.5443L27.6797 35.9294C28.0318 36.283 28.6019 36.283 28.9539 35.9294L37.6808 27.1629L39.8246 29.3172L28.3168 40.8789ZM34.1851 43.3784C34.1851 44.3771 33.3762 45.1892 32.3827 45.1892H3.60469C2.61094 45.1892 1.80235 44.3771 1.80235 43.3784V11.2158C1.80235 10.2171 2.61094 9.405 3.60469 9.405H8.18279V11.6088C8.18279 12.1089 8.5858 12.5143 9.08383 12.5143H26.9036C27.4016 12.5143 27.8046 12.1089 27.8046 11.6088V9.405H32.3827C33.3762 9.405 34.1851 10.2171 34.1851 11.2158V28.1139L28.3168 34.0089L24.9462 30.6238C24.5942 30.2701 24.0238 30.2701 23.6718 30.6238L20.2538 34.0578C19.9018 34.4114 19.9018 34.9845 20.2538 35.3382L27.6797 42.7994C28.0315 43.1528 28.6022 43.1528 28.9539 42.7994L34.1851 37.5438V43.3784ZM9.98513 5.26677H13.751C13.7554 5.28747 13.7693 5.30454 13.7755 5.32472C14.214 7.26202 15.9347 8.71551 17.9936 8.71551C20.0738 8.71551 21.8136 7.23382 22.23 5.26677H26.0023V10.7035H9.98513V5.26677ZM20.5247 4.36125C20.5247 5.76351 19.3896 6.90447 17.9936 6.90447C16.5979 6.90447 15.4627 5.76351 15.4627 4.36125C15.4627 2.95484 16.5979 1.81078 17.9936 1.81078C19.3896 1.81078 20.5247 2.95484 20.5247 4.36125ZM38.3179 25.2427C37.9659 24.889 37.3955 24.889 37.0435 25.2427L35.9874 26.3034V11.2158C35.9874 9.21898 34.3707 7.59422 32.3827 7.59422H27.8046V4.36125C27.8046 3.86114 27.4016 3.45573 26.9036 3.45573H22.2305C21.8146 1.48454 20.0743 0 17.9936 0C15.9131 0 14.1728 1.48454 13.7569 3.45573H9.08383C8.5858 3.45573 8.18279 3.86114 8.18279 4.36125V7.59422H3.60469C1.61668 7.59422 0 9.21898 0 11.2158V43.3784C0 45.3755 1.61668 47.0003 3.60469 47.0003H32.3827C34.3707 47.0003 35.9874 45.3755 35.9874 43.3784V35.733L41.7362 29.9576C42.0882 29.6039 42.0882 29.0308 41.7362 28.6772L38.3179 25.2427Z" fill="#00226D"/>
<path fill-rule="evenodd" clip-rule="evenodd" d="M6.71038 18.3641H29.2761C29.7742 18.3641 30.1772 17.9587 30.1772 17.4585C30.1772 16.9587 29.7742 16.5533 29.2761 16.5533H6.71038C6.21235 16.5533 5.80908 16.9587 5.80908 17.4585C5.80908 17.9587 6.21235 18.3641 6.71038 18.3641Z" fill="#00226D"/>
<path fill-rule="evenodd" clip-rule="evenodd" d="M6.71038 24.7881H29.2761C29.7742 24.7881 30.1772 24.3827 30.1772 23.8826C30.1772 23.3828 29.7742 22.9773 29.2761 22.9773H6.71038C6.21235 22.9773 5.80908 23.3828 5.80908 23.8826C5.80908 24.3827 6.21235 24.7881 6.71038 24.7881Z" fill="#00226D"/>
<path fill-rule="evenodd" clip-rule="evenodd" d="M14.5615 29.4013H6.71037C6.21234 29.4013 5.80933 29.8068 5.80933 30.3069C5.80933 30.8067 6.21234 31.2121 6.71037 31.2121H14.5615C15.0595 31.2121 15.4628 30.8067 15.4628 30.3069C15.4628 29.8068 15.0595 29.4013 14.5615 29.4013Z" fill="#00226D"/>
</svg>
