<svg width="40" height="40" viewBox="0 0 40 40" fill="none" xmlns="http://www.w3.org/2000/svg">
<circle cx="20" cy="20" r="19.7103" stroke="#5E666A" stroke-width="0.579455"/>
<path fill-rule="evenodd" clip-rule="evenodd" d="M29.8154 28.2135H26.0186V22.2727C26.0186 20.8559 25.9946 19.0335 24.0458 19.0335C22.0706 19.0335 21.769 20.5775 21.769 22.1711V28.2135H17.9762V15.9967H21.6162V17.6671H21.6682C22.1746 16.7063 23.413 15.6935 25.2602 15.6935C29.105 15.6935 29.8154 18.2231 29.8154 21.5135V28.2135ZM13.6954 14.328C12.4754 14.328 11.4922 13.3416 11.4922 12.1256C11.4922 10.9104 12.4754 9.92395 13.6954 9.92395C14.9098 9.92395 15.8962 10.9104 15.8962 12.1256C15.8962 13.3416 14.9098 14.328 13.6954 14.328ZM15.5946 28.2135H11.7938V15.9967H15.5946V28.2135Z" fill="#5E666A"/>
</svg>
