<svg width="29" height="29" viewBox="0 0 29 29" fill="none" xmlns="http://www.w3.org/2000/svg">
<circle cx="14.5" cy="14.5" r="14.2103" stroke="#5E666A" stroke-width="0.579455"/>
<path fill-rule="evenodd" clip-rule="evenodd" d="M21.616 20.4548H18.8633V16.1478C18.8633 15.1206 18.8459 13.7993 17.4331 13.7993C16.001 13.7993 15.7824 14.9187 15.7824 16.0741V20.4548H13.0326V11.5977H15.6716V12.8087H15.7093C16.0764 12.1121 16.9743 11.3778 18.3135 11.3778C21.101 11.3778 21.616 13.2118 21.616 15.5973V20.4548ZM9.92902 10.3878C9.04452 10.3878 8.3317 9.67265 8.3317 8.79105C8.3317 7.91003 9.04452 7.19489 9.92902 7.19489C10.8095 7.19489 11.5246 7.91003 11.5246 8.79105C11.5246 9.67265 10.8095 10.3878 9.92902 10.3878ZM11.3059 20.4548H8.55036V11.5977H11.3059V20.4548Z" fill="#5E666A"/>
</svg>
