<svg width="299" height="78" viewBox="0 0 299 78" fill="none" xmlns="http://www.w3.org/2000/svg">
<path d="M0.5 39.5H298.5" stroke="#B2B9BC" stroke-linecap="square"/>
<rect x="104" width="90" height="78" fill="white"/>
<path d="M141.41 12L142.276 11.5003L141.74 10.571L140.851 11.171L141.41 12ZM145.46 19.02L146.041 19.8337L146.78 19.3063L146.326 18.5203L145.46 19.02ZM134.39 29.55L135.215 30.1147L134.39 29.55ZM130.07 40.35L129.08 40.2086L128.835 41.9209L130.441 41.2785L130.07 40.35ZM142.49 43.185L141.797 43.9058H141.797L142.49 43.185ZM175.41 12L176.262 11.4759L175.715 10.5878L174.851 11.171L175.41 12ZM179.73 19.02L180.311 19.8337L181.071 19.2911L180.582 18.4959L179.73 19.02ZM168.525 29.55L169.34 30.1292L168.525 29.55ZM164.07 40.35L163.08 40.2086L162.835 41.9209L164.441 41.2785L164.07 40.35ZM176.49 43.185L175.797 43.9058L176.49 43.185ZM132.77 67C136.974 67 140.446 65.6032 143.087 62.7664L141.623 61.4036C139.404 63.7868 136.486 65 132.77 65V67ZM121.725 62.1639C124.291 65.4214 128.029 67 132.77 67V65C128.511 65 125.409 63.6086 123.295 60.9261L121.725 62.1639ZM118 49.53C118 54.7198 119.205 58.9666 121.725 62.1639L123.295 60.9261C121.135 58.1833 120 54.4202 120 49.53H118ZM140.851 11.171C125.7 21.393 118 34.1861 118 49.53H120C120 34.9939 127.24 22.767 141.969 12.829L140.851 11.171ZM146.326 18.5203L142.276 11.5003L140.544 12.4997L144.594 19.5197L146.326 18.5203ZM135.215 30.1147C137.465 26.8267 141.054 23.396 146.041 19.8337L144.879 18.2063C139.786 21.844 135.995 25.4333 133.565 28.9853L135.215 30.1147ZM131.06 40.4914C131.576 36.8759 132.954 33.4191 135.215 30.1147L133.565 28.9853C131.146 32.5209 129.644 36.2641 129.08 40.2086L131.06 40.4914ZM134.12 38.81C132.283 38.81 130.779 38.9896 129.699 39.4215L130.441 41.2785C131.161 40.9904 132.357 40.81 134.12 40.81V38.81ZM143.183 42.4642C140.657 40.0354 137.619 38.81 134.12 38.81V40.81C137.101 40.81 139.643 41.8346 141.797 43.9058L143.183 42.4642ZM147 51.96C147 48.1207 145.742 44.9242 143.183 42.4642L141.797 43.9058C143.918 45.9458 145 48.5993 145 51.96H147ZM143.087 62.7664C145.717 59.9418 147 56.3093 147 51.96H145C145 55.8907 143.853 59.0082 141.623 61.4036L143.087 62.7664ZM166.77 67C170.974 67 174.446 65.6032 177.087 62.7664L175.623 61.4036C173.404 63.7868 170.486 65 166.77 65V67ZM155.725 62.1639C158.291 65.4214 162.029 67 166.77 67V65C162.511 65 159.409 63.6086 157.295 60.9261L155.725 62.1639ZM152 49.53C152 54.7198 153.205 58.9666 155.725 62.1639L157.295 60.9261C155.135 58.1833 154 54.4202 154 49.53H152ZM174.851 11.171C159.7 21.393 152 34.1861 152 49.53H154C154 34.9939 161.24 22.767 175.969 12.829L174.851 11.171ZM180.582 18.4959L176.262 11.4759L174.558 12.5241L178.878 19.5441L180.582 18.4959ZM169.34 30.1292C171.683 26.832 175.323 23.3969 180.311 19.8337L179.149 18.2063C174.057 21.8431 170.227 25.428 167.71 28.9708L169.34 30.1292ZM165.06 40.4914C165.575 36.8843 166.993 33.4324 169.34 30.1292L167.71 28.9708C165.197 32.5076 163.645 36.2557 163.08 40.2086L165.06 40.4914ZM168.12 38.81C166.283 38.81 164.779 38.9896 163.699 39.4215L164.441 41.2785C165.161 40.9904 166.357 40.81 168.12 40.81V38.81ZM177.183 42.4642C174.657 40.0354 171.619 38.81 168.12 38.81V40.81C171.101 40.81 173.643 41.8346 175.797 43.9058L177.183 42.4642ZM181 51.96C181 48.1207 179.742 44.9242 177.183 42.4642L175.797 43.9058C177.918 45.9458 179 48.5993 179 51.96H181ZM177.087 62.7664C179.717 59.9418 181 56.3093 181 51.96H179C179 55.8907 177.853 59.0082 175.623 61.4036L177.087 62.7664Z" fill="#B2B9BC"/>
</svg>
