<svg width="46" height="46" viewBox="0 0 46 46" fill="none" xmlns="http://www.w3.org/2000/svg">
<path d="M19.4868 19.5393C19.074 19.1724 18.442 19.2095 18.075 19.6223C17.7081 20.0351 17.7453 20.6672 18.1581 21.0341L19.4868 19.5393ZM23 24L22.3356 24.7474C22.7314 25.0992 23.3327 25.0815 23.7071 24.7071L23 24ZM30.6697 17.7447C31.0602 17.3541 31.0602 16.721 30.6697 16.3304C30.2792 15.9399 29.646 15.9399 29.2555 16.3304L30.6697 17.7447ZM45 28.7832L45.9673 29.0367C46.0692 28.6479 45.9284 28.2357 45.6097 27.9906L45 28.7832ZM42.6398 34.4666L42.5105 35.4582C42.909 35.5102 43.3 35.3184 43.503 34.9715L42.6398 34.4666ZM37.7696 33.8315L37.8989 32.8399C37.5911 32.7997 37.2821 32.9048 37.0625 33.1243L37.7696 33.8315ZM35.8005 35.8002L35.0935 35.093L35.0934 35.0931L35.8005 35.8002ZM33.8309 37.7698L33.1238 37.0627C32.9043 37.2823 32.7992 37.5913 32.8393 37.8991L33.8309 37.7698ZM34.466 42.6397L34.971 43.5028C35.3179 43.2999 35.5096 42.9089 35.4576 42.5104L34.466 42.6397ZM28.7827 45L27.9901 45.6097C28.2353 45.9284 28.6474 46.0693 29.0364 45.9673L28.7827 45ZM25.7845 41.1026L26.5771 40.4929C26.3879 40.2469 26.0951 40.1027 25.7847 40.1026L25.7845 41.1026ZM23 41.1021L23.0002 40.1021H22.9998L23 41.1021ZM20.2145 41.1026L20.2143 40.1026C19.9039 40.1027 19.6111 40.2469 19.4219 40.4929L20.2145 41.1026ZM17.2164 44.9998L16.9628 45.9671C17.3517 46.069 17.7639 45.9282 18.009 45.6095L17.2164 44.9998ZM11.533 42.6392L10.5414 42.5099C10.4894 42.9084 10.681 43.2993 11.0279 43.5023L11.533 42.6392ZM12.1681 37.7696L13.1597 37.8989C13.1998 37.5911 13.0948 37.2821 12.8753 37.0626L12.1681 37.7696ZM10.1995 35.8002L10.9068 35.0932L10.9065 35.0929L10.1995 35.8002ZM8.22944 33.831L8.93639 33.1237C8.71687 32.9043 8.40792 32.7992 8.10015 32.8394L8.22944 33.831ZM3.36022 34.4658L2.49715 34.9709C2.70013 35.3178 3.09101 35.5094 3.48951 35.4574L3.36022 34.4658ZM1 28.7827L0.390231 27.9902C0.0716171 28.2353 -0.0692408 28.6474 0.0326635 29.0362L1 28.7827ZM4.89681 25.7847L5.50658 26.5773C5.75258 26.3881 5.89676 26.0953 5.89681 25.7849L4.89681 25.7847ZM4.89731 22.9998L5.89731 22.9999V22.9996L4.89731 22.9998ZM4.89681 20.2148L5.89681 20.2146C5.89676 19.9042 5.75257 19.6114 5.50655 19.4222L4.89681 20.2148ZM1 17.217L0.0326596 16.9635C-0.0692412 17.3524 0.0716318 17.7645 0.390263 18.0096L1 17.217ZM3.36022 11.5337L3.48954 10.5421C3.09104 10.4901 2.70014 10.6817 2.49715 11.0286L3.36022 11.5337ZM8.22994 12.1688L8.10061 13.1604C8.40844 13.2005 8.71746 13.0954 8.93699 12.8759L8.22994 12.1688ZM10.1995 10.1995L10.9066 10.9066L10.9067 10.9065L10.1995 10.1995ZM12.1686 8.23019L12.8757 8.93725C13.0952 8.71772 13.2003 8.4087 13.1602 8.10086L12.1686 8.23019ZM11.5335 3.36055L11.0284 2.4975C10.6815 2.7005 10.4899 3.09139 10.5419 3.48988L11.5335 3.36055ZM17.2169 1L18.0096 0.390304C17.7644 0.0715979 17.3522 -0.0692831 16.9633 0.0327012L17.2169 1ZM20.215 4.89761L19.4223 5.50731C19.6116 5.7534 19.9045 5.89761 20.215 5.89761V4.89761ZM25.785 4.89761V5.89761C26.0955 5.89761 26.3884 5.7534 26.5777 5.50731L25.785 4.89761ZM28.7831 1L29.0367 0.0327012C28.6478 -0.0692831 28.2356 0.0715979 27.9904 0.390304L28.7831 1ZM34.4665 3.36055L35.4581 3.48987C35.5101 3.09134 35.3184 2.70041 34.9715 2.49744L34.4665 3.36055ZM33.8314 8.23043L32.8398 8.10111C32.7997 8.40897 32.9048 8.71802 33.1243 8.93755L33.8314 8.23043ZM35.8005 10.1995L35.0934 10.9066V10.9066L35.8005 10.1995ZM37.7701 12.169L37.063 12.8761C37.2825 13.0957 37.5916 13.2008 37.8994 13.1606L37.7701 12.169ZM42.6398 11.5337L43.5028 11.0285C43.2998 10.6817 42.9089 10.4901 42.5104 10.5421L42.6398 11.5337ZM45 17.217L45.6098 18.0096C45.9284 17.7645 46.0692 17.3524 45.9673 16.9635L45 17.217ZM41.1027 20.2153L40.4929 19.4227C40.2469 19.612 40.1027 19.9048 40.1027 20.2153H41.1027ZM41.1027 25.7852H40.1027C40.1027 26.0957 40.2469 26.3885 40.493 26.5778L41.1027 25.7852ZM18.1581 21.0341L22.3356 24.7474L23.6644 23.2526L19.4868 19.5393L18.1581 21.0341ZM23.7071 24.7071L30.6697 17.7447L29.2555 16.3304L22.2929 23.2929L23.7071 24.7071ZM23 8.07509C14.7576 8.07509 8.07485 14.757 8.07485 23H10.0749C10.0749 15.8617 15.8621 10.0751 23 10.0751V8.07509ZM8.07485 23C8.07485 31.243 14.7576 37.9249 23 37.9249V35.9249C15.8621 35.9249 10.0749 30.1383 10.0749 23H8.07485ZM23 37.9249C31.2424 37.9249 37.9251 31.243 37.9251 23H35.9251C35.9251 30.1383 30.1379 35.9249 23 35.9249V37.9249ZM37.9251 23C37.9251 14.757 31.2424 8.07509 23 8.07509V10.0751C30.1379 10.0751 35.9251 15.8617 35.9251 23H37.9251ZM44.0327 28.5297C43.5276 30.4571 42.7606 32.2794 41.7766 33.9617L43.503 34.9715C44.5762 33.1367 45.4146 31.1457 45.9673 29.0367L44.0327 28.5297ZM42.7691 33.475L37.8989 32.8399L37.6403 34.8231L42.5105 35.4582L42.7691 33.475ZM37.0625 33.1243L35.0935 35.093L36.5075 36.5073L38.4766 34.5387L37.0625 33.1243ZM35.0934 35.0931L33.1238 37.0627L34.538 38.4769L36.5076 36.5072L35.0934 35.0931ZM32.8393 37.8991L33.4744 42.769L35.4576 42.5104L34.8225 37.6405L32.8393 37.8991ZM33.961 41.7766C32.2792 42.7606 30.4569 43.5272 28.5291 44.0327L29.0364 45.9673C31.1454 45.4143 33.1363 44.5762 34.971 43.5028L33.961 41.7766ZM29.5753 44.3903L26.5771 40.4929L24.9919 41.7124L27.9901 45.6097L29.5753 44.3903ZM25.7847 40.1026L23.0002 40.1021L22.9998 42.1021L25.7844 42.1026L25.7847 40.1026ZM22.9998 40.1021L20.2143 40.1026L20.2147 42.1026L23.0002 42.1021L22.9998 40.1021ZM19.4219 40.4929L16.4238 44.39L18.009 45.6095L21.0071 41.7124L19.4219 40.4929ZM17.4701 44.0325C15.5422 43.5269 13.7199 42.7603 12.0381 41.7761L11.0279 43.5023C12.8627 44.576 14.8537 45.414 16.9628 45.9671L17.4701 44.0325ZM12.5246 42.7685L13.1597 37.8989L11.1765 37.6402L10.5414 42.5099L12.5246 42.7685ZM12.8753 37.0626L10.9068 35.0932L9.49225 36.5071L11.4608 38.4765L12.8753 37.0626ZM10.9065 35.0929L8.93639 33.1237L7.5225 34.5382L9.49256 36.5074L10.9065 35.0929ZM8.10015 32.8394L3.23093 33.4742L3.48951 35.4574L8.35873 34.8226L8.10015 32.8394ZM4.22329 33.9607C3.23906 32.279 2.47247 30.4568 1.96734 28.5292L0.0326635 29.0362C0.585344 31.1453 1.42343 33.1362 2.49715 34.9709L4.22329 33.9607ZM1.60977 29.5753L5.50658 26.5773L4.28704 24.9922L0.390231 27.9902L1.60977 29.5753ZM5.89681 25.7849L5.89731 22.9999L3.89731 22.9996L3.89681 25.7846L5.89681 25.7849ZM5.89731 22.9996L5.89681 20.2146L3.89681 20.2149L3.89731 22.9999L5.89731 22.9996ZM5.50655 19.4222L1.60974 16.4244L0.390263 18.0096L4.28708 21.0074L5.50655 19.4222ZM1.96734 17.4705C2.47248 15.5428 3.23907 13.7205 4.22329 12.0388L2.49715 11.0286C1.42342 12.8633 0.585337 14.8544 0.0326596 16.9635L1.96734 17.4705ZM3.2309 12.5253L8.10061 13.1604L8.35926 11.1772L3.48954 10.5421L3.2309 12.5253ZM8.93699 12.8759L10.9066 10.9066L9.49245 9.49232L7.52288 11.4616L8.93699 12.8759ZM10.9067 10.9065L12.8757 8.93725L11.4614 7.52312L9.49236 9.49241L10.9067 10.9065ZM13.1602 8.10086L12.5251 3.23122L10.5419 3.48988L11.177 8.35951L13.1602 8.10086ZM12.0386 4.2236C13.7203 3.23932 15.5426 2.47282 17.4706 1.9673L16.9633 0.0327012C14.8543 0.585717 12.8632 1.42362 11.0284 2.4975L12.0386 4.2236ZM16.4243 1.6097L19.4223 5.50731L21.0076 4.28792L18.0096 0.390304L16.4243 1.6097ZM20.215 5.89761H23V3.89761H20.215V5.89761ZM23 5.89761H25.785V3.89761H23V5.89761ZM26.5777 5.50731L29.5757 1.6097L27.9904 0.390304L24.9924 4.28792L26.5777 5.50731ZM28.5294 1.9673C30.4573 2.47281 32.2791 3.23929 33.9615 4.22366L34.9715 2.49744C33.1363 1.42365 31.1458 0.585735 29.0367 0.0327012L28.5294 1.9673ZM33.4749 3.23123L32.8398 8.10111L34.823 8.35975L35.4581 3.48987L33.4749 3.23123ZM33.1243 8.93755L35.0934 10.9066L36.5076 9.49237L34.5385 7.52332L33.1243 8.93755ZM35.0934 10.9066L37.063 12.8761L38.4772 11.4619L36.5076 9.49236L35.0934 10.9066ZM37.8994 13.1606L42.7692 12.5253L42.5104 10.5421L37.6407 11.1774L37.8994 13.1606ZM41.7767 12.0388C42.761 13.7205 43.5275 15.5427 44.0327 17.4705L45.9673 16.9635C45.4147 14.8544 44.5767 12.8633 43.5028 11.0285L41.7767 12.0388ZM44.3902 16.4244L40.4929 19.4227L41.7124 21.0079L45.6098 18.0096L44.3902 16.4244ZM40.1027 20.2153V22.9998H42.1027V20.2153H40.1027ZM40.1027 22.9998V25.7852H42.1027V22.9998H40.1027ZM40.493 26.5778L44.3903 29.5758L45.6097 27.9906L41.7124 24.9926L40.493 26.5778Z" fill="#00226D"/>
</svg>
