<svg width="24" height="24" viewBox="0 0 24 24" fill="none" xmlns="http://www.w3.org/2000/svg">
<path fill-rule="evenodd" clip-rule="evenodd" d="M9.5 16.75C5.49594 16.75 2.25 13.5041 2.25 9.5C2.25 5.49594 5.49594 2.25 9.5 2.25C13.5041 2.25 16.75 5.49594 16.75 9.5C16.75 11.2319 16.1427 12.8219 15.1295 14.0689L20.5303 19.4697C20.8232 19.7626 20.8232 20.2374 20.5303 20.5303C20.2374 20.8232 19.7626 20.8232 19.4697 20.5303L14.0689 15.1295C12.8219 16.1427 11.2319 16.75 9.5 16.75ZM9.5 15.25C12.6756 15.25 15.25 12.6756 15.25 9.5C15.25 6.32436 12.6756 3.75 9.5 3.75C6.32436 3.75 3.75 6.32436 3.75 9.5C3.75 12.6756 6.32436 15.25 9.5 15.25Z" fill="#029DC4"/>
</svg>
