<svg width="40" height="41" viewBox="0 0 40 41" fill="none" xmlns="http://www.w3.org/2000/svg">
<path d="M39.6 20.0376C39.6 30.8839 30.8241 39.6752 20 39.6752C9.17593 39.6752 0.4 30.8839 0.4 20.0376C0.4 9.19135 9.17593 0.4 20 0.4C30.8241 0.4 39.6 9.19135 39.6 20.0376Z" stroke="#5E666A" stroke-width="0.8"/>
<path d="M23.3 13.9764C23.2999 12.6424 24.2539 11.5 25.5646 11.2646C26.8753 11.0291 28.1661 11.7683 28.6286 13.0192C29.0912 14.2701 28.5925 15.6732 27.4449 16.3499C26.2973 17.0266 24.8306 16.7824 23.9633 15.7702L16.5738 19.208C16.7437 19.7473 16.7437 20.3259 16.5738 20.8652L23.9633 24.3031C24.8835 23.231 26.4645 23.0309 27.622 23.84C28.7795 24.649 29.1376 26.2045 28.4507 27.4396C27.7638 28.6748 26.255 29.1885 24.9591 28.6284C23.6631 28.0683 23.0009 26.6164 23.4265 25.2683L16.037 21.8305C15.2878 22.7051 14.0743 23.0201 12.9953 22.62C11.9164 22.2198 11.2002 21.1891 11.2002 20.0366C11.2002 18.8841 11.9164 17.8535 12.9953 17.4533C14.0743 17.0532 15.2878 17.3682 16.037 18.2428L23.4265 14.805C23.3424 14.5368 23.2998 14.2574 23.3 13.9764Z" fill="#5E666A"/>
</svg>
