<svg xmlns="http://www.w3.org/2000/svg" xmlns:xlink="http://www.w3.org/1999/xlink" width="242" height="209.388" viewBox="0 0 242 209.388">
  <defs>
    <linearGradient id="linear-gradient" x1="0.66" y1="0.312" x2="0.465" y2="0.889" gradientUnits="objectBoundingBox">
      <stop offset="0" stop-color="#eee" stop-opacity="0"/>
      <stop offset="1" stop-color="#d8d8d8"/>
    </linearGradient>
    <clipPath id="clip-path">
      <path id="Clip_45" data-name="Clip 45" d="M0,0H26.485V18.014H0Z" fill="none"/>
    </clipPath>
    <clipPath id="clip-path-2">
      <path id="Clip_54" data-name="Clip 54" d="M0,0H195.3V104.128H0Z" fill="none"/>
    </clipPath>
    <linearGradient id="linear-gradient-2" x1="0.669" x2="0.354" y2="1" gradientUnits="objectBoundingBox">
      <stop offset="0" stop-color="#ffd438"/>
      <stop offset="1" stop-color="#ff8b00"/>
    </linearGradient>
    <linearGradient id="linear-gradient-3" x1="0.66" y1="0.312" x2="0.548" y2="0.747" xlink:href="#linear-gradient"/>
    <linearGradient id="linear-gradient-4" x1="0.589" y1="0.312" x2="0.5" y2="0.628" xlink:href="#linear-gradient"/>
    <linearGradient id="linear-gradient-5" x1="0.465" y1="0.823" x2="1" y2="0.121" gradientUnits="objectBoundingBox">
      <stop offset="0" stop-color="#f86062"/>
      <stop offset="1" stop-color="#efb563"/>
    </linearGradient>
    <linearGradient id="linear-gradient-6" x1="0.539" y1="-1.436" x2="0.509" y2="0.03" gradientUnits="objectBoundingBox">
      <stop offset="0" stop-color="#1a1919"/>
      <stop offset="1" stop-color="#fffffe"/>
    </linearGradient>
    <linearGradient id="linear-gradient-7" x1="0.542" y1="-1.598" x2="0.513" y2="-0.132" xlink:href="#linear-gradient-6"/>
    <linearGradient id="linear-gradient-8" x1="0.513" y1="-0.152" x2="0.484" y2="1.315" xlink:href="#linear-gradient-6"/>
    <linearGradient id="linear-gradient-9" x1="0.516" y1="-0.314" x2="0.487" y2="1.153" xlink:href="#linear-gradient-6"/>
    <linearGradient id="linear-gradient-10" x1="0.52" y1="-0.476" x2="0.49" y2="0.991" xlink:href="#linear-gradient-6"/>
    <linearGradient id="linear-gradient-11" x1="0.523" y1="-0.637" x2="0.493" y2="0.829" xlink:href="#linear-gradient-6"/>
    <linearGradient id="linear-gradient-12" x1="0.526" y1="-0.799" x2="0.497" y2="0.667" xlink:href="#linear-gradient-6"/>
    <linearGradient id="linear-gradient-13" x1="0.529" y1="-0.961" x2="0.5" y2="0.506" xlink:href="#linear-gradient-6"/>
    <linearGradient id="linear-gradient-14" x1="0.533" y1="-1.123" x2="0.503" y2="0.344" xlink:href="#linear-gradient-6"/>
    <linearGradient id="linear-gradient-15" x1="0.536" y1="-1.284" x2="0.506" y2="0.182" xlink:href="#linear-gradient-6"/>
  </defs>
  <g id="illustration_calculate" transform="translate(0 -17.612)">
    <g id="Group_5" data-name="Group 5">
      <path id="Fill_1" data-name="Fill 1" d="M0,30.287c37.331,22.789,71.364,46.181,108.7,68.97l1.523-3.6,38.936-26.089S76.374,23.09,37.738,0Z" transform="translate(149.153 227) rotate(-180)" opacity="0.515" fill="url(#linear-gradient)"/>
      <g id="stage" transform="translate(27.554 69.016)">
        <g id="Group_46" data-name="Group 46" transform="translate(187.961 61.719)">
          <path id="Clip_45-2" data-name="Clip 45" d="M0,0H26.485V18.014H0Z" fill="none"/>
          <g id="Group_46-2" data-name="Group 46" clip-path="url(#clip-path)">
            <path id="Fill_44" data-name="Fill 44" d="M12.966,13.266,0,2.839,6.154,0,26.485,10.783,12.894,18.014Z" fill="#f8f7f6"/>
          </g>
        </g>
        <path id="Fill_47" data-name="Fill 47" d="M80.633,0l-.1,8.229L0,54.494l.1-8.227Z" transform="translate(120.301 73.204)" fill="#c1c6ce"/>
        <path id="Fill_49" data-name="Fill 49" d="M110.952,64.3l-.1,8.227L0,8.227.1,0Z" transform="translate(9.449 55.167)" fill="#d6d9dc"/>
        <path id="Fill_51" data-name="Fill 51" d="M191.387,64.3,110.853,110.57,0,46.266,80.533,0Z" transform="translate(9.547 8.901)" fill="#f8f7f6"/>
        <g id="Group_55" data-name="Group 55" transform="translate(0 6.806)">
          <path id="Clip_54-2" data-name="Clip 54" d="M0,0H195.3V104.128H0Z" fill="none"/>
          <g id="Group_55-2" data-name="Group 55" clip-path="url(#clip-path-2)">
            <path id="Fill_53" data-name="Fill 53" d="M195.3,64.3l-88.545,39.825L0,48.515,84.449,0Z" transform="translate(0)" fill="#f8f7f6"/>
          </g>
        </g>
        <path id="Fill_56" data-name="Fill 56" d="M80.632,0l-.1,8.228L0,54.493l.1-8.229Z" transform="translate(120.311 64.303)" fill="#c1c6ce"/>
        <path id="Fill_58" data-name="Fill 58" d="M110.952,64.3l-.1,8.229L0,8.226.1,0Z" transform="translate(9.458 46.266)" fill="#d6d9dc"/>
        <path id="Fill_60" data-name="Fill 60" d="M88.94,53.1,0,3.435.077,0Z" transform="translate(9.466 49.408)" fill="#c1c6ce"/>
        <path id="Fill_62" data-name="Fill 62" d="M191.386,64.3l-80.533,46.264L0,46.266,80.532,0Z" transform="translate(9.557)" fill="#f8fafb"/>
        <path id="Fill_64" data-name="Fill 64" d="M62.549,4.747,0,38.026,62.62,0Z" transform="translate(138.306 74.985)" fill="#f8f7f6"/>
      </g>
      <g id="price_tables" data-name="price tables" transform="translate(140.042 17.884)">
        <path id="Fill_66" data-name="Fill 66" d="M32.7,18.863V53.468L0,34.526V0Z" transform="translate(37.834 19.983)" fill="#a5bfd1"/>
        <path id="Fill_68" data-name="Fill 68" d="M32.7,18.863V52.055L0,33.112V0Z" transform="translate(0 0.041)" fill="#d9e1e1"/>
        <path id="Fill_70" data-name="Fill 70" d="M22.995,13.3v1.577L0,1.5V0Z" transform="translate(5.439 21.241)" fill="#f2f1f0"/>
        <path id="Fill_72" data-name="Fill 72" d="M22.995,13.3v1.577L0,1.5V0Z" transform="translate(5.439 25.035)" fill="#f2f1f0"/>
        <path id="Fill_74" data-name="Fill 74" d="M12.118,7.118v3.665L0,3.586V0Z" transform="translate(10.244 32.204)" fill="#b2b9bc"/>
        <path id="Fill_76" data-name="Fill 76" d="M22.995,13.3v1.577L0,1.5V0Z" transform="translate(42.182 39.404)" fill="#fffffe"/>
        <path id="Fill_78" data-name="Fill 78" d="M22.995,13.3v1.577L0,1.5V0Z" transform="translate(5.439 17.205)" fill="#f2f1f0"/>
        <path id="Fill_80" data-name="Fill 80" d="M22.995,13.3v1.577L0,1.5V0Z" transform="translate(42.182 35.368)" fill="#fffffe"/>
        <path id="Fill_82" data-name="Fill 82" d="M22.995,13.3v1.577L0,1.5V0Z" transform="translate(42.182 43.199)" fill="#fffffe"/>
        <path id="Fill_84" data-name="Fill 84" d="M22.995,13.3v1.577L0,1.5V0Z" transform="translate(42.182 46.657)" fill="#fffffe"/>
        <path id="Fill_86" data-name="Fill 86" d="M19.429,12.4c0,5.274-4.35,8.421-9.714,7.03S0,12.633,0,7.359,4.35-1.062,9.715.329s9.714,6.8,9.714,12.07" transform="translate(45.179 20.686)" fill="#fffffe"/>
        <path id="Stroke_88" data-name="Stroke 88" d="M19.429,12.4c0,5.274-4.35,8.421-9.714,7.03S0,12.633,0,7.359,4.35-1.062,9.715.329,19.429,7.125,19.429,12.4Z" transform="translate(45.179 20.686)" fill="none" stroke="#a5bfd1" stroke-miterlimit="10" stroke-width="0.5"/>
        <path id="Fill_90" data-name="Fill 90" d="M19.429,12.4c0,5.274-4.35,8.421-9.714,7.03S0,12.633,0,7.359,4.35-1.062,9.715.329s9.714,6.8,9.714,12.07" transform="translate(7.487)" fill="#fffffe"/>
        <path id="Stroke_92" data-name="Stroke 92" d="M19.429,12.4c0,5.274-4.35,8.421-9.714,7.03S0,12.633,0,7.359,4.35-1.062,9.715.329,19.429,7.125,19.429,12.4Z" transform="translate(7.487)" fill="none" stroke="#d9e1e1" stroke-miterlimit="10" stroke-width="0.5"/>
        <path id="Fill_94" data-name="Fill 94" d="M12.118,7.118v3.665L0,3.586V0Z" transform="translate(46.397 52.943)" fill="#e48f29"/>
        <path id="Fill_97" data-name="Fill 97" d="M.872,4.346A.257.257,0,0,1,.754,4.31L.37,4.1,1.391,2.94c.035-.04.067-.077.1-.113s.055-.07.085-.111a.492.492,0,0,1-.214.047.621.621,0,0,1-.077,0A.935.935,0,0,1,.94,2.64a1.527,1.527,0,0,1-.36-.278,1.939,1.939,0,0,1-.3-.4,2.25,2.25,0,0,1-.2-.5A2.092,2.092,0,0,1,0,.886,1.284,1.284,0,0,1,.082.4.659.659,0,0,1,.311.1.569.569,0,0,1,.642,0H.662a1.031,1.031,0,0,1,.448.141,1.77,1.77,0,0,1,.438.343,2.254,2.254,0,0,1,.337.472,2.456,2.456,0,0,1,.217.559,2.424,2.424,0,0,1,.076.607,1.964,1.964,0,0,1-.027.339,1.56,1.56,0,0,1-.078.283A1.692,1.692,0,0,1,1.95,3a2.537,2.537,0,0,1-.163.237L.969,4.3a.108.108,0,0,1-.086.044ZM.8.5a.328.328,0,0,0-.2.06.407.407,0,0,0-.14.2.924.924,0,0,0-.049.323,1.635,1.635,0,0,0,.046.391,1.467,1.467,0,0,0,.131.345A1.3,1.3,0,0,0,.8,2.1a1.2,1.2,0,0,0,.275.208.637.637,0,0,0,.3.094.35.35,0,0,0,.22-.068.428.428,0,0,0,.135-.2.852.852,0,0,0,.048-.294,1.561,1.561,0,0,0-.05-.393,1.569,1.569,0,0,0-.14-.355A1.4,1.4,0,0,0,1.376.8a1.086,1.086,0,0,0-.27-.21A.663.663,0,0,0,.823.5H.8Z" transform="translate(11.301 5.115)" fill="#5e666a"/>
        <path id="Fill_98" data-name="Fill 98" d="M.054.252A.362.362,0,0,1,.076.117.2.2,0,0,1,.137.03.148.148,0,0,1,.23,0,.233.233,0,0,1,.344.032.449.449,0,0,1,.459.126.683.683,0,0,1,.553.259.714.714,0,0,1,.615.413a.592.592,0,0,1,.023.16A.359.359,0,0,1,.615.71.186.186,0,0,1,.553.795.152.152,0,0,1,.459.824.255.255,0,0,1,.344.788.45.45,0,0,1,.23.7.659.659,0,0,1,.137.566.746.746,0,0,1,.076.414.586.586,0,0,1,.054.252" transform="translate(13.822 9.84)" fill="#5e666a"/>
        <path id="Fill_99" data-name="Fill 99" d="M.872,4.346A.257.257,0,0,1,.754,4.31L.37,4.1,1.391,2.94c.035-.04.067-.077.1-.113s.055-.07.085-.111a.492.492,0,0,1-.214.047.621.621,0,0,1-.077,0A.935.935,0,0,1,.94,2.64a1.513,1.513,0,0,1-.36-.278,1.939,1.939,0,0,1-.3-.4,2.25,2.25,0,0,1-.2-.5A2.092,2.092,0,0,1,0,.886,1.284,1.284,0,0,1,.082.4.659.659,0,0,1,.311.1.569.569,0,0,1,.642,0H.662a1.031,1.031,0,0,1,.448.141,1.77,1.77,0,0,1,.438.343,2.254,2.254,0,0,1,.337.472,2.456,2.456,0,0,1,.217.559,2.424,2.424,0,0,1,.076.607,1.964,1.964,0,0,1-.027.339,1.56,1.56,0,0,1-.078.283A1.692,1.692,0,0,1,1.95,3a2.537,2.537,0,0,1-.163.237L.969,4.3a.108.108,0,0,1-.086.044ZM.8.5a.328.328,0,0,0-.2.06.407.407,0,0,0-.14.2.924.924,0,0,0-.049.323,1.635,1.635,0,0,0,.046.391,1.467,1.467,0,0,0,.131.345A1.3,1.3,0,0,0,.8,2.1a1.2,1.2,0,0,0,.275.208.637.637,0,0,0,.3.094.35.35,0,0,0,.22-.068.428.428,0,0,0,.135-.2.852.852,0,0,0,.048-.294,1.561,1.561,0,0,0-.05-.393,1.569,1.569,0,0,0-.14-.355A1.4,1.4,0,0,0,1.376.8a1.086,1.086,0,0,0-.27-.21A.663.663,0,0,0,.823.5H.8Z" transform="translate(15.008 7.152)" fill="#5e666a"/>
        <path id="Fill_100" data-name="Fill 100" d="M1.67,4.672a.963.963,0,0,1-.454-.131,1.782,1.782,0,0,1-.479-.4A2.542,2.542,0,0,1,.351,3.53,3.856,3.856,0,0,1,.095,2.7,5.223,5.223,0,0,1,0,1.671,3.807,3.807,0,0,1,.095.741,1.311,1.311,0,0,1,.351.194.541.541,0,0,1,.737,0H.769a.939.939,0,0,1,.447.131,1.794,1.794,0,0,1,.479.4,2.515,2.515,0,0,1,.389.618,3.925,3.925,0,0,1,.258.831A5.184,5.184,0,0,1,2.436,3.01a3.7,3.7,0,0,1-.095.929,1.3,1.3,0,0,1-.258.543.545.545,0,0,1-.389.191ZM.951.511H.919A.341.341,0,0,0,.668.668,1.174,1.174,0,0,0,.5,1.113a3.9,3.9,0,0,0-.064.795A5.079,5.079,0,0,0,.5,2.771,3.106,3.106,0,0,0,.668,3.4a1.576,1.576,0,0,0,.251.432,1.1,1.1,0,0,0,.3.253.549.549,0,0,0,.265.075h.033a.346.346,0,0,0,.252-.155,1.16,1.16,0,0,0,.174-.445A3.968,3.968,0,0,0,2,2.772a5.216,5.216,0,0,0-.064-.866,3.075,3.075,0,0,0-.174-.635A1.632,1.632,0,0,0,1.514.839a1.1,1.1,0,0,0-.3-.253A.557.557,0,0,0,.951.511Z" transform="translate(17.516 8.598)" fill="#5e666a"/>
        <path id="Fill_101" data-name="Fill 101" d="M1.083,5.541a.1.1,0,0,1-.046-.014L.883,5.442l.035-.661A2.542,2.542,0,0,1,.4,4.317,3.279,3.279,0,0,1,0,3.724l.124-.178a.064.064,0,0,1,.047-.028H.185a.1.1,0,0,1,.049.014.339.339,0,0,1,.1.113c.034.054.078.119.139.207a2.791,2.791,0,0,0,.2.25,1.432,1.432,0,0,0,.274.243l.086-1.552c-.1-.1-.21-.2-.322-.319a2.469,2.469,0,0,1-.284-.364,1.865,1.865,0,0,1-.2-.434,1.724,1.724,0,0,1-.076-.53A1.1,1.1,0,0,1,.212.751a.581.581,0,0,1,.2-.266A.532.532,0,0,1,.722.391a.917.917,0,0,1,.431.133L1.175.1A.125.125,0,0,1,1.211.014.052.052,0,0,1,1.247,0a.1.1,0,0,1,.046.014L1.447.1,1.415.678a2.052,2.052,0,0,1,.424.4,3.4,3.4,0,0,1,.32.472l-.1.143a.085.085,0,0,1-.067.043.082.082,0,0,1-.04-.011.3.3,0,0,1-.081-.082l-.116-.151c-.045-.057-.1-.12-.157-.186a1.376,1.376,0,0,0-.2-.183L1.314,2.535c.1.1.214.206.333.328a2.522,2.522,0,0,1,.3.364,1.857,1.857,0,0,1,.212.427,1.5,1.5,0,0,1,.081.508,1.394,1.394,0,0,1-.07.472.659.659,0,0,1-.205.307.537.537,0,0,1-.33.114H1.614a.917.917,0,0,1-.431-.133l-.029.524a.114.114,0,0,1-.036.081A.054.054,0,0,1,1.083,5.541Zm.2-2.507h0L1.206,4.49a.688.688,0,0,0,.262.063h.009a.329.329,0,0,0,.2-.064A.38.38,0,0,0,1.8,4.311a.884.884,0,0,0,.041-.286A.9.9,0,0,0,1.8,3.742a1.148,1.148,0,0,0-.118-.252A1.691,1.691,0,0,0,1.5,3.258c-.07-.079-.143-.154-.215-.224ZM.858.9A.3.3,0,0,0,.68.949a.3.3,0,0,0-.106.144.623.623,0,0,0-.035.217.907.907,0,0,0,.04.275,1.173,1.173,0,0,0,.11.248,1.708,1.708,0,0,0,.165.231,2.892,2.892,0,0,0,.2.22L1.127.965A.7.7,0,0,0,.863.9Z" transform="translate(20.34 9.737)" fill="#5e666a"/>
        <path id="Fill_105_Copy" data-name="Fill 105 Copy" d="M2.491,8.779A.816.816,0,0,1,2.1,8.65a1.554,1.554,0,0,1-.568-.565,1.437,1.437,0,0,1-.214-.73.5.5,0,0,1,.22-.489.376.376,0,0,1,.178-.043.8.8,0,0,1,.383.125,1.561,1.561,0,0,1,.562.565,1.44,1.44,0,0,1,.22.742.5.5,0,0,1-.214.482A.362.362,0,0,1,2.491,8.779Zm.2-2.344h0L1.456,5.724a3.015,3.015,0,0,1,.165-1.151,1.137,1.137,0,0,1,.6-.567,1.5,1.5,0,0,0,.582-.4A.858.858,0,0,0,2.948,3.1,1.48,1.48,0,0,0,2.2,1.717a.8.8,0,0,0-.382-.125.355.355,0,0,0-.189.052.645.645,0,0,0-.224.572L0,1.41C.006.705.207.259.6.083A.985.985,0,0,1,1,0,2.515,2.515,0,0,1,2.2.4,4.469,4.469,0,0,1,3.783,1.887a3.6,3.6,0,0,1,.564,1.942,1.562,1.562,0,0,1-.184.791,1.6,1.6,0,0,1-.642.566l-.391.205a.85.85,0,0,0-.42.714l-.019.329Z" transform="translate(52.741 25.934)" fill="#e48f29"/>
      </g>
      <g id="man" transform="translate(97.938 33.585)">
        <path id="Fill_105" data-name="Fill 105" d="M2.814,9.935a.926.926,0,0,1-.444-.146,1.763,1.763,0,0,1-.641-.64,1.622,1.622,0,0,1-.242-.826.568.568,0,0,1,.248-.553.425.425,0,0,1,.2-.048.9.9,0,0,1,.433.141A1.766,1.766,0,0,1,3,8.5a1.638,1.638,0,0,1,.248.84.566.566,0,0,1-.242.546A.406.406,0,0,1,2.814,9.935Zm.225-2.652h0l-1.394-.8a3.406,3.406,0,0,1,.186-1.3,1.28,1.28,0,0,1,.678-.642,1.694,1.694,0,0,0,.657-.451A.963.963,0,0,0,3.328,3.5a1.678,1.678,0,0,0-.85-1.561A.9.9,0,0,0,2.047,1.8a.4.4,0,0,0-.213.058.731.731,0,0,0-.254.648L0,1.6C.007.8.234.293.672.094A1.11,1.11,0,0,1,1.133,0,2.841,2.841,0,0,1,2.479.453,5.055,5.055,0,0,1,4.271,2.136a4.076,4.076,0,0,1,.637,2.2,1.77,1.77,0,0,1-.207.895,1.807,1.807,0,0,1-.725.641L3.535,6.1a.96.96,0,0,0-.473.806l-.022.373Z" transform="translate(20.753 10.901)" fill="#e48f29"/>
        <path id="Fill_102" data-name="Fill 102" d="M4.052,0,1.432,5.914,0,6.746,2.619.832Z" transform="translate(23.206 23.103)" fill="#f8f7f6"/>
        <g id="_" data-name="?" transform="translate(14.098)">
          <path id="Fill_103" data-name="Fill 103" d="M1.871.2A2.05,2.05,0,0,1,3.938.4L18.555,8.832a6.375,6.375,0,0,1,2.894,5.009l-.026,10.521a2.031,2.031,0,0,1-.847,1.861L18.7,27.31a2.029,2.029,0,0,0,.847-1.861l.026-10.521a6.37,6.37,0,0,0-2.894-5.009L2.066,1.485A2.051,2.051,0,0,0,0,1.282Z" transform="translate(0.873)" fill="#00226d"/>
          <path id="Fill_104" data-name="Fill 104" d="M2.939.4C1.336-.527.031.215.026,2.057L0,12.577a6.375,6.375,0,0,0,2.894,5.01l3.914,2.259,3.367,11.643L13.6,23.763l3.914,2.258c1.6.925,2.907.183,2.913-1.659l.026-10.521a6.378,6.378,0,0,0-2.894-5.01Z" transform="translate(0 1.087)" fill="url(#linear-gradient-2)"/>
          <path id="Fill_105-2" data-name="Fill 105" d="M3.676,12.98a1.2,1.2,0,0,1-.58-.191,2.294,2.294,0,0,1-.837-.835,2.131,2.131,0,0,1-.316-1.08.743.743,0,0,1,.324-.722.556.556,0,0,1,.264-.063,1.169,1.169,0,0,1,.565.184,2.314,2.314,0,0,1,.83.835,2.142,2.142,0,0,1,.323,1.1.741.741,0,0,1-.317.715A.534.534,0,0,1,3.676,12.98Zm.3-3.465h0L2.149,8.463a4.452,4.452,0,0,1,.243-1.7,1.673,1.673,0,0,1,.886-.838,2.206,2.206,0,0,0,.858-.589,1.26,1.26,0,0,0,.213-.757,2.191,2.191,0,0,0-1.11-2.038,1.175,1.175,0,0,0-.565-.186.526.526,0,0,0-.279.076.956.956,0,0,0-.33.848L0,2.085C.009,1.043.3.383.878.122A1.454,1.454,0,0,1,1.482,0,3.709,3.709,0,0,1,3.239.591,6.613,6.613,0,0,1,5.58,2.79a5.331,5.331,0,0,1,.833,2.872,2.3,2.3,0,0,1-.271,1.169,2.355,2.355,0,0,1-.947.838l-.577.3A1.256,1.256,0,0,0,4,9.027l-.028.487Z" transform="translate(6.969 7.82)" fill="#00226d"/>
        </g>
        <path id="Fill_1-2" data-name="Fill 1" d="M0,14.694c6.889,1.8,12.817-.3,14.077-1.2L25.158,6.6,14.676,0S8.083,5.979,4.792,8.7c-.991.818,2.38.826.6,2.1C3.295,12.295,0,14.694,0,14.694Z" transform="translate(25.158 116.049) rotate(-180)" opacity="0.515" fill="url(#linear-gradient-3)"/>
        <path id="Fill_106" data-name="Fill 106" d="M5.945,4.052C5.357,2.662,3.79.561,2.669.345,1.378.1,1.232-.117.882.073-.016.557.836.91.8,1.156c-.038.276-.252.162-.673.717-.343.451.1.475.1.681-.007.168-.219.2-.178.384.015.069.087.112.094.187.017.187-.173.136-.051.653.115.492,1.153-.22,1.988.539.209.189.38.414.572.62a4.2,4.2,0,0,0,.785.659c.243.158.751.446.861.539Z" transform="translate(25.253 38.806)" fill="#f1c2a9"/>
        <path id="Fill_107" data-name="Fill 107" d="M3.317.962A33.394,33.394,0,0,1,7.98.067a2.028,2.028,0,0,1,.96-.014c.779.244,1.08,1.6.9,2.275a2.006,2.006,0,0,1-.915,1.125A4.857,4.857,0,0,1,6.7,4.175a4.439,4.439,0,0,0-2.221.636A4.491,4.491,0,0,1,1.858,5.948,1.778,1.778,0,0,1,0,4.037,5.655,5.655,0,0,1,.253,2.853C.506,1.973.176,2.008,3.317.962" transform="translate(16.863 98.385)" fill="#1e2425"/>
        <path id="Fill_108" data-name="Fill 108" d="M2.028,2.063c.055-.066.107-.135.158-.206A5.911,5.911,0,0,1,5.121,0c.75,0,1.215.907,1.1,1.647-.055.343-.194.667-.269,1.006C5.433,4.984,7.2,5.089,8.912,6.306a2.55,2.55,0,0,1,.805.787A2.013,2.013,0,0,1,8.8,9.454a2,2,0,0,1-1.445.127A4.855,4.855,0,0,1,5.288,8.488a4.435,4.435,0,0,0-2-1.15C1.94,7.013.276,6.759.016,5.071a1.851,1.851,0,0,1,.347-1.29A23.368,23.368,0,0,1,2.028,2.063" transform="translate(11.082 98.296)" fill="#363d3f"/>
        <path id="Fill_109" data-name="Fill 109" d="M4.49,1.969c.6.608,2.875-.511,2.907-.81C10.1-.935,9.779,7.428,9,10.75c-.417,1.792-.308,3.656-.556,5.476a41.292,41.292,0,0,1-1.279,6A2.814,2.814,0,0,1,6.6,23.41a2.869,2.869,0,0,1-2.587.453,2.685,2.685,0,0,1-2.038-1.039A2.855,2.855,0,0,1,1.749,21.4,18.959,18.959,0,0,0,1.51,17.53C.229,11.215-.5,9.195.4,3.469.571,2.346.2.244,1.792.017c1.442-.2,2.3,1.547,2.7,1.953" transform="translate(14.195 64.093)" fill="#3b5165"/>
        <path id="Fill_110" data-name="Fill 110" d="M.167,1.878.614,0C.435.619.288,1.246.167,1.878" transform="translate(21.738 80.85)" fill="#c84d33"/>
        <path id="Fill_111" data-name="Fill 111" d="M5.318,2.046A1.924,1.924,0,0,0,3.325,1.61C3.023,1.744.829.485.184,0A2.763,2.763,0,0,1,.141.649C.127.87.113,1.093.1,1.316A56.174,56.174,0,0,0,.089,7.854,16.516,16.516,0,0,1,.2,10.205,15.949,15.949,0,0,0,.5,12.771c.5,3.969.483,4.818,1.021,5.34a2.63,2.63,0,0,0,3.728-.327c.773-.918.224-4.337.215-10.454A34.022,34.022,0,0,1,5.984.847Z" transform="translate(15.722 83.563)" fill="#3b5165"/>
        <path id="Fill_112" data-name="Fill 112" d="M6.413,1.6C6.672,1.47,8,.8,7.99.442,7.983.2,8.637,0,8.805,0a1.664,1.664,0,0,1,.857.377c1.5,1.07,1.754,3.082,1.856,4.918a58.569,58.569,0,0,1-1.431,16.488,1.729,1.729,0,0,1-.951,1.367c-1.339.843-3.752.731-4.709-.784-1.032-1.63-.6-4.168-.932-6C2.678,11.812-.924,10.649.224,3.716.372,2.821.648.68,1.561.156A3.12,3.12,0,0,1,4.773.962c.775.77.685,1.132,1.641.641" transform="translate(16.446 65.044)" fill="#54677e"/>
        <path id="Fill_113" data-name="Fill 113" d="M3.854,19.983A2.824,2.824,0,0,1,1.537,19.4,4.471,4.471,0,0,1,.065,17.967,3.055,3.055,0,0,1,.35,16.154a78.061,78.061,0,0,1,5.011-9.9C6.477,4.344,7.368,2.363,8.377.394A.793.793,0,0,1,8.972,0a24.793,24.793,0,0,1,4.179,5.043c-9.157,14.5-8.185,14.465-9.3,14.941" transform="translate(13.135 82.507)" fill="#54677e"/>
        <path id="Fill_114" data-name="Fill 114" d="M1.283,13.08c-.8-4.54-2.8-10.486.762-12.5C4.745-.941,7,.9,9.527,1.81a23.768,23.768,0,0,1,4.745,2.334,4.189,4.189,0,0,1,1.4,1.073,3.487,3.487,0,0,1,.605,1.8,10.043,10.043,0,0,1-.221,2.236,55.973,55.973,0,0,0-.847,9.316c0,2.617.294,5.214.375,7.828a7.525,7.525,0,0,1-.072,1.763c-.123.589-.454.755-.992,1a10.266,10.266,0,0,1-3.328.734c-2.875.289-5.956.414-8.461-1.027A2.4,2.4,0,0,1,1.7,27.948a3.974,3.974,0,0,1-.038-1.41c-.134-4.633.455-8.747-.376-13.457" transform="translate(12.313 41.526)" fill="#b26cc9"/>
        <path id="Fill_115" data-name="Fill 115" d="M6.1,3.07c.1-.692.624-.531.359-1.159A3.4,3.4,0,0,0,5.436.535,2.461,2.461,0,0,0,3.823,0c-.2.012-.332.125-.529.126A11.568,11.568,0,0,0,1.657.106C1.116.184.616.223.616.833a7.433,7.433,0,0,1-.223,2.4A5.849,5.849,0,0,0,.006,4.518,2.262,2.262,0,0,0,1.372,6.605,5.357,5.357,0,0,0,4.5,6.884c.522-.076,1.258-.18,1.565-.677a1.989,1.989,0,0,0,.082-1.278A6.96,6.96,0,0,1,6.1,3.07" transform="translate(17.422 38.034)" fill="#f1c2a9"/>
        <path id="Fill_116" data-name="Fill 116" d="M9.341,1.669a2.836,2.836,0,0,1,.665,1.378c.176,1.176-.3,2.385-.042,3.553.248,1.13-.238,3.7-2.469,4.357a7.933,7.933,0,0,1-4.073-.4A5.737,5.737,0,0,1,1.256,8.263C-3.405.867,6.18-2.175,9.341,1.669" transform="translate(16.395 31.124)" fill="#f1c2a9"/>
        <path id="Fill_117" data-name="Fill 117" d="M.155,7.117c.03.219.061.438.1.655a4.219,4.219,0,0,0,.123.486,3.289,3.289,0,0,0,.155.4,8.452,8.452,0,0,0,.85,1.394A4.967,4.967,0,0,0,3.036,11.7a6.282,6.282,0,0,0,3.272.739,4.3,4.3,0,0,0,1.7-.4,2.654,2.654,0,0,0,1.235-1.2c.208-.436.269-.936.507-1.357.38-.674,1.174-1.086,1.409-1.823a3.259,3.259,0,0,0,.075-1.065c-.015-.8.2-1.569.234-2.359a4.178,4.178,0,0,0-1.6-2.845A4.9,4.9,0,0,0,8.517.459,5.486,5.486,0,0,0,7.123.109,6.618,6.618,0,0,0,2.963.63a1.818,1.818,0,0,0-.805.765.975.975,0,0,1-.116.222.791.791,0,0,1-.284.178,2.815,2.815,0,0,0-.841.588C-.225,3.558-.061,5.557.155,7.117" transform="translate(15.372 28.955)" fill="#cfb186"/>
        <path id="Fill_118" data-name="Fill 118" d="M.868,0C-.025-.072-.271,1.034.328,1.9a4.464,4.464,0,0,0,.719.684c1.58,1.391,2.007-.078,1.506-.551C1.389.936,1.992.1.868,0" transform="translate(23.207 37.221)" fill="#f1c2a9"/>
        <path id="Fill_119" data-name="Fill 119" d="M6.657,3.305c-.431.478-3.158.994-4.979.32A2.443,2.443,0,0,1,.034.976,2.081,2.081,0,0,1,.685,0S.64.283.608.5c-.117.786,2.9,3.255,5.852,1.211.184.262.629,1.113.2,1.593" transform="translate(17.114 41.301)" fill="#b26cc9"/>
        <path id="Fill_120" data-name="Fill 120" d="M2.792.064C3.059.2,9.043,8.48,8.179,11.113c-.171.521-.565.385-1.093.6A2.8,2.8,0,0,1,4.244,11.5a5.433,5.433,0,0,1-1.719-2.26A58.578,58.578,0,0,1,.08,2.6C-.505.254,2.29-.192,2.792.064" transform="translate(28.575 42.482)" fill="#804d90"/>
        <path id="Fill_121" data-name="Fill 121" d="M2.829.037c-.872-.48-3.7,3.9-2.561,5.407.8,1.055,13.026,8.619,13.854,3.009C14.627,5.031,2.688-.041,2.829.037" transform="translate(22.654 45.007)" fill="#b26cc9"/>
      </g>
      <g id="woman" transform="translate(142.576 75.513)">
        <path id="Fill_1_Copy_3" data-name="Fill 1 Copy 3" d="M0,8.4c6.889,1.8,7.126,2.7,8.386,1.8L17.97,3.3,5.092,0S4.193,1.5,1.8,4.8A16.37,16.37,0,0,0,0,8.4Z" transform="translate(26.944 80.418) rotate(-180)" opacity="0.624" fill="url(#linear-gradient-4)"/>
        <path id="Fill_122" data-name="Fill 122" d="M2.908,12.329c.824-1.362,3.271-5.474,4.4-7.748.305-.612-.055-1.041.026-1.734A3.969,3.969,0,0,0,6.957.826,1.284,1.284,0,0,0,6.3.045a1.124,1.124,0,0,0-.888.137A6.655,6.655,0,0,0,2.32,4.212C1.846,5.707.7,8.055.234,9.561a4.215,4.215,0,0,0-.225.892C-.1,11.9.815,12.957,1.9,12.691c.529-.13.564.378,1.012-.363" transform="translate(13.057 10.871)" fill="#91b5d2"/>
        <path id="Fill_123" data-name="Fill 123" d="M1.619,7.722A7.278,7.278,0,0,0,4.349,6.56C5.556,5.915,6.77,5.267,7.925,4.53c.465-.3.351-.833.674-1.319a3.477,3.477,0,0,0,.473-1.769A1.471,1.471,0,0,0,8.865.469a1.114,1.114,0,0,0-.732-.4A4.478,4.478,0,0,0,4.24,1.4c-.8.757-1.728,1.375-2.594,2.053a14.926,14.926,0,0,0-1.178,1A2.155,2.155,0,0,0,0,6.048,1.761,1.761,0,0,0,.641,7.44a1.5,1.5,0,0,0,.979.282" transform="translate(7.93 19.885)" fill="#91b5d2"/>
        <path id="Fill_124" data-name="Fill 124" d="M1.173,1.282A3.057,3.057,0,0,0,.106,2.513,1.55,1.55,0,0,0,.347,4.075a1.045,1.045,0,0,0,1.48.057,2.844,2.844,0,0,0,.4-.932,2.156,2.156,0,0,1,.85-1.042c.21-.134.442-.232.643-.379A.84.84,0,0,0,4.1,1.166C4.113.6,3.248.074,2.756.009a.822.822,0,0,0-.577.117,1.47,1.47,0,0,0-.358.454,3.108,3.108,0,0,1-.648.7" transform="translate(6.055 25.045)" fill="#ebbebc"/>
        <path id="Fill_125" data-name="Fill 125" d="M8.177,1.086A11.6,11.6,0,0,0,5.431.019c-.194-.043-.845.2-1.039.16A7.189,7.189,0,0,0,.045.532L0,.553V9.445H8.546Z" transform="translate(19.103 10.884)" fill="#f8f7f6"/>
        <path id="Fill_126" data-name="Fill 126" d="M5.326,5.309S-.078,8.5,0,5.55C.111,1.431.345.959,2.154.321A4.957,4.957,0,0,1,3.692,0c1.91-.038,1.171,1,1.1,1.728-.213,2.152.5,2.45.535,3.58" transform="translate(21.502 7.044)" fill="#e6af91"/>
        <path id="Fill_127" data-name="Fill 127" d="M8.177,1.086A11.6,11.6,0,0,0,5.431.019c-.194-.043-.845.2-1.039.16A7.189,7.189,0,0,0,.045.532L0,.553V9.445H8.546Z" transform="translate(19.103 10.884)" fill="#daaaa8"/>
        <path id="Fill_128" data-name="Fill 128" d="M6.951,2.1A14.475,14.475,0,0,0,8.176.751C7.84.6,7.57.468,7.321.35A5.4,5.4,0,0,1,2.67,2.637C1.747,2.521,1.443,1.528.635,0a5.853,5.853,0,0,0-.59.2L0,.218A15.77,15.77,0,0,0,1.593,2.792c1.466,1.463,4.3.143,5.358-.694" transform="translate(19.103 11.219)" fill="#d5d6e0"/>
        <path id="Fill_129" data-name="Fill 129" d="M.308.358.235.36C.448.3.569.351.308.358" transform="translate(20.616 10.393)" fill="#d5d6e0"/>
        <path id="Fill_130" data-name="Fill 130" d="M16.795,5.326c.034.366-.469.861-.591,1.288a13.812,13.812,0,0,1-.5,1.47c-1.033,2.622-2.65,5.048-3.119,7.825a14.823,14.823,0,0,0-.122,3.293,13.722,13.722,0,0,1,.095,1.573,4.53,4.53,0,0,1,0,.522c-.041.189-.136.257-.313.392A7.267,7.267,0,0,1,9,23.058a11.847,11.847,0,0,1-3.826-.081c-.36-.061-.7-.129-1.026-.2a11.722,11.722,0,0,1-2.7-.908c-.265-.2-.149-.142.075-2.059C2.445,11.933-1.04,11.79.319,7.67c.23-.7.706-1.368,1-2.073C2.4,3.015,1.718.143,5.679,0a.961.961,0,0,0-.646.969c-.081,1.66.938,1.977,1.162,2.053,1.821.617,5.089.61,5.911-1.8,1.712,1.03,4.5,2.053,4.688,4.106" transform="translate(15.17 10.751)" fill="#91b5d2"/>
        <path id="Fill_131" data-name="Fill 131" d="M1.24,0a4.393,4.393,0,0,0,.623,2.267,2.04,2.04,0,0,0,.815.649L.533,4.678a5.613,5.613,0,0,1-.47-2.838C.187,1.341.443,0,1.24,0" transform="translate(18.745 10.809)" fill="#d6d9dc"/>
        <path id="Fill_132" data-name="Fill 132" d="M5.267.1a.123.123,0,0,1,.12.048c.009.237-.36-.248-.53-.136-.564.368-.912,1.463-1.883,2.04A3.808,3.808,0,0,1,0,2.421,16.367,16.367,0,0,0,.528,5.5C1.61,5.366,3.611,4.058,4.543,3.544A3.332,3.332,0,0,0,5.876,2.222a1.811,1.811,0,0,0,.332-1.068C6.184,1.008,5.91.045,5.67.238Z" transform="translate(21.42 11.304)" fill="#d6d9dc"/>
        <path id="Fill_133" data-name="Fill 133" d="M0,.67l.456,3.02a.356.356,0,0,0,.461-.055L.911,0Z" transform="translate(26.023 68.712)" fill="#21272d"/>
        <path id="Fill_134" data-name="Fill 134" d="M.111,7.816A1.053,1.053,0,0,0,.326,8.2a1.465,1.465,0,0,0,.882.506,1.521,1.521,0,0,0,.66-.091,1.547,1.547,0,0,0,.871-.757,4.057,4.057,0,0,0,.565-1.3c.046-.22.389-2.016.511-2.324A12.491,12.491,0,0,0,4.458.817.781.781,0,0,0,4.178.272a1.427,1.427,0,0,0-.6-.259,2.291,2.291,0,0,0-.64.032.923.923,0,0,0-.356.079c-.313.161-.585-.257-.8.017A7.218,7.218,0,0,0,1.1,1.759C1,2.052.542,3.972.387,4.649.273,5.141.146,5.632.08,6.134A3.782,3.782,0,0,0,.111,7.816" transform="translate(22.465 67.669)" fill="#21272d"/>
        <path id="Fill_135" data-name="Fill 135" d="M.905,3.625.992.117,0,0,.168,3.64a.516.516,0,0,0,.737-.014" transform="translate(21.117 67.108)" fill="#21272d"/>
        <path id="Fill_136" data-name="Fill 136" d="M.338,6.535A2.439,2.439,0,0,0,0,7.541a.376.376,0,0,0,.178.347,2.128,2.128,0,0,0,1,.351,3.577,3.577,0,0,0,1.071-.064,5.875,5.875,0,0,0,1.613-.651,1.8,1.8,0,0,0,.717-.735,3.528,3.528,0,0,0,.263-1.032,2.471,2.471,0,0,1,.84-1.762c.153-.1.325-.176.481-.274A2.277,2.277,0,0,0,6.535.373c-.445-.53-.929-.428-1.477-.11A5.5,5.5,0,0,0,3.642,1.854c-.065.081-.132.161-.2.236C2.944,2.608,3.42.025,3.181.737a51.819,51.819,0,0,1-2.843,5.8" transform="translate(15.013 65.338)" fill="#21272d"/>
        <path id="Fill_137" data-name="Fill 137" d="M0,4.893a37.917,37.917,0,0,1,1.024,5.795c.169,1.283.485,6.02-.758,8.8-.284.634,1.832-1.315,2.408-1.7.4-.27,1.17-.906,1.158-1.387-.064-2.717,1.033-5.729,1.359-8.429A25.435,25.435,0,0,0,4.54,0Z" transform="translate(17.102 49.151)" fill="#ebbebc"/>
        <path id="Fill_138" data-name="Fill 138" d="M1.332,3.8a4.571,4.571,0,0,1-.251.661C.994,4.671-.462,6.915.15,7.223c.353.177,1.082-.194,1.284-.4A18.319,18.319,0,0,0,2.527,5.306,4.426,4.426,0,0,1,4.05,4.25a1.7,1.7,0,0,0,.621-.463,1.618,1.618,0,0,0,.291-1.28,2.722,2.722,0,0,0-.246-.685,2.293,2.293,0,0,1-.274-.641A2.566,2.566,0,0,0,4.065,0S1.384,3.595,1.332,3.8" transform="translate(16.489 63.672)" fill="#ebbebc"/>
        <path id="Fill_139" data-name="Fill 139" d="M0,0C.349,4.722,1.627,11.88,2.02,16.6A37.1,37.1,0,0,1,1.8,24.61c-.122.684,1.693.675,2.287.312A5.37,5.37,0,0,0,4.9,22.293c-.12-2.915,1.284-5.271,1.737-7.952A19.536,19.536,0,0,0,5.5,4.735c-.234-.519-.573-1.083-1.134-1.185Z" transform="translate(21.715 46.472)" fill="#ebbebc"/>
        <path id="Fill_140" data-name="Fill 140" d="M.873,1.888C.8,2.212.521,1.512.5,1.84.47,2.209.2,3.906.128,4.268a4.732,4.732,0,0,0-.1,1.484,1.057,1.057,0,0,0,.561.919c.431.185.954-.145,1.261-.488a3.789,3.789,0,0,0,.66-1.113A6.511,6.511,0,0,0,2.98,3.828,9.206,9.206,0,0,0,3.321,1.18,5.87,5.87,0,0,0,3.023,0,4.186,4.186,0,0,0,2.6.342L.988,1.731c-.2.175-.053-.126-.115.157" transform="translate(23.28 66.919)" fill="#ebbebc"/>
        <path id="Fill_141" data-name="Fill 141" d="M13.821,16.539c-.348,2.209-.66,5.131-.919,7.352-.2,1.751-5.191,1.993-6.348,2.015-.932.019-5.108-.466-5.408-1.447-.388-1.278-.686-8.3-.788-10.2a69.51,69.51,0,0,1-.2-10.816c0-.074.015-.145.021-.219S.193,3.062.2,2.982s.021-.176.033-.264.024-.2.039-.295C.331,2.022.7.42.7.42A2.9,2.9,0,0,0,3.07,2.266C9.2,3.485,12.01.328,11.834,0c.5.755.95,1.421,1.324,2.1l.012.019c.036.062.069.126.1.19.072.133.138.266.205.4a9.826,9.826,0,0,1,.939,3.444,57.234,57.234,0,0,1-.593,10.388" transform="translate(15.889 30.939)" fill="#3d4a5a"/>
        <path id="Fill_142" data-name="Fill 142" d="M8.65,7.828c.083-.258.244-.455.329-.713a6.809,6.809,0,0,0,.4-1.973,5.423,5.423,0,0,0-.754-2.957A4.535,4.535,0,0,0,7.23.751,4.851,4.851,0,0,0,2.36.568a7.018,7.018,0,0,0-1.127.8,3.383,3.383,0,0,0-.8.878,3.162,3.162,0,0,0-.283.73A3.458,3.458,0,0,0,0,3.842C-.018,4.891.675,5.763.879,6.763c.1.5-.084.982-.022,1.5a2.831,2.831,0,0,0,.484,1.257,14.616,14.616,0,0,1,.71,1.292,5.221,5.221,0,0,0,.674,1.033c.954,1.051,2.105.094,3.02-.5a16.477,16.477,0,0,0,2.1-1.9A10.516,10.516,0,0,0,8.65,7.828Z" transform="translate(16.677 1.125)" fill="#ebbebc"/>
        <path id="Fill_143" data-name="Fill 143" d="M10.627,3.729A4.057,4.057,0,0,0,7.918.467,5.29,5.29,0,0,0,4.4.162,5.355,5.355,0,0,0,.208,3.692c-.138.59-.438,1.584.1,2.075.283.257.733.154,1.109.155l1.6.006a3.665,3.665,0,0,1,1.491.207,6.922,6.922,0,0,1,1.2.924c.6.452,1.639,1.23,2.356.684.306-.233.594-.577,1.023-.431.4.134.37.616.363.96,0,.065-.029.557.162.515a5.39,5.39,0,0,0,1.015-5.058" transform="translate(16.345)" fill="#3b3a3b"/>
        <path id="Fill_144" data-name="Fill 144" d="M2.19,6.323a3,3,0,0,1-.064.926A7.655,7.655,0,0,1,1.393,9.1a10.623,10.623,0,0,0-1.372,3.6,4.134,4.134,0,0,0,.346,2.052c.385.991,1.158,2.535,2.5,2.2.674-.17.559-1.113.627-1.633a6.25,6.25,0,0,1,.946-2.62A4.4,4.4,0,0,0,5.361,11a10.149,10.149,0,0,0-.3-2.451,8.923,8.923,0,0,1,.061-2.1,23.617,23.617,0,0,0-.019-4.078C4.87,1.5,3.944-.55,2.75.139A3.424,3.424,0,0,0,1.3,2.808C1.271,3,.93,4.549,1.221,4.747c.148.1.356.117.483.231A4.868,4.868,0,0,1,2.19,6.323" transform="translate(22.867 2.636)" fill="#3b3a3b"/>
        <path id="Fill_145" data-name="Fill 145" d="M1.274.039c.82-.247,1.269.736.88,1.663a4.206,4.206,0,0,1-.536.78C.418,4.091-.272,2.805.1,2.265.973,1.01.242.349,1.274.039" transform="translate(23.742 6.408)" fill="#ebbebc"/>
        <path id="Fill_146" data-name="Fill 146" d="M9.344,12.391,0,7.011,12.177,0,21.52,5.38Z" transform="translate(0 25.025)" fill="#eaeaec"/>
        <path id="Fill_147" data-name="Fill 147" d="M5.923,7.05a2.212,2.212,0,0,1-1.106-.336l-.829-.477c-.38-.219-.565-.423-.565-.622s.181-.4.554-.61l.994-.572a2.084,2.084,0,0,1,1.055-.319,2.2,2.2,0,0,1,1.1.335l.829.477c.382.22.567.424.567.624s-.181.4-.552.609l-.994.572A2.074,2.074,0,0,1,5.923,7.05Zm.111-2.214h0a.791.791,0,0,0-.4.133l-.725.418c-.16.092-.228.16-.228.228s.07.141.222.228l.594.343a.868.868,0,0,0,.424.139.78.78,0,0,0,.39-.131l.725-.418c.16-.091.231-.163.231-.231s-.066-.134-.229-.228l-.594-.342a.823.823,0,0,0-.411-.139ZM.847,4.452h0L0,3.964,9.608,2.626l.817.47L.847,4.452ZM4.423,2.935A2.211,2.211,0,0,1,3.316,2.6l-.823-.473C2.111,1.9,1.926,1.7,1.926,1.5s.18-.395.551-.608L3.471.318A2.078,2.078,0,0,1,4.525,0a2.207,2.207,0,0,1,1.1.336l.824.475c.382.221.568.426.568.626s-.18.395-.551.608l-.994.572A2.073,2.073,0,0,1,4.423,2.935ZM4.533.722a.789.789,0,0,0-.4.133l-.725.418c-.16.092-.228.16-.228.228s.071.141.222.228l.6.346a.853.853,0,0,0,.418.139.775.775,0,0,0,.39-.134l.725-.418c.161-.093.233-.164.233-.232S5.7,1.3,5.544,1.207l-.6-.346A.824.824,0,0,0,4.533.722Z" transform="translate(5.283 27.569)" fill="#029dc4"/>
        <path id="Fill_148" data-name="Fill 148" d="M0,.955A9.088,9.088,0,0,0,.152,2.574a.986.986,0,0,0,.11.338.357.357,0,0,0,.291.181.36.36,0,0,0,.3-.211A1.227,1.227,0,0,0,.893,2.2a.763.763,0,0,1,.158-.646,2.338,2.338,0,0,1,.277-.177A.755.755,0,0,0,1.43.307,1.051,1.051,0,0,0,.378.046C-.007.172,0,.6,0,.955" transform="translate(7.555 25.633)" fill="#ebbebc"/>
        <path id="Fill_149" data-name="Fill 149" d="M5.789,1.947a.973.973,0,0,1-.192.3.692.692,0,0,1-.484.219,1.269,1.269,0,0,1-.647-.272q-.489-.317-1-.583a.335.335,0,0,0-.283-.051.243.243,0,0,0-.117.234c0,.063.142.329.111.35-.063.042-.259-.006-.335-.006-.131,0-.263,0-.394.013a5.653,5.653,0,0,0-2.3.667A.332.332,0,0,0,.032,2.9a.139.139,0,0,0-.021.141.178.178,0,0,0,.133.078A4.179,4.179,0,0,0,1.331,3.06c.17-.014.332.022.5.015a3.935,3.935,0,0,1,.662.033,8.925,8.925,0,0,0-1.943.417c-.129.043-.428.159-.463.318-.048.217.267.235.392.239l1.15.034A2.681,2.681,0,0,0,.4,4.4c-.185.09-.323.143-.19.372a.425.425,0,0,0,.42.221c.252-.039.5-.086.752-.114a4.935,4.935,0,0,1,1.068-.018,3.224,3.224,0,0,0-.742.4,1.147,1.147,0,0,0-.429.615c-.033.163.041.441.243.39a5.019,5.019,0,0,0,.632-.208,6.945,6.945,0,0,1,1.317-.486c.672-.123,1.376.063,2.046-.072a3,3,0,0,0,1.55-.948A17.232,17.232,0,0,0,8.021,3.1,13.887,13.887,0,0,0,9.082,1.175.977.977,0,0,0,9.159.608.808.808,0,0,0,8.584.114a2.338,2.338,0,0,0-1.008-.1,1.436,1.436,0,0,0-.9.328A5.8,5.8,0,0,0,5.962,1.56c-.071.126-.115.26-.173.388" transform="translate(24.17 28.405)" fill="#ebbebc"/>
        <path id="Fill_150" data-name="Fill 150" d="M1.676.347C1.461.113,1.169-.081.9.034A1.013,1.013,0,0,0,.453.629,7.518,7.518,0,0,0,.059,2.761,11.754,11.754,0,0,0,.05,4.995,3.67,3.67,0,0,0,.739,6.98c.414.419.811.876,1.212,1.321q1.215,1.347,2.471,2.632A6.835,6.835,0,0,0,5.7,12.151a1.94,1.94,0,0,0,2.887-1.362A2.757,2.757,0,0,0,8.4,9.365a7.546,7.546,0,0,0-.961-1.61q-.594-.895-1.205-1.773a44.841,44.841,0,0,0-3.4-4.493C2.522,1.147,1.741.419,1.676.347" transform="translate(28.671 13.337)" fill="#91b5d2"/>
        <path id="Fill_151" data-name="Fill 151" d="M2.036,10.437s5.067-5.96,5.693-8.7C7.88,1.083,6.6.7,5.962.161,5.529-.2,4.883.134,4.469.382,3.954.691.338,7.972.048,8.374c-.413.571,1.988,2.064,1.988,2.064" transform="translate(29.551 22.284)" fill="#91b5d2"/>
      </g>
    </g>
    <path id="Path_2" data-name="Path 2" d="M5.04,0s-3.3,5.99-4.5,7.787c-1.573,2.357.6,6.29,2.4,6.589,2.077.346,9.6.6,9.6.6" transform="translate(124.295 30.344) rotate(90)" fill="none" stroke="#d9e1e1" stroke-linecap="round" stroke-linejoin="round" stroke-miterlimit="10" stroke-width="0.84" stroke-dasharray="1.8"/>
    <path id="Path_2_Copy_2" data-name="Path 2 Copy 2" d="M0,11.082C1.2,8.985,7.337,6.29,10.5,6.29c2.7,0,4.5-6.29,7.2-6.29,2.1,0,18.992.023,18.992.023" transform="translate(214.745 38.983) rotate(90)" fill="none" stroke="#d9e1e1" stroke-linecap="round" stroke-linejoin="round" stroke-miterlimit="10" stroke-width="0.84" stroke-dasharray="1.8"/>
    <g id="graph" transform="translate(36.54 19.192)">
      <path id="Fill_1-3" data-name="Fill 1" d="M56.138,1.135c-1.822,5.169-2.88,27.507-5.56,33.612h0c-.219.5-.74.835-1,.645h0c-1.408-1.013-3.177-7.485-4.488-12.422h0c-.165-.623-1.48.156-1.606.954h0C42.7,28.89,40.2,39.341,39.041,40h0C36.578,41.418,33.8,10.416,32.428,7.64h0c-.272-.549-1.3.088-1.6.954h0c-.928,2.632-3.239,30.878-6.162,32.557h0C22.64,42.314,20.78,30.829,19.771,27.9h0c-.209-.606-1.444.125-1.6.954h0c-1.8,9.438-3.272,26.869-5.3,27.665h0c-1.191.988-2.293-7.964-2.489-9.259h0c-.85-5.6-1.714-15.669-3.267-17.993h0c-.328-.492-1.3.088-1.6.954h0c-.927,2.633-1.264,8.112-3.436,24.007h0c-.626,4.58-.882,8.055-2.076,9.936H0v23.4L63.5,51.084V33.634C62.3,34.624,59.29,2.488,57.736.177h0A.4.4,0,0,0,57.389,0h0a1.652,1.652,0,0,0-1.251,1.135" transform="translate(0 2.399)" fill="url(#linear-gradient-5)"/>
      <path id="Fill_4" data-name="Fill 4" d="M0,36.365v.219L63.5.219V0Z" transform="translate(0 47.379)" fill="url(#linear-gradient-6)"/>
      <path id="Fill_7" data-name="Fill 7" d="M0,36.365v.219L63.5.219V0Z" transform="translate(0 53.376)" fill="url(#linear-gradient-7)"/>
      <path id="Fill_10" data-name="Fill 10" d="M63.5,0,0,36.364v.22L63.5.22Z" fill="url(#linear-gradient-8)"/>
      <path id="Fill_13" data-name="Fill 13" d="M0,36.365v.219L63.5.219V0Z" transform="translate(0 6.597)" fill="url(#linear-gradient-9)"/>
      <path id="Fill_16" data-name="Fill 16" d="M0,36.365v.219L63.5.219V0Z" transform="translate(0 11.995)" fill="url(#linear-gradient-10)"/>
      <path id="Fill_19" data-name="Fill 19" d="M0,36.364v.22L63.5.22V0Z" transform="translate(0 17.992)" fill="url(#linear-gradient-11)"/>
      <path id="Fill_22" data-name="Fill 22" d="M0,36.365v.219L63.5.219V0Z" transform="translate(0 24.589)" fill="url(#linear-gradient-12)"/>
      <path id="Fill_25" data-name="Fill 25" d="M0,36.365v.219L63.5.219V0Z" transform="translate(0 29.987)" fill="url(#linear-gradient-13)"/>
      <path id="Fill_28" data-name="Fill 28" d="M0,36.364v.22L63.5.22V0Z" transform="translate(0 35.384)" fill="url(#linear-gradient-14)"/>
      <path id="Fill_31" data-name="Fill 31" d="M0,36.365v.219L63.5.219V0Z" transform="translate(0 41.982)" fill="url(#linear-gradient-15)"/>
    </g>
  </g>
</svg>
