<svg width="29" height="29" viewBox="0 0 29 29" fill="none" xmlns="http://www.w3.org/2000/svg">
<circle cx="14.5" cy="14.5" r="14.5" fill="#D8D8D8"/>
<path fill-rule="evenodd" clip-rule="evenodd" d="M22.931 10.2104C22.3534 10.4665 21.7322 10.6397 21.0806 10.7177C21.746 10.3188 22.2568 9.68779 22.4972 8.93558C21.875 9.30457 21.1851 9.57248 20.4516 9.71723C19.8638 9.09113 19.0267 8.70006 18.1003 8.70006C16.3211 8.70006 14.879 10.1422 14.879 11.9213C14.879 12.1735 14.9075 12.4194 14.9624 12.6554C12.2848 12.5209 9.9114 11.2383 8.32259 9.28936C8.04536 9.76531 7.88638 10.3188 7.88638 10.9091C7.88638 12.0263 8.45508 13.0126 9.31915 13.5901C8.79119 13.5734 8.29463 13.4287 7.86038 13.1873C7.85989 13.201 7.85989 13.2143 7.85989 13.228C7.85989 14.7888 8.97028 16.0906 10.4443 16.3865C10.1739 16.4601 9.88932 16.4993 9.5954 16.4993C9.38785 16.4993 9.18618 16.4792 8.98942 16.4419C9.39913 17.7216 10.589 18.6529 11.9987 18.6789C10.8962 19.543 9.50708 20.0577 7.99777 20.0577C7.73771 20.0577 7.48158 20.0425 7.22937 20.0131C8.65478 20.9267 10.3481 21.4601 12.1675 21.4601C18.0929 21.4601 21.3328 16.5513 21.3328 12.2947C21.3328 12.1549 21.3299 12.016 21.3235 11.8777C21.9531 11.4238 22.4992 10.8566 22.931 10.2104Z" fill="#5E666A"/>
</svg>
