<svg width="40" height="40" viewBox="0 0 40 40" fill="none" xmlns="http://www.w3.org/2000/svg">
<path fill-rule="evenodd" clip-rule="evenodd" d="M31.6291 14.0833C30.8325 14.4366 29.9756 14.6755 29.0769 14.7831C29.9946 14.2329 30.6991 13.3625 31.0308 12.325C30.1726 12.8339 29.221 13.2035 28.2092 13.4031C27.3984 12.5395 26.2438 12.0001 24.966 12.0001C22.512 12.0001 20.5229 13.9892 20.5229 16.4433C20.5229 16.7911 20.5621 17.1302 20.6379 17.4558C16.9447 17.2703 13.671 15.5012 11.4796 12.813C11.0972 13.4694 10.8779 14.2329 10.8779 15.047C10.8779 16.5881 11.6623 17.9485 12.8541 18.745C12.1259 18.722 11.441 18.5224 10.842 18.1894C10.8414 18.2083 10.8414 18.2266 10.8414 18.2456C10.8414 20.3984 12.3729 22.194 14.406 22.6021C14.0331 22.7036 13.6406 22.7577 13.2352 22.7577C12.9489 22.7577 12.6707 22.73 12.3993 22.6786C12.9645 24.4436 14.6057 25.7282 16.5501 25.7641C15.0294 26.9559 13.1134 27.6658 11.0315 27.6658C10.6728 27.6658 10.3196 27.6449 9.97168 27.6043C11.9378 28.8645 14.2734 29.6001 16.7829 29.6001C24.9559 29.6001 29.4247 22.8295 29.4247 16.9583C29.4247 16.7654 29.4207 16.5739 29.4119 16.383C30.2802 15.757 31.0335 14.9746 31.6291 14.0833Z" fill="#5E666A"/>
<circle cx="20" cy="20" r="19.7103" stroke="#5E666A" stroke-width="0.579455"/>
</svg>
